<svg width="60" height="60" viewBox="0 0 60 60" fill="none" xmlns="http://www.w3.org/2000/svg">
<g clip-path="url(#clip0_1695_736)">
<path d="M27.8669 0H31.8331C32.3439 0.0880281 32.8682 0.127282 33.3826 0.199832C34.7124 0.387398 36.0235 0.602384 37.3276 0.929719C42.5282 2.22438 47.2811 4.90322 51.0817 8.68181C52.2346 9.80419 53.2874 11.0249 54.2283 12.3301C56.6354 15.737 58.3986 19.4681 59.2908 23.5544C59.4806 24.4236 59.6089 25.3004 59.7445 26.1791C59.8154 26.6386 59.8517 27.1716 60 27.6112V32.3985L59.9886 32.4444C59.8385 33.0621 59.7814 33.7147 59.6801 34.3433C59.5025 35.5174 59.2593 36.6807 58.9513 37.8276C56.9684 45.0913 52.3276 51.3443 45.9496 55.3461C42.826 57.3076 39.3711 58.6834 35.7542 59.4059C35.0323 59.5454 34.3004 59.6864 33.5716 59.7827C33.0397 59.8531 32.4344 59.8499 31.9231 60H28.0208C27.5604 59.862 26.9568 59.8539 26.4719 59.7886C25.6413 59.6768 24.803 59.5277 23.9821 59.3584C19.6614 58.4677 15.9302 56.7726 12.3413 54.2276C11.0698 53.3078 9.87794 52.2824 8.77856 51.1624C5.01219 47.4111 2.32057 42.7184 0.984081 37.5732C0.695506 36.4519 0.436394 35.2964 0.272266 34.1494C0.166851 33.4128 0.133027 32.6539 0.0049705 31.9231L0 31.8958V27.9074C0.0505376 27.7176 0.0587068 27.4984 0.0844313 27.3025L0.254728 26.0258C0.341898 25.37 0.479609 24.7156 0.610486 24.0672C1.40307 20.1454 2.97274 16.4219 5.22696 13.1163C9.25125 7.21325 15.2474 2.93747 22.1395 1.05615C23.5681 0.67045 25.0261 0.428314 26.4857 0.195122C26.9325 0.123741 27.3907 0.0952312 27.8338 0.00683963L27.8669 0Z" fill="#9C9CA4"/>
<path d="M36.9845 21.1973C37.4878 21.5353 38.0135 21.8178 38.5418 22.1136C39.0293 22.3868 39.511 22.6705 40.0006 22.9401C40.2788 23.0933 40.5672 23.2287 40.8395 23.3925C40.7832 24.0183 40.812 24.6631 40.8128 25.291L40.8174 28.4025C40.3068 28.7593 39.7249 29.0511 39.1847 29.3648L35.5448 31.449C35.008 31.7573 34.2812 32.1066 33.8135 32.4962C33.7822 32.9193 33.8002 33.3506 33.8003 33.7748L33.8012 35.9848L33.8095 40.4963C33.4497 40.7425 33.0576 40.9574 32.6843 41.1834L31.1162 42.1477C30.6934 42.4048 30.2166 42.6421 29.8588 42.9858C28.9401 42.3665 27.9757 41.8093 27.0307 41.2311C26.6098 40.9736 26.1785 40.7325 25.7798 40.4408L25.7843 35.1451C25.7844 34.1985 25.8151 33.2363 25.7688 32.2916C25.431 31.9683 24.4328 31.4741 23.9821 31.2165L20.8663 29.4255C20.1726 29.0276 19.4539 28.6491 18.792 28.2008C18.7548 27.6505 18.775 27.0873 18.7748 26.5358L18.7801 23.5379C19.112 23.3046 19.4873 23.1247 19.84 22.9237C20.8313 22.359 21.856 21.8329 22.8097 21.207C25.1439 22.6348 27.6203 23.8295 29.9532 25.2579C30.6029 24.9969 31.3865 24.451 32.0153 24.0966L34.9554 22.4113C35.6342 22.0232 36.355 21.6625 36.9845 21.1973Z" fill="white"/>
<path d="M11.7578 27.5C12.097 27.642 12.5555 28.0039 12.8934 28.2101L15.9745 30.0696C16.0136 30.9114 15.9654 31.7812 15.9639 32.626L15.9675 38.1318C16.5723 38.6292 17.3459 38.9956 18.0248 39.3849L21.5534 41.4128C22.0329 41.6899 22.5617 41.9367 22.9973 42.2791C22.9788 43.8525 22.9757 45.4261 22.988 46.9996C22.0652 46.3602 21.0478 45.8352 20.0766 45.2722L14.2993 41.9329C13.8069 41.6441 13.3127 41.3584 12.8166 41.076C12.4661 40.8749 12.0997 40.6838 11.7787 40.4374C11.7501 39.1896 11.7715 37.9388 11.7734 36.6908L11.7734 30.6834C11.7732 29.6231 11.7874 28.5599 11.7578 27.5Z" fill="white"/>
<path d="M48.2008 27.3691L48.2144 27.3825C48.283 27.6648 48.2161 28.1506 48.211 28.4616C48.2002 29.1221 48.1953 29.7826 48.1964 30.4431L48.1945 36.7001C48.1989 37.8865 48.2724 39.1078 48.1877 40.2901C47.1065 41.0084 45.856 41.6661 44.7207 42.3169L40.2539 44.9003C39.1758 45.5231 38.0859 46.131 37.0264 46.7848C36.9908 46.7346 37.0151 42.4426 37.0278 42.072C37.4771 41.7422 37.9978 41.4858 38.4807 41.2056L42.0955 39.1308C42.7246 38.769 43.4139 38.4289 43.9962 37.9968C44.0765 37.237 44.0262 36.4338 44.0259 35.6693C44.0251 33.7911 43.9657 31.894 44.0351 30.018C44.449 29.6415 45.2098 29.2308 45.7032 28.924C46.5354 28.4066 47.3593 27.871 48.2008 27.3691Z" fill="white"/>
<path d="M29.9507 8.98633C30.1318 9.00345 31.7051 9.97683 31.9863 10.1408L38.7285 14.0468C39.2107 14.3275 39.692 14.6163 40.1813 14.8834C40.4988 15.0566 40.8533 15.2047 41.143 15.4215C40.8435 15.719 40.251 15.9676 39.8717 16.1742C38.9118 16.6971 37.9198 17.1925 36.9896 17.7658C36.4993 17.3595 35.8513 17.078 35.2997 16.7566L31.6948 14.6866C31.1584 14.3746 30.6147 14.0754 30.0935 13.7381C30.0213 13.7304 29.9711 13.7306 29.9023 13.7617C29.6542 13.874 29.4147 14.0389 29.1763 14.1734L27.594 15.0552C25.9875 15.949 24.366 16.8257 22.7848 17.7634C22.498 17.5368 22.1642 17.3628 21.8483 17.18C21.3271 16.8771 20.8022 16.5808 20.2735 16.291C19.7973 16.0273 19.2985 15.7688 18.8633 15.44C19.153 15.2204 19.4962 15.0495 19.8125 14.8703C20.3282 14.5804 20.8419 14.2866 21.3535 13.9893L27.0444 10.6924C28.0082 10.1342 29.036 9.62064 29.9507 8.98633Z" fill="white"/>
<path d="M15.8334 16.9863C16.2202 17.2823 16.6506 17.5191 17.0689 17.7673L18.8899 18.8308C19.243 19.0337 19.6312 19.2208 19.9537 19.4685C19.5594 19.7945 19.0837 20.0328 18.6406 20.2866C18.0089 20.6454 17.3801 21.009 16.754 21.3775C16.4287 21.5703 16.0829 21.7565 15.794 22.0019C15.7421 22.6531 15.7726 23.3255 15.7705 23.9797C15.7677 24.8336 15.7371 25.6979 15.7929 26.5498L15.7826 26.6035C15.6776 26.5958 12.1138 24.4133 11.7848 24.1621C11.7526 23.5764 11.7707 22.9804 11.7709 22.3936C11.7682 21.4533 11.7717 20.513 11.7814 19.5728C12.066 19.2883 12.4678 19.078 12.8101 18.8675C13.395 18.5071 13.9824 18.1508 14.5723 17.7986C14.994 17.5456 15.4538 17.2994 15.8334 16.9863Z" fill="white"/>
<path d="M43.9347 17.0476C43.9947 17.0432 44.0388 17.0594 44.092 17.0867C44.3116 17.1996 44.5219 17.3513 44.732 17.4817L45.721 18.082C46.4136 18.5052 47.391 19.0259 47.9912 19.5208C47.9678 20.5528 47.9825 21.5875 47.9849 22.6196C47.9862 23.1334 48.0176 23.6708 47.9632 24.181C47.6233 24.5101 47.112 24.7575 46.7072 25.0048C45.8185 25.5477 44.9123 26.0697 44.0512 26.6553L44.035 26.655C44.0264 26.6428 44.0133 26.6328 44.0092 26.6185C43.9655 26.4673 44.0229 25.7625 44.0238 25.5467C44.0292 24.3552 44.0485 23.1566 44.0003 21.9663C43.6903 21.684 43.236 21.4618 42.8774 21.2425C41.928 20.6621 40.9483 20.1154 40.0273 19.4903C40.3583 19.2291 40.738 19.0238 41.0977 18.8045L42.7932 17.7709C43.1765 17.537 43.5714 17.3118 43.9347 17.0476Z" fill="white"/>
<path d="M25.7831 43.752C26.0652 43.882 26.4534 44.2198 26.7472 44.4003C27.7556 45.0196 28.7848 45.604 29.7756 46.2518C30.2812 46.0385 30.784 45.6745 31.2531 45.3884L33.8697 43.801C33.7882 44.3585 33.8126 44.9527 33.8114 45.5161C33.8092 46.5241 33.8287 47.5343 33.8026 48.542C33.5428 48.7871 33.1146 48.9787 32.8049 49.1651L31.0363 50.248C30.6254 50.4988 30.2002 50.7318 29.8157 51.0223C28.5358 50.0873 27.0658 49.4166 25.7734 48.4995C25.8219 46.92 25.7599 45.3328 25.7831 43.752Z" fill="white"/>
<path d="M29.9588 17.0488C30.0303 17.0589 30.1004 17.0961 30.1628 17.132C30.9633 17.5933 31.7414 18.1068 32.5314 18.5873C32.9433 18.8379 33.6102 19.1691 33.9563 19.4735C33.6063 19.7664 33.1747 19.9788 32.7807 20.2069L30.8827 21.3083C30.5366 21.5103 30.1574 21.6938 29.8706 21.9772C29.4585 21.7715 28.9469 21.3973 28.5371 21.1468C27.7529 20.6676 26.9445 20.2166 26.1709 19.7219C26.073 19.6593 25.9512 19.5883 25.8867 19.4901C26.0995 19.2445 29.421 17.3684 29.9588 17.0488Z" fill="white"/>
<path d="M18.7945 31.5195C19.011 31.6497 19.2179 31.806 19.4326 31.9415C19.9075 32.2355 20.3841 32.5263 20.8626 32.8142C21.4616 33.1776 22.2495 33.5865 22.7805 34.0253C22.7978 34.3545 22.7778 34.6953 22.7768 35.0254C22.7732 36.2537 22.7109 37.5087 22.7973 38.733C21.4491 37.9867 20.112 37.2208 18.7861 36.4355C18.7531 35.3637 18.7771 34.2857 18.7778 33.2133C18.7782 32.6829 18.723 32.0367 18.7945 31.5195Z" fill="white"/>
<path d="M40.9823 31.7305C41.0088 31.7734 40.9876 35.9974 40.9765 36.4206C40.6327 36.7303 40.1269 36.9589 39.7239 37.189C38.8169 37.7068 37.8878 38.2017 37.0017 38.7546C36.9626 38.6678 37.0214 37.95 37.0228 37.7887C37.0338 36.5855 37.0024 35.3812 37.0306 34.1785C37.3482 33.9575 37.6935 33.7653 38.0242 33.5641C39.0113 32.9635 40.0372 32.3938 40.9823 31.7305Z" fill="white"/>
</g>
<defs>
<clipPath id="clip0_1695_736">
<rect width="60" height="60" fill="white"/>
</clipPath>
</defs>
</svg>
