<svg width="60" height="60" viewBox="0 0 60 60" fill="none" xmlns="http://www.w3.org/2000/svg">
<g clip-path="url(#clip0_1695_729)">
<mask id="mask0_1695_729" style="mask-type:luminance" maskUnits="userSpaceOnUse" x="0" y="0" width="60" height="60">
<path d="M60 0H0V60H60V0Z" fill="white"/>
</mask>
<g mask="url(#mask0_1695_729)">
<path d="M59.102 37.2574C55.0947 53.3288 38.8152 63.1096 22.74 59.1018C6.67146 55.095 -3.11052 38.8164 0.89865 22.7459C4.90408 6.67267 21.1836 -3.1091 37.2541 0.897738C53.3283 4.90457 63.1093 21.185 59.102 37.2574Z" fill="#9C9CA4"/>
<path d="M43.6256 26.5228C44.2228 22.531 41.1834 20.385 37.0275 18.9534L38.3756 13.5459L35.0841 12.7256L33.7716 17.9906C32.9063 17.775 32.0175 17.5716 31.1344 17.37L32.4562 12.0703L29.1666 11.25L27.8175 16.6556C27.1012 16.4925 26.3981 16.3313 25.7156 16.1616L25.7194 16.1447L21.18 15.0112L20.3044 18.5269C20.3044 18.5269 22.7466 19.0866 22.695 19.1212C24.0281 19.4541 24.2691 20.3362 24.2287 21.0356L22.6931 27.1959C22.785 27.2194 22.9041 27.2531 23.0353 27.3056C22.9256 27.2784 22.8084 27.2484 22.6875 27.2194L20.535 35.8491C20.3719 36.2541 19.9585 36.8616 19.0266 36.6309C19.0594 36.6787 16.6341 36.0338 16.6341 36.0338L15 39.8016L19.2834 40.8694C20.0803 41.0691 20.8612 41.2781 21.63 41.475L20.2678 46.9444L23.5556 47.7647L24.9047 42.3534C25.8028 42.5972 26.6747 42.8222 27.5278 43.0341L26.1835 48.42L29.475 49.2403L30.8372 43.7813C36.45 44.8434 40.6706 44.415 42.4472 39.3384C43.8788 35.2509 42.3759 32.8931 39.4228 31.3556C41.5734 30.8597 43.1934 29.445 43.6256 26.5228ZM36.105 37.0688C35.0878 41.1563 28.2056 38.9466 25.9744 38.3925L27.7819 31.1466C30.0131 31.7034 37.1681 32.8059 36.105 37.0688ZM37.1231 26.4637C36.195 30.1819 30.4669 28.2928 28.6087 27.8297L30.2475 21.2578C32.1056 21.721 38.0897 22.5853 37.1231 26.4637Z" fill="white"/>
</g>
</g>
<defs>
<clipPath id="clip0_1695_729">
<rect width="60" height="60" fill="white"/>
</clipPath>
</defs>
</svg>
