<svg width="40" height="40" viewBox="0 0 40 40" fill="none" xmlns="http://www.w3.org/2000/svg">
<g clip-path="url(#clip0_2511_794)">
<mask id="mask0_2511_794" style="mask-type:luminance" maskUnits="userSpaceOnUse" x="0" y="0" width="40" height="40">
<path d="M40 0H0V40H40V0Z" fill="white"/>
</mask>
<g mask="url(#mask0_2511_794)">
<path d="M39.4013 24.8383C36.7298 35.5525 25.8768 42.0731 15.16 39.4012C4.44764 36.73 -2.07368 25.8776 0.5991 15.1639C3.26939 4.44845 14.1224 -2.07273 24.8361 0.598492C35.5522 3.26971 42.0729 14.1233 39.4013 24.8383Z" fill="#33373D"/>
<path d="M29.0837 17.6819C29.4819 15.0207 27.4556 13.59 24.685 12.6356L25.5837 9.0306L23.3894 8.48373L22.5144 11.9937C21.9375 11.85 21.345 11.7144 20.7563 11.58L21.6375 8.04687L19.4444 7.5L18.545 11.1037C18.0675 10.995 17.5987 10.8875 17.1437 10.7744L17.1463 10.7631L14.12 10.0075L13.5363 12.3513C13.5363 12.3513 15.1644 12.7244 15.13 12.7475C16.0187 12.9694 16.1794 13.5575 16.1525 14.0237L15.1287 18.1306C15.19 18.1463 15.2694 18.1687 15.3569 18.2037C15.2837 18.1856 15.2056 18.1656 15.125 18.1463L13.69 23.8994C13.5813 24.1694 13.3057 24.5744 12.6844 24.4206C12.7063 24.4525 11.0894 24.0225 11.0894 24.0225L10 26.5344L12.8556 27.2463C13.3869 27.3794 13.9075 27.5187 14.42 27.65L13.5119 31.2963L15.7037 31.8431L16.6031 28.2356C17.2019 28.3981 17.7831 28.5481 18.3519 28.6894L17.4557 32.28L19.65 32.8269L20.5581 29.1875C24.3 29.8956 27.1137 29.61 28.2981 26.2256C29.2525 23.5006 28.2506 21.9287 26.2819 20.9037C27.7156 20.5731 28.7956 19.63 29.0837 17.6819ZM24.07 24.7125C23.3919 27.4375 18.8037 25.9644 17.3163 25.595L18.5213 20.7644C20.0087 21.1356 24.7787 21.8706 24.07 24.7125ZM24.7487 17.6425C24.13 20.1213 20.3113 18.8619 19.0725 18.5531L20.165 14.1719C21.4037 14.4807 25.3931 15.0569 24.7487 17.6425Z" fill="#939EB1"/>
</g>
</g>
<defs>
<clipPath id="clip0_2511_794">
<rect width="40" height="40" fill="white"/>
</clipPath>
</defs>
</svg>
