<svg width="40" height="40" viewBox="0 0 40 40" fill="none" xmlns="http://www.w3.org/2000/svg">
<g clip-path="url(#clip0_2511_810)">
<path d="M20 40C31.0457 40 40 31.0457 40 20C40 8.9543 31.0457 0 20 0C8.9543 0 0 8.9543 0 20C0 31.0457 8.9543 40 20 40Z" fill="#33373D"/>
<path d="M20.0391 5.33398V16.4215L29.4103 20.609L20.0391 5.33398Z" fill="#939EB1" fill-opacity="0.6"/>
<path d="M20.0405 5.33398L10.668 20.609L20.0405 16.4215V5.33398Z" fill="#939EB1"/>
<path d="M20.0391 27.7935V35.3273L29.4166 22.3535L20.0391 27.7935Z" fill="#939EB1" fill-opacity="0.6"/>
<path d="M20.0405 35.3273V27.7923L10.668 22.3535L20.0405 35.3273Z" fill="#939EB1"/>
<path d="M20.0391 26.0501L29.4103 20.6088L20.0391 16.4238V26.0501Z" fill="#939EB1" fill-opacity="0.2"/>
<path d="M10.668 20.6088L20.0405 26.0501V16.4238L10.668 20.6088Z" fill="#939EB1" fill-opacity="0.6"/>
</g>
<defs>
<clipPath id="clip0_2511_810">
<rect width="40" height="40" fill="white"/>
</clipPath>
</defs>
</svg>
