<svg width="38" height="38" viewBox="0 0 38 38" fill="none" xmlns="http://www.w3.org/2000/svg">
<path d="M20.0273 1C20.2771 1.08363 20.9817 1.08927 21.2861 1.13184C22.0911 1.24453 22.8803 1.37011 23.667 1.58105C28.608 2.86493 32.7995 6.13282 35.25 10.6113C36.2336 12.4135 36.9088 14.3677 37.248 16.3926C37.3188 16.8115 37.3734 17.2331 37.4121 17.6562C37.4325 17.8639 37.4572 18.2947 37.5 18.4717V20.54C37.4148 20.8969 37.4174 21.4529 37.3643 21.8311C37.2607 22.5684 37.1409 23.2702 36.9609 23.9941C35.8405 28.495 33.0686 32.4103 29.1953 34.9619C27.1241 36.3284 24.7977 37.2615 22.3564 37.7061C21.9546 37.7794 21.5495 37.8389 21.1436 37.8838C20.9723 37.9024 20.2436 37.9555 20.1279 38H17.9199C17.7905 37.9563 17.1454 37.9132 16.9668 37.8955C16.5808 37.8573 16.2695 37.8081 15.8877 37.7422C13.7774 37.3898 11.7451 36.6703 9.88281 35.6172C5.54682 33.1667 2.3818 29.0711 1.10547 24.2568C0.893947 23.4489 0.73591 22.6276 0.632812 21.7988C0.603239 21.5373 0.579024 21.2752 0.55957 21.0127C0.5475 20.8686 0.541847 20.6586 0.5 20.5244V18.4756C0.548805 18.325 0.57969 17.6791 0.603516 17.4668C0.643365 17.112 0.690147 16.7821 0.748047 16.4277C1.07217 14.4576 1.71577 12.5533 2.6543 10.791C5.04506 6.29566 9.18576 2.98607 14.0977 1.64551C14.9194 1.42527 15.7545 1.25846 16.5977 1.14551C16.9752 1.09596 17.3581 1.07495 17.7373 1.04004C17.8208 1.03235 17.878 1.0282 17.958 1H20.0273ZM18.5713 25.3506C17.517 25.4927 16.7775 26.4623 16.9189 27.5166C17.0605 28.5709 18.0297 29.3109 19.084 29.1699C20.1391 29.0288 20.8798 28.0589 20.7383 27.0039C20.5967 25.9489 19.6263 25.2086 18.5713 25.3506ZM18.8008 9.84277C18.0236 9.87957 17.2857 9.99147 16.5508 10.2578C14.6846 10.9342 13.0968 12.4469 12.6885 14.4365C12.5325 15.1968 12.587 15.8055 13.1914 16.3447C13.5245 16.644 13.9644 16.796 14.4111 16.7666C14.841 16.7406 15.1907 16.5832 15.4795 16.2588C15.7959 15.9033 15.9226 15.4266 16.0859 14.9873C16.246 14.5567 16.4017 14.222 16.6377 13.8311C17.1573 12.9701 17.7815 12.622 18.7822 12.5469C19.6277 12.4835 20.4207 12.6229 21.0742 13.2021C21.5654 13.6375 21.8185 14.1507 21.8643 14.8066C21.9121 15.4957 21.6042 16.0797 21.1514 16.5791C20.8541 16.9069 20.4469 17.2674 20.1113 17.5625C19.6161 17.998 19.1594 18.406 18.6904 18.873C17.62 19.9604 17.1165 20.964 17.1387 22.5146C17.1532 23.5241 17.7242 24.1984 18.7617 24.1826C20.2171 24.1602 20.139 22.9291 20.4658 21.9072C20.5408 21.6688 20.6508 21.4426 20.792 21.2363C21.0654 20.8352 21.6178 20.334 21.9805 20.0049C22.46 19.5778 22.9351 19.1454 23.4053 18.708C24.6287 17.5579 25.4541 16.5223 25.3789 14.7227C25.3156 13.4602 24.7478 12.2761 23.8037 11.4355C22.4329 10.1915 20.6055 9.78944 18.8008 9.84277Z" fill="#FFBE00"/>
</svg>
