<svg width="15" height="16" viewBox="0 0 15 16" fill="none" xmlns="http://www.w3.org/2000/svg">
<g clip-path="url(#clip0_1081_729)">
<path d="M7.06928 0.5H7.9236C7.92598 0.500729 7.92838 0.501504 7.93078 0.502188C8.05377 0.537204 8.27127 0.534896 8.40973 0.552813C8.75092 0.594753 9.08883 0.660055 9.42108 0.748259C11.3615 1.26531 13.0147 2.53646 14.013 4.27889C14.4487 5.04028 14.7468 5.87255 14.8937 6.73748C14.9232 6.90761 14.9459 7.07888 14.9616 7.25085C14.9726 7.35995 14.9663 7.4965 15 7.60001V8.40711C14.9993 8.40942 14.9985 8.41171 14.9979 8.41402C14.962 8.53886 14.9591 8.80613 14.9406 8.95203C14.8974 9.28476 14.8326 9.61435 14.7465 9.93863C14.2201 11.8932 12.9285 13.5533 11.1633 14.544C10.4194 14.9639 9.60873 15.2525 8.76683 15.3971C8.64583 15.4177 8.52586 15.436 8.40372 15.4479C8.29441 15.4585 8.02772 15.4685 7.93778 15.5H7.07165C6.97995 15.4687 6.85676 15.4729 6.76005 15.4634C6.61072 15.4488 6.46257 15.4324 6.31456 15.4074C5.5524 15.2863 4.81368 15.0475 4.12477 14.6998C2.2398 13.7468 0.841808 12.0458 0.271931 10.012C0.181878 9.68568 0.113488 9.35378 0.0672088 9.01848C0.0534738 8.91515 0.0425886 8.81147 0.034565 8.70755C0.0277431 8.62599 0.0286101 8.52099 0.00205696 8.44344C0.00141282 8.44156 0.000685652 8.43972 0 8.43784V7.55621C0.0373315 7.46088 0.0369894 7.24115 0.0493271 7.12859C0.0651645 6.99072 0.0851068 6.85338 0.109128 6.71671C0.251712 5.88617 0.534606 5.08596 0.945697 4.35037C1.92518 2.59135 3.57041 1.2997 5.51162 0.765696C5.85697 0.672168 6.20824 0.6021 6.56303 0.555971C6.69451 0.538568 6.9547 0.534225 7.06263 0.502127C7.06485 0.501463 7.06705 0.500709 7.06928 0.5ZM4.84819 7.68333C4.70903 7.68389 4.56284 7.69358 4.42456 7.6802C4.42374 8.10313 4.41571 8.52787 4.4248 8.95057C4.56445 8.95191 4.70801 8.94641 4.84702 8.95651C4.84781 9.14495 4.85555 9.33673 4.84623 9.52487C4.70854 9.52358 4.5607 9.5365 4.42444 9.52142C4.42365 9.94405 4.41768 10.3681 4.42465 10.7906C4.5648 10.7918 4.70654 10.7968 4.84655 10.7925L4.84825 11.7344C4.84825 11.9018 4.85599 12.0736 4.84594 12.2405C5.27051 12.2469 5.69604 12.2337 6.12032 12.2437C6.12316 11.7598 6.11701 11.2755 6.12281 10.7916L7.18242 10.7923C7.358 10.7923 7.53645 10.7856 7.7117 10.7939C7.70804 10.559 7.71167 10.3235 7.71167 10.0885C7.71167 9.90143 7.70651 9.71272 7.71325 9.52581C7.41996 9.52355 7.12664 9.52297 6.83335 9.52405C6.59628 9.52402 6.35607 9.51559 6.11938 9.52514C6.12861 9.33409 6.11883 9.14196 6.12354 8.95068C6.51642 8.96478 6.91286 8.95315 7.30629 8.95332C7.5975 8.95344 7.89516 8.96776 8.18519 8.94479C8.76911 8.89865 9.31977 8.65449 9.74596 8.25269C10.2555 7.78224 10.5541 7.12637 10.5744 6.43312C10.5942 5.74897 10.3433 5.08461 9.87621 4.58434C9.36949 4.04747 8.72871 3.77961 7.99573 3.75893C7.72728 3.75134 7.45731 3.7572 7.18863 3.7572L5.6734 3.75749L5.11764 3.75778C5.02808 3.75793 4.93629 3.76379 4.84705 3.75828C4.85985 4.70633 4.8479 5.65619 4.84781 6.60441C4.84775 6.96286 4.8365 7.32523 4.84819 7.68333Z" fill="black"/>
<path d="M6.12655 5.02475C6.28801 5.0314 6.45113 5.02692 6.61276 5.02697L7.49328 5.02674C7.76161 5.02656 8.0479 5.00544 8.30967 5.0723C8.5332 5.13025 8.73764 5.24571 8.90272 5.40719C9.15579 5.65325 9.29981 5.9904 9.30263 6.34337C9.30582 6.71351 9.1574 7.04465 8.89959 7.30621C8.73573 7.4616 8.5356 7.58131 8.31635 7.63914C8.08086 7.70125 7.82264 7.68303 7.58076 7.68312L6.61455 7.68291C6.45441 7.68279 6.28988 7.67371 6.1303 7.68361L6.12125 7.68423C6.12846 7.46319 6.12251 7.24015 6.12248 7.01896L6.1223 5.77525L6.12186 5.31159C6.12184 5.21653 6.11832 5.11946 6.12655 5.02475Z" fill="black"/>
</g>
<defs>
<clipPath id="clip0_1081_729">
<rect width="15" height="15" fill="white" transform="translate(0 0.5)"/>
</clipPath>
</defs>
</svg>
