<svg width="40" height="40" viewBox="0 0 40 40" fill="none" xmlns="http://www.w3.org/2000/svg">
<g clip-path="url(#clip0_2511_779)">
<path d="M18.8097 0.0360769C29.846 -0.621907 39.3224 7.79945 39.9655 18.8366C40.6087 29.8737 32.1746 39.3387 21.1367 39.9672C10.1196 40.5943 0.67642 32.1797 0.0344684 21.1635C-0.607484 10.1473 7.79443 0.692811 18.8097 0.0360769Z" fill="#33373D"/>
<path d="M12.787 10.3057C13.0374 10.2825 13.3032 10.2982 13.555 10.2982L14.9948 10.2984L19.5346 10.2987L24.702 10.2984L26.3599 10.2975C26.728 10.2975 27.0995 10.2873 27.4666 10.3176C27.9706 10.3593 28.443 10.4792 28.8845 10.7314C29.6832 11.18 30.2664 11.933 30.5012 12.8186C30.662 13.4214 30.6044 14.0314 30.3832 14.6116C30.2279 15.0187 29.9526 15.4005 29.7326 15.7767L28.2931 18.2239L23.1356 27.0081C22.6661 27.8118 22.1924 28.613 21.7145 29.4118C21.478 29.8107 21.2695 30.2608 20.9724 30.6164C20.7349 30.9006 20.4137 31.0983 20.0387 31.1272C19.7111 31.1548 19.386 31.0504 19.1357 30.8373C18.9984 30.7194 18.8903 30.5771 18.7945 30.4244C18.6008 30.1159 18.4266 29.7907 18.2453 29.4745L17.2928 27.8263L13.7985 21.818L11.1447 17.258L10.273 15.7612C10.0989 15.4619 9.91395 15.1641 9.7573 14.8553C9.57907 14.5039 9.48524 14.1232 9.4592 13.731C9.40489 12.9126 9.71829 12.0859 10.2563 11.4738C10.9342 10.7026 11.7804 10.3725 12.787 10.3057Z" fill="#939EB1"/>
<path d="M21.1442 12.615L25.1283 12.608C25.8449 12.6078 26.6169 12.5732 27.3251 12.6126C27.4643 12.6204 27.6406 12.6398 27.7665 12.7013C27.9603 12.796 28.1138 13.001 28.1711 13.206C28.2229 13.391 28.2118 13.6122 28.1425 13.7916C28.0028 14.1535 27.7869 14.4878 27.5932 14.8226L26.7681 16.2468L23.7787 21.379C22.924 22.8849 22.0128 24.3607 21.1484 25.8613C21.1385 24.8431 21.1358 23.8247 21.1402 22.8063L21.1398 17.6756L21.1385 14.3847C21.1381 13.7979 21.1137 13.2003 21.1442 12.615Z" fill="#33373D"/>
<path d="M12.6478 12.6129C13.3525 12.5815 14.0685 12.6084 14.7747 12.6086L18.7951 12.6105L18.796 20.6726C18.795 22.3718 18.8214 24.0744 18.7911 25.7732C18.6764 25.5952 18.5771 25.4039 18.4724 25.2196C18.043 24.4651 17.6072 23.7143 17.1651 22.9672L13.6774 16.9751C13.3342 16.3914 12.994 15.806 12.6569 15.2188C12.3975 14.7694 11.9329 14.1009 11.8304 13.6037C11.7888 13.4016 11.8423 13.1576 11.9586 12.9886C12.1308 12.7385 12.3637 12.6602 12.6478 12.6129Z" fill="#33373D"/>
</g>
<defs>
<clipPath id="clip0_2511_779">
<rect width="40" height="40" fill="white"/>
</clipPath>
</defs>
</svg>
