<svg width="60" height="60" viewBox="0 0 60 60" fill="none" xmlns="http://www.w3.org/2000/svg">
<g clip-path="url(#clip0_1695_709)">
<path d="M28.2146 0.0541154C44.769 -0.932861 58.9836 11.6992 59.9483 28.2549C60.9131 44.8106 48.262 59.0081 31.705 59.9507C15.1794 60.8914 1.01463 48.2696 0.0517026 31.7453C-0.911226 15.221 11.6916 1.03922 28.2146 0.0541154Z" fill="#9C9CA4"/>
<path d="M19.1804 15.4585C19.5562 15.4237 19.9548 15.4472 20.3325 15.4472L22.4921 15.4476L29.3019 15.448L37.053 15.4476L39.5399 15.4462C40.092 15.4462 40.6492 15.431 41.1999 15.4764C41.9559 15.5389 42.6645 15.7189 43.3267 16.0972C44.5248 16.77 45.3997 17.8994 45.7518 19.2278C45.993 20.1322 45.9066 21.0471 45.5748 21.9174C45.3419 22.528 44.929 23.1008 44.5988 23.665L42.4397 27.3359L34.7034 40.5121C33.9991 41.7177 33.2885 42.9195 32.5718 44.1178C32.217 44.716 31.9042 45.3911 31.4586 45.9246C31.1023 46.3509 30.6205 46.6475 30.058 46.6908C29.5666 46.7321 29.079 46.5756 28.7035 46.2559C28.4975 46.079 28.3355 45.8656 28.1917 45.6366C27.9011 45.1738 27.6399 44.686 27.368 44.2117L25.9393 41.7394L20.6977 32.7271L16.717 25.8869L15.4094 23.6418C15.1483 23.1928 14.8709 22.7461 14.636 22.283C14.3686 21.7559 14.2279 21.1848 14.1888 20.5965C14.1073 19.3689 14.5774 18.1288 15.3845 17.2106C16.4013 16.0538 17.6706 15.5588 19.1804 15.4585Z" fill="#FEFEFE"/>
<path d="M31.7144 18.9245L37.6904 18.9139C38.7655 18.9136 39.9235 18.8618 40.9857 18.9209C41.1946 18.9326 41.459 18.9616 41.6478 19.0539C41.9385 19.196 42.1688 19.5035 42.2547 19.8109C42.3323 20.0885 42.3158 20.4203 42.2118 20.6894C42.0022 21.2322 41.6783 21.7336 41.3879 22.2359L40.1502 24.3721L35.6661 32.0704C34.3841 34.3293 33.0172 36.543 31.7206 38.7939C31.7059 37.2666 31.7018 35.739 31.7083 34.2115L31.7077 26.5153L31.7059 21.579C31.7053 20.6988 31.6686 19.8024 31.7144 18.9245Z" fill="#9C9CA4"/>
<path d="M18.9737 18.9212C20.0306 18.8741 21.1048 18.9146 22.164 18.9149L28.1946 18.9178L28.196 31.0108C28.1944 33.5597 28.2341 36.1135 28.1887 38.6618C28.0166 38.3947 27.8677 38.1078 27.7105 37.8313C27.0664 36.6996 26.4128 35.5734 25.7495 34.4527L20.5181 25.4645C20.0033 24.5891 19.4929 23.7109 18.9872 22.8301C18.5981 22.156 17.9013 21.1534 17.7476 20.4076C17.6851 20.1043 17.7654 19.7383 17.9399 19.4848C18.1981 19.1097 18.5475 18.9922 18.9737 18.9212Z" fill="#9C9CA4"/>
</g>
<defs>
<clipPath id="clip0_1695_709">
<rect width="60" height="60" fill="white"/>
</clipPath>
</defs>
</svg>
