<svg width="40" height="40" viewBox="0 0 40 40" fill="none" xmlns="http://www.w3.org/2000/svg">
<g clip-path="url(#clip0_1779_1027)">
<mask id="mask0_1779_1027" style="mask-type:luminance" maskUnits="userSpaceOnUse" x="0" y="0" width="40" height="40">
<path d="M40 0H0V40H40V0Z" fill="white"/>
</mask>
<g mask="url(#mask0_1779_1027)">
<path d="M18.8097 0.0360769C29.846 -0.621907 39.3224 7.79945 39.9655 18.8366C40.6087 29.8737 32.1746 39.3387 21.1367 39.9672C10.1196 40.5943 0.67642 32.1797 0.0344684 21.1635C-0.607484 10.1473 7.79443 0.692811 18.8097 0.0360769Z" fill="#009DF3"/>
<path d="M12.787 10.3057C13.0374 10.2825 13.3032 10.2982 13.555 10.2982L14.9948 10.2984L19.5346 10.2987L24.702 10.2984L26.3599 10.2975C26.728 10.2975 27.0995 10.2873 27.4666 10.3176C27.9706 10.3593 28.443 10.4792 28.8845 10.7314C29.6832 11.18 30.2664 11.933 30.5012 12.8186C30.662 13.4214 30.6044 14.0314 30.3832 14.6116C30.2279 15.0187 29.9526 15.4005 29.7326 15.7767L28.2931 18.2239L23.1356 27.0081C22.6661 27.8118 22.1924 28.613 21.7145 29.4118C21.478 29.8107 21.2695 30.2608 20.9724 30.6164C20.7349 30.9006 20.4137 31.0983 20.0387 31.1272C19.7111 31.1548 19.386 31.0504 19.1357 30.8373C18.9984 30.7194 18.8903 30.5771 18.7945 30.4244C18.6008 30.1159 18.4266 29.7907 18.2453 29.4745L17.2928 27.8263L13.7985 21.818L11.1447 17.258L10.273 15.7612C10.0989 15.4619 9.91395 15.1641 9.7573 14.8553C9.57907 14.5039 9.48524 14.1232 9.4592 13.731C9.40489 12.9126 9.71829 12.0859 10.2563 11.4738C10.9342 10.7026 11.7804 10.3725 12.787 10.3057Z" fill="#FEFEFE"/>
<path d="M21.1442 12.617L25.1283 12.6099C25.8449 12.6097 26.6169 12.5752 27.3251 12.6146C27.4643 12.6224 27.6406 12.6417 27.7665 12.7032C27.9603 12.798 28.1138 13.003 28.1711 13.2079C28.2229 13.393 28.2118 13.6142 28.1425 13.7936C28.0028 14.1554 27.7869 14.4897 27.5932 14.8246L26.7681 16.2487L23.7787 21.3809C22.924 22.8868 22.0128 24.3626 21.1484 25.8633C21.1385 24.8451 21.1358 23.8266 21.1402 22.8083L21.1398 17.6775L21.1385 14.3867C21.1381 13.7999 21.1137 13.2023 21.1442 12.617Z" fill="#009DF3"/>
<path d="M12.6478 12.6148C13.3525 12.5834 14.0685 12.6104 14.7747 12.6106L18.7951 12.6125L18.796 20.6745C18.795 22.3738 18.8214 24.0763 18.7911 25.7752C18.6764 25.5971 18.5771 25.4058 18.4724 25.2215C18.043 24.4671 17.6072 23.7162 17.1651 22.9691L13.6774 16.977C13.3342 16.3934 12.994 15.8079 12.6569 15.2207C12.3975 14.7713 11.9329 14.1029 11.8304 13.6057C11.7888 13.4035 11.8423 13.1595 11.9586 12.9905C12.1308 12.7405 12.3637 12.6621 12.6478 12.6148Z" fill="#009DF3"/>
<mask id="mask1_1779_1027" style="mask-type:luminance" maskUnits="userSpaceOnUse" x="23" y="23" width="17" height="17">
<path d="M40 23H23V40H40V23Z" fill="white"/>
</mask>
<g mask="url(#mask1_1779_1027)">
<path d="M31.0536 24.0135C35.1922 23.7668 38.7459 26.9248 38.9871 31.0637C39.2283 35.2027 36.0655 38.752 31.9263 38.9877C27.7948 39.2228 24.2537 36.0674 24.0129 31.9363C23.7722 27.8053 26.9229 24.2598 31.0536 24.0135Z" fill="#0096E7"/>
<path d="M30.9941 23.0153C35.6845 22.7357 39.712 26.3148 39.9853 31.0056C40.2585 35.6962 36.6743 39.7188 31.9834 39.986C27.3011 40.2526 23.2875 36.6757 23.0146 31.9938C22.742 27.3121 26.3127 23.2944 30.9941 23.0153ZM31.0537 24.0134L30.6689 24.0456C26.7291 24.4815 23.7795 27.9344 24.0127 31.9362C24.2535 36.0671 27.7946 39.2219 31.9258 38.987C35.9356 38.7587 39.0297 35.4211 39 31.4499L38.9873 31.0632C38.746 26.9244 35.1922 23.7667 31.0537 24.0134Z" fill="white"/>
<path d="M28.7971 27.8641C28.891 27.8554 28.9907 27.8613 29.0851 27.8613L29.625 27.8614L31.3274 27.8615L33.2652 27.8614L33.8869 27.8611C34.025 27.8611 34.1643 27.8573 34.3019 27.8686C34.4909 27.8842 34.6681 27.9292 34.8336 28.0238C35.1332 28.192 35.3519 28.4744 35.4399 28.8065C35.5002 29.0326 35.4786 29.2613 35.3956 29.4789C35.3374 29.6315 35.2342 29.7747 35.1517 29.9158L34.6119 30.8335L32.6778 34.1275C32.5017 34.4289 32.3241 34.7294 32.1449 35.029C32.0562 35.1785 31.978 35.3473 31.8666 35.4807C31.7775 35.5872 31.6571 35.6614 31.5165 35.6722C31.3936 35.6825 31.2717 35.6434 31.1778 35.5635C31.1263 35.5193 31.0858 35.4659 31.0499 35.4087C30.9772 35.293 30.9119 35.171 30.8439 35.0524L30.4868 34.4344L29.1764 32.1813L28.1812 30.4712L27.8543 29.9099C27.789 29.7977 27.7197 29.686 27.6609 29.5703C27.5941 29.4385 27.5589 29.2957 27.5492 29.1486C27.5288 28.8417 27.6463 28.5317 27.8481 28.3022C28.1023 28.013 28.4196 27.8892 28.7971 27.8641Z" fill="#FEFEFE"/>
<path d="M31.9276 28.7306L33.4216 28.728C33.6904 28.7279 33.9799 28.7149 34.2455 28.7297C34.2977 28.7327 34.3638 28.7399 34.411 28.763C34.4837 28.7985 34.5412 28.8754 34.5627 28.9522C34.5821 29.0216 34.578 29.1046 34.552 29.1719C34.4996 29.3076 34.4186 29.4329 34.346 29.5585L34.0366 30.0925L32.9155 32.0171C32.595 32.5818 32.2533 33.1353 31.9292 33.698C31.9255 33.3162 31.9245 32.9343 31.9261 32.5524L31.9259 30.6283L31.9255 29.3943C31.9253 29.1742 31.9162 28.9501 31.9276 28.7306Z" fill="#0096E7"/>
<path d="M28.7454 28.7303C29.0096 28.7185 29.2781 28.7286 29.5429 28.7287L31.0506 28.7294L31.0509 31.7527C31.0506 32.3899 31.0605 33.0284 31.0491 33.6654C31.0061 33.5987 30.9689 33.5269 30.9296 33.4578C30.7685 33.1749 30.6052 32.8933 30.4393 32.6132L29.1315 30.3661C29.0028 30.1473 28.8752 29.9277 28.7488 29.7075C28.6515 29.539 28.4773 29.2883 28.4389 29.1019C28.4232 29.0261 28.4433 28.9346 28.4869 28.8712C28.5515 28.7774 28.6388 28.7481 28.7454 28.7303Z" fill="#0096E7"/>
</g>
</g>
</g>
<defs>
<clipPath id="clip0_1779_1027">
<rect width="40" height="40" fill="white"/>
</clipPath>
</defs>
</svg>
