<svg width="60" height="60" viewBox="0 0 60 60" fill="none" xmlns="http://www.w3.org/2000/svg">
<path d="M28.5596 0.00757178C30.4649 -0.0188581 32.3895 0.0145211 34.2819 0.25979C40.4087 1.04012 46.1301 3.74347 50.6234 7.98104C56.3369 13.2462 59.7058 20.5788 59.9786 28.3436C60.192 34.7637 58.8229 40.6183 55.3011 46.0433C54.3088 47.5719 53.1703 49.0535 51.9193 50.3813C47.9185 54.686 42.7253 57.7003 37.0032 59.0393C35.1726 59.4797 33.2528 59.7871 31.369 59.8404C24.8002 60.1101 18.0071 58.2121 12.6711 54.3342C6.09652 49.6064 1.67151 42.4586 0.371265 34.4657C-0.819561 26.8792 0.851942 18.75 5.41949 12.5069C8.95407 7.67575 13.331 4.12372 18.9347 1.97243C20.2356 1.47296 21.5699 1.0349 22.9326 0.736365C24.1605 0.465181 25.404 0.270134 26.656 0.152349C27.2697 0.0939556 27.9196 0.111908 28.5239 0.0137973C28.5358 0.0118509 28.5477 0.00964692 28.5596 0.00757178Z" fill="#33373D"/>
<path d="M16.6934 15.5059C17.6738 15.4855 18.6582 15.5032 19.6393 15.5031L25.381 15.5035L42.8212 15.5021L42.8262 20.0725C42.827 20.5177 42.8897 21.6929 42.8091 22.0695L42.7618 22.0817C42.1055 22.2486 40.7422 22.1173 40.0318 22.0975C38.8245 22.0639 37.6086 22.0924 36.4006 22.0922C35.5645 22.092 34.7022 22.0483 33.8688 22.0959C33.7583 22.1022 33.6555 22.1144 33.554 22.1607C33.4703 22.7291 33.5336 23.4446 33.5345 24.0258C33.5356 24.6171 33.4797 25.3959 33.558 25.9693C33.6586 25.9899 33.813 25.9857 33.8846 26.0539C34.2048 26.1123 34.5595 26.1057 34.8856 26.1246C35.4567 26.1558 36.0273 26.1968 36.5969 26.2478C39.3629 26.4973 43.2101 27.0434 45.631 28.5005C46.0423 28.7481 46.5883 29.1224 46.6974 29.6213C46.759 29.9026 46.6872 30.1785 46.522 30.4109C45.2494 32.201 38.4713 33.2016 36.2649 33.449C35.7044 33.5119 35.1399 33.5689 34.5771 33.6047C34.2195 33.6276 33.8455 33.6155 33.4935 33.6848C33.48 33.6876 33.4666 33.6906 33.4533 33.6934C33.4094 34.157 33.4378 34.6446 33.4377 35.1114L33.437 37.7283V46.1275L26.2098 46.1304C26.2495 44.1859 26.2065 42.2307 26.2059 40.2854C26.2054 38.0858 26.2426 35.8811 26.2051 33.6819C25.9125 33.6456 25.6128 33.6445 25.3182 33.6256C24.7982 33.5927 24.2789 33.5483 23.7609 33.4923C21.1657 33.2177 15.5036 32.4253 13.4853 30.7414C13.2235 30.5231 13.0288 30.2285 13.0058 29.8811C12.9839 29.5498 13.1539 29.2508 13.3727 29.015C13.8873 28.46 14.6922 28.1148 15.386 27.8442C18.7273 26.5414 22.7612 26.2023 26.3339 26.0478C26.35 24.7194 26.3312 23.3883 26.3306 22.0597L16.708 22.0629C16.7056 19.8787 16.6401 17.6902 16.6934 15.5059Z" fill="#939EB1"/>
<path d="M33.461 22.0605L39.4775 22.0616C40.5868 22.0613 41.7019 22.0371 42.8106 22.0699L42.7633 22.0822C42.107 22.249 40.7436 22.1177 40.0333 22.0979C38.826 22.0643 37.61 22.0928 36.4021 22.0926C35.5659 22.0925 34.7037 22.0487 33.8703 22.0963C33.7597 22.1026 33.657 22.1148 33.5554 22.1612C33.4718 22.7295 33.535 23.445 33.536 24.0262C33.5371 24.6175 33.4811 25.3963 33.5595 25.9698C33.66 25.9904 33.8144 25.9862 33.886 26.0544C33.7461 26.0618 33.6003 26.0508 33.4599 26.0486C33.4179 25.4378 33.4388 24.8157 33.4387 24.2035C33.4383 23.4907 33.4221 22.7723 33.461 22.0605Z" fill="#33373D"/>
<path d="M25.5341 26.6504C25.7992 26.6315 26.0674 26.6329 26.3331 26.627L26.3291 31.2645L33.4395 31.2653C33.4393 29.7234 33.4017 28.1706 33.4584 26.6305C36.3299 26.6192 41.7725 27.1391 44.2585 28.4705C44.7055 28.71 45.0517 28.986 45.2034 29.4868C45.155 29.6551 45.1093 29.804 44.9998 29.9448C44.0359 31.1829 39.912 31.7606 38.3952 31.9211C35.4379 32.2699 32.552 32.3075 29.5789 32.3083C25.6612 32.3095 21.695 32.2678 17.8654 31.3362C17.0664 31.1418 16.2227 30.9239 15.4891 30.5445C15.0123 30.2979 14.6927 30.0233 14.5273 29.4977C14.597 29.2494 14.6815 29.073 14.8619 28.8848C16.4085 27.2736 23.2021 26.736 25.5341 26.6504Z" fill="#33373D"/>
</svg>
