<svg width="40" height="40" viewBox="0 0 40 40" fill="none" xmlns="http://www.w3.org/2000/svg">
<g clip-path="url(#clip0_1779_1045)">
<mask id="mask0_1779_1045" style="mask-type:luminance" maskUnits="userSpaceOnUse" x="0" y="0" width="40" height="40">
<path d="M40 0H0V40H40V0Z" fill="white"/>
</mask>
<g mask="url(#mask0_1779_1045)">
<path d="M19.0398 0.00504786C20.3099 -0.0125721 21.593 0.00968073 22.8546 0.173193C26.9391 0.693416 30.7534 2.49565 33.7489 5.32069C37.558 8.8308 39.8038 13.7192 39.9857 18.8957C40.128 23.1758 39.2153 27.0789 36.8674 30.6955C36.2058 31.7146 35.4469 32.7023 34.6129 33.5875C31.9456 36.4573 28.4835 38.4668 24.6688 39.3595C23.4484 39.6532 22.1686 39.8581 20.9126 39.8936C16.5335 40.0734 12.0048 38.8081 8.44743 36.2228C4.06435 33.0709 1.11434 28.3057 0.24751 22.9772C-0.546374 17.9195 0.567962 12.5 3.61299 8.33795C5.96938 5.11717 8.88732 2.74915 12.6231 1.31495C13.4904 0.981974 14.38 0.689931 15.2884 0.49091C16.107 0.310121 16.936 0.180089 17.7706 0.101566C18.1798 0.0626371 18.613 0.0746054 19.0159 0.00919824C19.0239 0.0079006 19.0318 0.00643129 19.0398 0.00504786Z" fill="#28AE85"/>
<path d="M11.1276 10.3386C11.7813 10.325 12.4375 10.3368 13.0915 10.3367L16.9194 10.337L28.5462 10.336L28.5495 13.383C28.55 13.6797 28.5918 14.4633 28.5381 14.7143L28.5066 14.7225C28.069 14.8337 27.1602 14.7462 26.6866 14.733C25.8817 14.7106 25.0711 14.7295 24.2658 14.7294C23.7083 14.7293 23.1335 14.7002 22.5779 14.7319C22.5042 14.7361 22.4357 14.7442 22.368 14.7751C22.3123 15.154 22.3544 15.631 22.355 16.0185C22.3558 16.4127 22.3185 16.9319 22.3707 17.3142C22.4377 17.3279 22.5407 17.3251 22.5884 17.3706C22.8019 17.4095 23.0384 17.4051 23.2558 17.4177C23.6365 17.4385 24.0169 17.4658 24.3966 17.4998C26.2407 17.6662 28.8055 18.0302 30.4194 19.0017C30.6936 19.1667 31.0576 19.4163 31.1303 19.7488C31.1713 19.9364 31.1235 20.1203 31.0134 20.2753C30.165 21.4687 25.6462 22.1357 24.1753 22.3006C23.8016 22.3426 23.4253 22.3805 23.0501 22.4045C22.8117 22.4197 22.5623 22.4116 22.3277 22.4579C22.3187 22.4597 22.3098 22.4617 22.3009 22.4635C22.2716 22.7726 22.2906 23.0977 22.2905 23.4089L22.2901 25.1535V30.753L17.4719 30.7549C17.4984 29.4585 17.4697 28.1551 17.4693 26.8582C17.469 25.3918 17.4937 23.922 17.4688 22.4559C17.2737 22.4317 17.0739 22.4309 16.8775 22.4184C16.5308 22.3964 16.1846 22.3668 15.8393 22.3295C14.1092 22.1464 10.3344 21.6182 8.98888 20.4955C8.81439 20.35 8.68456 20.1537 8.66924 19.922C8.65462 19.7012 8.76793 19.5018 8.91381 19.3446C9.25688 18.9746 9.79352 18.7445 10.2561 18.5641C12.4836 17.6955 15.1728 17.4695 17.5547 17.3665C17.5654 16.4809 17.5528 15.5935 17.5524 14.7078L11.1374 14.7099C11.1358 13.2538 11.0921 11.7947 11.1276 10.3386Z" fill="#FEFEFE"/>
<path d="M22.3073 14.7083L26.3183 14.709C27.0579 14.7088 27.8013 14.6927 28.5404 14.7146L28.5089 14.7228C28.0713 14.834 27.1624 14.7465 26.6888 14.7333C25.884 14.7108 25.0733 14.7298 24.2681 14.7297C23.7106 14.7296 23.1358 14.7004 22.5802 14.7322C22.5065 14.7364 22.438 14.7445 22.3703 14.7754C22.3145 15.1543 22.3567 15.6313 22.3573 16.0188C22.3581 16.413 22.3208 16.9322 22.373 17.3145C22.44 17.3282 22.543 17.3254 22.5907 17.3709C22.4974 17.3758 22.4002 17.3685 22.3066 17.367C22.2786 16.9598 22.2925 16.5451 22.2924 16.137C22.2922 15.6618 22.2814 15.1828 22.3073 14.7083Z" fill="#28AE85"/>
<path d="M17.0214 17.7657C17.1982 17.753 17.377 17.754 17.5541 17.75L17.5514 20.8417L22.2917 20.8422C22.2916 19.8143 22.2665 18.7791 22.3043 17.7524C24.2186 17.7449 27.847 18.0915 29.5044 18.979C29.8024 19.1387 30.0332 19.3227 30.1343 19.6566C30.102 19.7687 30.0716 19.868 29.9985 19.9619C29.3559 20.7873 26.6067 21.1724 25.5955 21.2795C23.6239 21.512 21.7 21.5371 19.718 21.5376C17.1062 21.5383 14.462 21.5106 11.909 20.8895C11.3763 20.7599 10.8138 20.6147 10.3248 20.3617C10.0069 20.1973 9.79384 20.0142 9.68359 19.6638C9.73003 19.4983 9.78633 19.3807 9.90666 19.2553C10.9377 18.1811 15.4668 17.8227 17.0214 17.7657Z" fill="#28AE85"/>
<mask id="mask1_1779_1045" style="mask-type:luminance" maskUnits="userSpaceOnUse" x="23" y="23" width="17" height="17">
<path d="M40 23H23V40H40V23Z" fill="white"/>
</mask>
<g mask="url(#mask1_1779_1045)">
<path d="M31.0343 24.0147C35.171 23.7574 38.7322 26.9043 38.9857 31.0413C39.2392 35.1782 36.089 38.7364 31.9518 38.9861C27.82 39.2355 24.2675 36.0903 24.0143 31.9587C23.7611 27.8272 26.903 24.2717 31.0343 24.0147Z" fill="#FF060A"/>
<path d="M30.9722 23.0167C35.6603 22.7252 39.6957 26.2921 39.983 30.9805C40.2701 35.6689 36.7 39.7014 32.0113 39.9844C27.3287 40.2668 23.3031 36.7019 23.0162 32.0196C22.7294 27.3373 26.2902 23.3079 30.9722 23.0167ZM31.0338 24.0147C26.9025 24.2718 23.761 27.8276 24.0142 31.959C24.2596 35.9614 27.601 39.0385 31.566 39.0001L31.9517 38.9864C36.0887 38.7365 39.2384 35.1779 38.9849 31.0411C38.7313 26.9043 35.1704 23.7574 31.0338 24.0147Z" fill="white"/>
<path d="M27.1457 26.7048L27.148 26.7045C27.2736 26.6884 27.8518 26.8174 28.0311 26.8506L29.613 27.1427L34.6376 28.0561C35.055 28.4475 35.475 28.836 35.8975 29.2219L36.2211 29.5205C36.2999 29.592 36.3881 29.6613 36.4554 29.7436C36.4806 29.7743 36.4874 29.8043 36.4908 29.8432C36.4962 29.9047 36.4855 29.9629 36.4524 30.0153C36.3735 30.14 36.2655 30.255 36.1733 30.3705L35.6096 31.079C34.8772 31.9986 34.1386 32.9131 33.3938 33.8226L31.8057 35.7651L31.3397 36.3389C31.2566 36.4416 31.1777 36.5498 31.088 36.6468C31.0474 36.6906 31.006 36.7294 30.9483 36.7495C30.8927 36.7688 30.8287 36.7599 30.7772 36.7325C30.7061 36.6948 30.6696 36.6346 30.6392 36.5631C30.5776 36.4182 30.5283 36.2662 30.4723 36.1189L30.05 35.0051L28.5579 31.107L27.4178 28.1423C27.3366 27.9268 27.2538 27.7118 27.1695 27.4975C27.1098 27.3471 27.0427 27.196 26.9931 27.042C26.9682 26.9648 26.9532 26.8854 26.9946 26.8107C27.0278 26.7508 27.0824 26.7233 27.1457 26.7048Z" fill="#FEFEFE"/>
<path d="M27.8633 27.8496C27.9113 27.8645 28.319 28.2281 28.3922 28.2894L30.4741 30.0229L31.1353 30.5699C31.2629 30.675 31.3888 30.791 31.5264 30.8824C31.4833 31.0667 31.4634 31.2625 31.4343 31.45L31.2634 32.5796L31.0292 34.1214C30.9927 34.3578 30.9494 34.5941 30.9183 34.8311C30.8858 35.0449 30.8336 35.2673 30.8228 35.4828C30.7762 35.3235 30.709 35.1705 30.6489 35.0159L30.354 34.2567L29.4638 31.9613L28.37 29.1432L28.0553 28.3339C27.9928 28.1724 27.9343 28.0076 27.8633 27.8496Z" fill="#FF060A"/>
<path d="M35.4868 30.3516C35.4914 30.3553 35.4883 30.3522 35.4916 30.3636C35.2233 30.7198 34.9333 31.063 34.6547 31.4114C33.9727 32.2645 33.2849 33.1131 32.5914 33.9569L31.8074 34.9188C31.666 35.0932 31.512 35.2666 31.3868 35.4528L31.3836 35.4498L31.3754 35.4349C31.3719 35.4087 31.3917 35.3529 31.396 35.3234C31.4284 35.0933 31.4623 34.8635 31.4976 34.6339L31.8698 32.1251L31.9809 31.3923C31.9997 31.2671 32.0228 31.1408 32.0346 31.0147C32.1614 31.0053 32.2935 30.9696 32.4184 30.945L33.1514 30.8007L35.4868 30.3516Z" fill="#FF060A"/>
<path d="M28.2461 27.4572C28.3563 27.4536 28.5162 27.5003 28.6274 27.5197L29.7733 27.7281L32.4225 28.2101C32.8927 28.2945 33.3635 28.3902 33.8358 28.461C33.6948 28.5664 33.5656 28.7084 33.4393 28.831L32.83 29.4117C32.4926 29.7491 32.1382 30.0693 31.8024 30.4085C31.5346 30.1708 31.2409 29.9445 30.9637 29.7163L29.6517 28.6237L28.7133 27.8405C28.5597 27.7127 28.4092 27.572 28.2461 27.4572Z" fill="#FF060A"/>
<path d="M34.4388 28.5957C34.4762 28.6323 34.5133 28.6693 34.5501 28.7066C34.6851 28.8142 34.808 28.9445 34.934 29.0628C35.1831 29.2968 35.4341 29.5289 35.6869 29.7591C35.5499 29.7612 35.4055 29.8011 35.271 29.8277L34.5544 29.9706L33.3261 30.2136C33.1008 30.2583 32.865 30.2928 32.6445 30.3568L33.3252 29.6924C33.389 29.6293 33.5431 29.4568 33.6086 29.4158C33.6933 29.3222 33.7904 29.2374 33.8807 29.1488C34.0681 28.9658 34.2541 28.7814 34.4388 28.5957Z" fill="#FF060A"/>
</g>
</g>
</g>
<defs>
<clipPath id="clip0_1779_1045">
<rect width="40" height="40" fill="white"/>
</clipPath>
</defs>
</svg>
