<svg width="20" height="20" viewBox="0 0 20 20" fill="none" xmlns="http://www.w3.org/2000/svg">
<g clip-path="url(#clip0_1668_487)">
<path d="M12.381 1.90476V5.71429H10.8772V1.90476C10.8772 1.63409 10.6366 1.50376 10.4762 1.50376C10.4261 1.50376 10.3759 1.51378 10.3258 1.53383L2.37594 4.53133C1.84461 4.73183 1.50376 5.23308 1.50376 5.80451V6.47619C0.591479 7.15789 0 8.25058 0 9.48366V5.80451C0 4.61153 0.73183 3.54887 1.84461 3.12782L9.80451 0.120301C10.0251 0.0401001 10.2556 0 10.4762 0C11.4787 0 12.381 0.81203 12.381 1.90476Z" fill="url(#paint0_linear_1668_487)"/>
<path d="M19.0512 12.4798V13.4823C19.0512 13.753 18.8406 13.9735 18.5599 13.9835H17.0963C16.5649 13.9835 16.0837 13.5926 16.0436 13.0712C16.0136 12.7605 16.1339 12.4697 16.3344 12.2692C16.5148 12.0788 16.7655 11.9785 17.0361 11.9785H18.5499C18.8406 11.9885 19.0512 12.2091 19.0512 12.4798Z" fill="url(#paint1_linear_1668_487)"/>
<path d="M17.0226 10.9279H18.0451C18.5965 10.9279 19.0476 10.4767 19.0476 9.92537V9.48427C19.0476 7.40908 17.3534 5.71484 15.2782 5.71484H3.76942C2.91729 5.71484 2.13534 5.99555 1.50376 6.47675C0.591479 7.15845 0 8.25118 0 9.48427V16.2311C0 18.3063 1.69424 20.0006 3.76942 20.0006H15.2782C17.3534 20.0006 19.0476 18.3063 19.0476 16.2311V16.0407C19.0476 15.4893 18.5965 15.0382 18.0451 15.0382H17.1729C16.2105 15.0382 15.2882 14.4467 15.0376 13.5143C14.8271 12.7524 15.0777 12.0206 15.5789 11.5294C15.9499 11.1484 16.4612 10.9279 17.0226 10.9279ZM11.5288 10.7274H4.51128C4.10025 10.7274 3.7594 10.3865 3.7594 9.9755C3.7594 9.56447 4.10025 9.22362 4.51128 9.22362H11.5288C11.9398 9.22362 12.2807 9.56447 12.2807 9.9755C12.2807 10.3865 11.9398 10.7274 11.5288 10.7274Z" fill="url(#paint2_linear_1668_487)"/>
</g>
<defs>
<linearGradient id="paint0_linear_1668_487" x1="-0.870467" y1="-1.10737e-07" x2="5.11501" y2="12.7927" gradientUnits="userSpaceOnUse">
<stop stop-color="#7DCBFF"/>
<stop offset="1" stop-color="#007AFF"/>
</linearGradient>
<linearGradient id="paint1_linear_1668_487" x1="15.8273" y1="11.9785" x2="16.9775" y2="14.8075" gradientUnits="userSpaceOnUse">
<stop stop-color="#7DCBFF"/>
<stop offset="1" stop-color="#007AFF"/>
</linearGradient>
<linearGradient id="paint2_linear_1668_487" x1="-1.33918" y1="5.71484" x2="7.55484" y2="25.1292" gradientUnits="userSpaceOnUse">
<stop stop-color="#7DCBFF"/>
<stop offset="1" stop-color="#007AFF"/>
</linearGradient>
<clipPath id="clip0_1668_487">
<rect width="20" height="20" fill="white"/>
</clipPath>
</defs>
</svg>
