<svg width="21" height="20" viewBox="0 0 21 20" fill="none" xmlns="http://www.w3.org/2000/svg">
<g clip-path="url(#clip0_3236_2295)">
<path d="M10.8564 0.00875549L10.8699 0.00725114C11.2808 -0.0351975 11.7155 0.111639 12.0348 0.371333C12.2137 0.516953 12.3732 0.695107 12.5354 0.859215C12.7642 1.09302 12.9947 1.32519 13.2267 1.55573C13.3191 1.64822 13.405 1.75599 13.5073 1.83711C13.5676 1.88498 13.6285 1.90685 13.7054 1.9076C13.8572 1.90905 14.0321 1.86052 14.1837 1.83687C14.669 1.76113 15.159 1.65944 15.6466 1.60634C16.0115 1.56661 16.3706 1.636 16.6882 1.82431C17.0615 2.04502 17.3333 2.40563 17.4445 2.82766C17.5062 3.06001 17.5323 3.30756 17.5692 3.54512C17.6205 3.87494 17.6764 4.20472 17.7241 4.53506C17.7431 4.66688 17.7483 4.8917 17.8328 4.99866C17.9148 5.10257 18.2 5.21965 18.3258 5.28418L19.1694 5.71722C19.4173 5.84463 19.6828 5.96214 19.8995 6.14061C20.3945 6.55145 20.6082 7.21506 20.4471 7.84122C20.3751 8.12094 20.2201 8.38073 20.0913 8.6373C19.9356 8.95051 19.7781 9.2628 19.6187 9.57409C19.5635 9.68132 19.4303 9.88251 19.4421 10.0016C19.458 10.1616 19.5763 10.3415 19.6485 10.4845L20.0474 11.2751C20.2325 11.6419 20.4514 11.9985 20.4922 12.4165C20.5487 13.0115 20.2847 13.5914 19.8006 13.9355C19.5901 14.0866 19.3426 14.1961 19.1127 14.314L18.1971 14.7849C18.0747 14.8475 17.8856 14.9092 17.8142 15.0329C17.7456 15.1515 17.7453 15.3385 17.7238 15.4731L17.5605 16.516C17.5199 16.7762 17.4933 17.0495 17.4057 17.2986C17.3405 17.483 17.2439 17.6546 17.1204 17.8057C16.7905 18.2098 16.2909 18.433 15.7727 18.4077C15.539 18.3971 15.3007 18.345 15.0699 18.3077L14.0568 18.1462C13.919 18.1233 13.6927 18.0628 13.562 18.1281C13.4399 18.1891 13.2984 18.3707 13.1982 18.4721L12.5426 19.135C12.3225 19.3573 12.1095 19.6027 11.841 19.7662C11.6274 19.8963 11.4017 19.9677 11.1544 19.993C10.6972 20.0344 10.266 19.8899 9.91649 19.5909C9.76956 19.4653 9.63597 19.316 9.49962 19.1785L8.8304 18.504C8.72165 18.394 8.61316 18.2592 8.49067 18.1659C8.45219 18.1366 8.41224 18.1103 8.363 18.1063C8.14213 18.0883 7.88356 18.1586 7.66506 18.1941C7.24241 18.2628 6.81747 18.3413 6.39287 18.394C6.01475 18.4408 5.66288 18.3783 5.33041 18.1882C4.95428 17.9737 4.67773 17.6174 4.56147 17.1974C4.49474 16.957 4.46852 16.6995 4.43017 16.4527L4.27853 15.4857C4.25839 15.3488 4.25427 15.1175 4.16924 15.0074C4.03464 14.8332 2.47142 14.1572 2.12144 13.8781C1.60578 13.4645 1.38436 12.7801 1.55877 12.139C1.63452 11.856 1.79592 11.5865 1.92715 11.3265L2.3755 10.4324C2.43635 10.3133 2.56826 10.1278 2.55566 9.98973C2.54149 9.83445 2.422 9.65685 2.35224 9.51902L1.88442 8.5933C1.78659 8.39953 1.67555 8.20348 1.60117 7.99911C1.55528 7.87309 1.52492 7.7418 1.51075 7.60829C1.44499 7.00733 1.70596 6.41737 2.19312 6.0657C2.40195 5.9171 2.64865 5.81023 2.87625 5.69341L3.76921 5.23373C3.90341 5.16462 4.11075 5.09464 4.18926 4.9582C4.25715 4.84025 4.26021 4.63631 4.28108 4.50232L4.44218 3.47413C4.48157 3.22254 4.50778 2.95749 4.58976 2.71592C4.65372 2.52892 4.74921 2.3545 4.87204 2.20035C5.19864 1.79698 5.69467 1.57295 6.21023 1.596C6.44906 1.60535 6.69045 1.65716 6.92657 1.69461L7.92748 1.85507C8.07592 1.87984 8.28958 1.94284 8.4309 1.87884C8.53801 1.83032 8.68019 1.64962 8.76752 1.5614L9.49785 0.823565C9.68724 0.632421 9.87524 0.410908 10.1024 0.266103C10.3346 0.118097 10.5843 0.0379616 10.8564 0.00875549ZM7.83216 11.0415L8.94408 12.1665C9.11955 12.3437 9.37407 12.6389 9.57291 12.7677C9.68102 12.8376 9.79474 12.8625 9.92197 12.8634C10.2096 12.8655 10.3733 12.7022 10.5638 12.5096L13.5 9.54248L14.3474 8.68736C14.4915 8.54159 14.6583 8.39887 14.78 8.23405C14.8682 8.11453 14.9132 7.97578 14.9129 7.82666C14.913 7.6406 14.8385 7.46247 14.7064 7.33275C14.5702 7.19666 14.4022 7.14194 14.2129 7.14591C14.1952 7.14626 14.178 7.14748 14.1604 7.14905C14.0321 7.15969 13.9259 7.18716 13.8206 7.26704C13.6717 7.37984 13.5405 7.53185 13.4089 7.66502L12.7103 8.3718L10.3356 10.7693C10.2747 10.8315 10.003 11.1349 9.94067 11.1621C9.91865 11.1717 9.87952 11.1383 9.86483 11.1257C9.72775 11.0076 9.60176 10.8603 9.47362 10.7313L8.5942 9.84317C8.44899 9.69653 8.29071 9.49787 8.11259 9.39414C8.00155 9.32943 7.86507 9.30802 7.73827 9.31321C7.55484 9.32071 7.39103 9.3944 7.26625 9.53084C7.13971 9.66928 7.08075 9.84963 7.08835 10.0365C7.10071 10.3393 7.30629 10.5144 7.50474 10.7138C7.61138 10.821 7.7162 10.9314 7.82564 11.0356C7.82776 11.0376 7.83 11.0395 7.83216 11.0415Z" fill="#58606D"/>
</g>
<defs>
<clipPath id="clip0_3236_2295">
<rect width="20" height="20" fill="white" transform="translate(0.5)"/>
</clipPath>
</defs>
</svg>
