<svg width="75" height="91" viewBox="0 0 75 91" fill="none" xmlns="http://www.w3.org/2000/svg">
<path d="M2.54145 89.7425C7.22929 91.569 12.2945 86.223 15.7959 83.4749C34.7626 68.5911 48.445 49.469 59.5254 28.2499C60.8154 33.1719 61.4547 44.3237 68.1898 44.1711C70.001 44.1396 71.7123 43.3348 72.8917 41.96C74.124 40.5 74.4885 38.6171 74.0745 36.7794C71.561 25.6161 68.9042 14.3611 65.8211 3.34767C65.574 2.4655 64.201 1.35415 63.5315 0.792044C61.7464 0.0184595 60.2419 -0.345907 58.3978 0.43598C53.503 2.51175 48.8429 4.50818 43.9499 6.68601C38.2437 9.37159 31.8641 11.5203 26.3836 14.5723C22.7986 16.5686 23.9885 24.0376 27.9091 24.9176C32.9553 26.0507 41.166 21.3353 45.9161 19.2126C37.6534 38.4848 29.03 54.4071 14.4831 69.8642C12.0945 72.4374 9.47632 74.7521 6.89009 77.1177C2.99254 80.6829 -3.67766 84.5007 2.54145 89.7425Z" fill="#FFBE00"/>
</svg>
