<svg width="25" height="25" viewBox="0 0 25 25" fill="none" xmlns="http://www.w3.org/2000/svg">
<g clip-path="url(#clip0_5438_393)">
<path d="M21.1354 2.5H21.492L21.5002 2.50317C21.5831 2.53448 21.6648 2.5491 21.7527 2.58444C22.0537 2.70556 22.2623 2.90376 22.3974 3.19817C22.4423 3.29591 22.4654 3.44654 22.5 3.51878V3.83399C22.4661 3.93426 22.4427 4.03441 22.4112 4.1354L22.1838 4.84336L21.2377 7.7802L18.3572 16.7242L17.2341 20.2111L16.9072 21.2284C16.7461 21.7312 16.6524 22.1513 16.1288 22.3949C16.05 22.4315 15.878 22.4675 15.8279 22.5H15.4611C15.2957 22.422 15.2097 22.4445 14.9959 22.3082C14.8148 22.1912 14.6706 22.0253 14.5799 21.8297C14.5205 21.703 14.4675 21.5264 14.4217 21.3891L14.1916 20.6983L13.4264 18.4016L12.6036 15.9333L12.3593 15.2023C12.3148 15.07 12.2474 14.8891 12.2182 14.7582C12.3063 14.6054 12.516 14.3244 12.6265 14.1664L13.4308 13.0169L15.6654 9.82211L16.386 8.79387C16.5202 8.60277 16.6735 8.39391 16.8 8.19926C16.8 8.19926 10.3089 12.7816 10.2175 12.7702C10.1262 12.7587 9.73949 12.6208 9.62949 12.584L8.33719 12.1532L3.36887 10.498C3.00311 10.374 2.74707 10.1717 2.58785 9.81379C2.55175 9.73266 2.53983 9.62137 2.5 9.54813V9.16953C2.53677 9.10156 2.54487 9.02242 2.57143 8.95137C2.6949 8.62094 2.95157 8.36184 3.2872 8.24836C3.39893 8.21059 3.51164 8.17531 3.62446 8.13965L4.24354 7.94152L6.66438 7.16172L17.06 3.81346L19.9909 2.86891L20.7774 2.61525C20.8566 2.59014 21.0767 2.52904 21.1354 2.5Z" fill="#1C1C1E"/>
</g>
<defs>
<clipPath id="clip0_5438_393">
<rect width="20" height="20" fill="white" transform="translate(2.5 2.5)"/>
</clipPath>
</defs>
</svg>
