<svg width="24" height="24" viewBox="0 0 24 24" fill="none" xmlns="http://www.w3.org/2000/svg">
<path d="M19.5 8.71754V8.98695C19.4486 9.15122 19.3878 9.30117 19.2745 9.43143C19.1538 9.57017 19.0197 9.69768 18.8911 9.82878L18.2424 10.4911L16.2067 12.57L13.7802 15.048L13.0534 15.7904C12.8881 15.9593 12.5972 16.2956 12.4001 16.4001C12.1875 16.5117 11.9397 16.5306 11.7131 16.4528C11.6115 16.4186 11.5227 16.3545 11.4446 16.281C11.3231 16.1666 11.2085 16.0415 11.0917 15.9221L10.4422 15.2585L8.43566 13.2092L5.9293 10.6496L5.18001 9.88485C5.03696 9.73887 4.67041 9.39987 4.59079 9.23397C4.55548 9.16046 4.54233 9.06998 4.5 9.0018V8.6907C4.5283 8.63511 4.54577 8.57234 4.56938 8.51448C4.61933 8.39208 4.69829 8.28866 4.78814 8.19417C4.87896 8.09867 4.97203 8.00526 5.06407 7.91102C5.27874 7.6913 5.48039 7.50269 5.8034 7.50002C5.9606 7.49871 6.17045 7.56393 6.29672 7.66011C6.37586 7.72043 6.44511 7.79972 6.51483 7.87095L6.83883 8.20185L7.98689 9.37437L12.005 13.4792C12.0872 13.3802 12.1866 13.2905 12.2766 13.1986L12.7882 12.6763L14.4205 11.0095L16.5621 8.8224L17.2653 8.10411C17.3904 7.97639 17.5128 7.84155 17.6439 7.72037C17.7186 7.6512 17.8149 7.58783 17.9118 7.55711C18.1416 7.48419 18.3749 7.49993 18.5879 7.61745C18.6341 7.64291 18.6772 7.67214 18.717 7.7073C18.8221 7.80035 18.9176 7.91051 19.016 8.01116C19.1253 8.12288 19.2816 8.25593 19.3644 8.38379C19.4301 8.48534 19.466 8.60193 19.5 8.71754Z" fill="#EBECEF"/>
</svg>
