<svg width="14" height="14" viewBox="0 0 14 14" fill="none" xmlns="http://www.w3.org/2000/svg">
<path d="M4.94697 1H5.15652C5.28427 1.04114 5.4009 1.08975 5.50222 1.1804C5.61013 1.27694 5.7093 1.38423 5.81127 1.48708L6.32641 2.00607L7.94331 3.63461L9.87069 5.57582L10.4481 6.1573C10.5794 6.28949 10.8409 6.52223 10.9222 6.67994C11.009 6.85002 11.0238 7.04826 10.9633 7.2295C10.9367 7.3108 10.8868 7.38184 10.8297 7.4443C10.7407 7.54152 10.6434 7.63321 10.5504 7.72666L10.0344 8.24624L8.44048 9.85148L6.44965 11.8566L5.85488 12.456C5.74135 12.5704 5.47767 12.8637 5.34864 12.9274C5.29146 12.9556 5.2211 12.9661 5.16806 13H4.9261C4.88286 12.9774 4.83404 12.9634 4.78904 12.9445C4.69384 12.9045 4.61339 12.8414 4.53991 12.7695C4.46563 12.6968 4.39298 12.6224 4.31968 12.5487C4.14878 12.377 4.00209 12.2157 4.00002 11.9573C3.99899 11.8315 4.04972 11.6636 4.12453 11.5626C4.17145 11.4993 4.23311 11.4439 4.28852 11.3881L4.54589 11.1289L5.45785 10.2105L8.65045 6.99599C8.57352 6.9302 8.50368 6.85075 8.43224 6.7787L8.02599 6.36944L6.72959 5.06359L5.02853 3.35031L4.46986 2.78771C4.37052 2.68767 4.26564 2.58972 4.1714 2.48493C4.1176 2.42509 4.06831 2.34812 4.04441 2.27061C3.98771 2.08671 3.99995 1.90011 4.09135 1.72966C4.11115 1.6927 4.13389 1.65816 4.16123 1.6264C4.2336 1.54228 4.31928 1.46594 4.39756 1.38718C4.48445 1.29977 4.58794 1.17466 4.68739 1.10845C4.76637 1.05587 4.85706 1.02721 4.94697 1Z" fill="#939EB1"/>
</svg>
