<svg width="30" height="30" viewBox="0 0 30 30" fill="none" xmlns="http://www.w3.org/2000/svg">
<path d="M7.82292 23.0032C8.03134 23.0032 8.23976 22.9264 8.4043 22.7619L23.7614 7.4052C24.0795 7.0871 24.0795 6.56059 23.7614 6.24248C23.4433 5.92438 22.9168 5.92438 22.5987 6.24248L7.24155 21.5992C6.92344 21.9173 6.92344 22.4438 7.24155 22.7619C7.40609 22.9264 7.61451 23.0032 7.82292 23.0032Z" fill="#FFBE00"/>
<path d="M23.1773 18.9106C23.627 18.9106 24 18.5376 24 18.0879V6.82268C24 6.37295 23.627 6 23.1773 6H11.9118C11.462 6 11.0891 6.37295 11.0891 6.82268C11.0891 7.27241 11.462 7.64536 11.9118 7.64536H22.3546V18.0879C22.3546 18.5376 22.7276 18.9106 23.1773 18.9106Z" fill="#FFBE00"/>
</svg>
