<svg width="16" height="17" viewBox="0 0 16 17" fill="none" xmlns="http://www.w3.org/2000/svg">
<path d="M10.053 2.5H9.84348C9.71573 2.54114 9.5991 2.58975 9.49778 2.6804C9.38987 2.77694 9.2907 2.88423 9.18873 2.98708L8.67359 3.50607L7.05669 5.13461L5.12931 7.07582L4.55191 7.6573C4.42059 7.78949 4.15906 8.02223 4.07775 8.17994C3.99095 8.35002 3.97615 8.54826 4.03675 8.7295C4.06332 8.8108 4.11319 8.88184 4.17034 8.9443C4.25933 9.04152 4.3566 9.13321 4.44956 9.22666L4.96565 9.74624L6.55952 11.3515L8.55035 13.3566L9.14512 13.956C9.25865 14.0704 9.52233 14.3637 9.65136 14.4274C9.70854 14.4556 9.7789 14.4661 9.83194 14.5H10.0739C10.1171 14.4774 10.166 14.4634 10.211 14.4445C10.3062 14.4045 10.3866 14.3414 10.4601 14.2695C10.5344 14.1968 10.607 14.1224 10.6803 14.0487C10.8512 13.877 10.9979 13.7157 11 13.4573C11.001 13.3315 10.9503 13.1636 10.8755 13.0626C10.8286 12.9993 10.7669 12.9439 10.7115 12.8881L10.4541 12.6289L9.54215 11.7105L6.34955 8.49599C6.42648 8.4302 6.49632 8.35075 6.56776 8.2787L6.97401 7.86944L8.27041 6.56359L9.97147 4.85031L10.5301 4.28771C10.6295 4.18767 10.7344 4.08972 10.8286 3.98493C10.8824 3.92509 10.9317 3.84812 10.9556 3.77061C11.0123 3.58671 11.0001 3.40011 10.9086 3.22966C10.8888 3.1927 10.8661 3.15816 10.8388 3.1264C10.7664 3.04228 10.6807 2.96594 10.6024 2.88718C10.5155 2.79977 10.4121 2.67466 10.3126 2.60845C10.2336 2.55587 10.1429 2.52721 10.053 2.5Z" fill="#9C9DA4"/>
</svg>
