<svg width="20" height="20" viewBox="0 0 20 20" fill="none" xmlns="http://www.w3.org/2000/svg">
<path d="M15.0599 8.59922C14.9016 8.59922 14.7432 8.54089 14.6182 8.41589L10.0016 3.79922L5.3849 8.41589C5.14323 8.65755 4.74323 8.65755 4.50156 8.41589C4.2599 8.17422 4.2599 7.77422 4.50156 7.53255L9.5599 2.47422C9.80156 2.23255 10.2016 2.23255 10.4432 2.47422L15.5016 7.53255C15.7432 7.77422 15.7432 8.17422 15.5016 8.41589C15.3849 8.54089 15.2182 8.59922 15.0599 8.59922Z" fill="currentColor"/>
<path d="M10 17.7086C9.65833 17.7086 9.375 17.4253 9.375 17.0836V3.05859C9.375 2.71693 9.65833 2.43359 10 2.43359C10.3417 2.43359 10.625 2.71693 10.625 3.05859V17.0836C10.625 17.4253 10.3417 17.7086 10 17.7086Z" fill="currentColor"/>
</svg>
