<svg width="40" height="40" viewBox="0 0 40 40" fill="none" xmlns="http://www.w3.org/2000/svg">
<g clip-path="url(#clip0_6017_192)">
<path d="M28.5074 30.6832H18.9263C18.4584 30.6832 18.0216 30.6321 17.6161 30.5299C17.2183 30.4355 16.8401 30.2822 16.4813 30.07C16.1304 29.8577 15.795 29.5826 15.4753 29.2445L9.08796 22.5113C8.698 22.1025 8.41724 21.7251 8.24567 21.3793C8.08189 21.0255 8 20.6757 8 20.3298C8 20.0939 8.0351 19.862 8.10529 19.6341C8.18327 19.4061 8.30026 19.1702 8.45624 18.9265C8.62002 18.6828 8.83059 18.4234 9.08796 18.1483L15.4636 11.3915C15.7833 11.0456 16.1187 10.7743 16.4696 10.5778C16.8284 10.3734 17.2066 10.228 17.6044 10.1415C18.0099 10.0472 18.4466 10 18.9146 10H28.5074C29.685 10 30.574 10.2987 31.1745 10.8962C31.7751 11.4858 32.0753 12.3702 32.0753 13.5494V27.1927C32.0753 28.3719 31.7751 29.2485 31.1745 29.8223C30.574 30.3962 29.685 30.6832 28.5074 30.6832ZM28.4371 28.6903C28.9675 28.6903 29.373 28.5488 29.6537 28.2658C29.9424 27.9828 30.0866 27.5622 30.0866 27.004V13.6909C30.0866 13.1327 29.9424 12.7122 29.6537 12.4292C29.373 12.1461 28.9675 12.0046 28.4371 12.0046H18.8561C18.4584 12.0046 18.1152 12.0557 17.8267 12.1579C17.5381 12.2523 17.2534 12.4449 16.9727 12.7357L10.6321 19.4454C10.328 19.7756 10.1759 20.0704 10.1759 20.3298C10.1759 20.4634 10.2071 20.601 10.2695 20.7425C10.3397 20.8761 10.4606 21.0373 10.6321 21.226L16.9844 27.9003C17.2651 28.1911 17.5459 28.3955 17.8267 28.5134C18.1152 28.6314 18.4622 28.6903 18.8678 28.6903H28.4371ZM18.3765 25.0466C18.1113 25.0466 17.8852 24.9522 17.698 24.7636C17.5186 24.5749 17.4289 24.3509 17.4289 24.0914C17.4289 23.8242 17.5264 23.6001 17.7214 23.4193L20.7513 20.3534L17.7214 17.2875C17.5264 17.1066 17.4289 16.8865 17.4289 16.6271C17.4289 16.3598 17.5186 16.1358 17.698 15.955C17.8852 15.7741 18.1113 15.6837 18.3765 15.6837C18.6416 15.6837 18.8601 15.7781 19.0316 15.9667L22.0732 19.0209L25.1382 15.955C25.3332 15.7663 25.5554 15.672 25.805 15.672C26.0624 15.672 26.2846 15.7624 26.4718 15.9432C26.6589 16.124 26.7526 16.352 26.7526 16.6271C26.7526 16.8787 26.6551 17.0948 26.4601 17.2757L23.4185 20.3534L26.4484 23.4075C26.6434 23.604 26.7409 23.8321 26.7409 24.0914C26.7409 24.3509 26.6472 24.5749 26.4601 24.7636C26.2729 24.9522 26.0507 25.0466 25.7933 25.0466C25.5281 25.0466 25.3019 24.9483 25.1147 24.7518L22.0732 21.7095L19.055 24.7518C18.8834 24.9483 18.6572 25.0466 18.3765 25.0466Z" fill="currentColor"/>
</g>
<defs>
<clipPath id="clip0_6017_192">
<rect width="25" height="21" fill="white" transform="translate(8 10)"/>
</clipPath>
</defs>
</svg>
