<svg width="31" height="30" viewBox="0 0 31 30" fill="none" xmlns="http://www.w3.org/2000/svg">
<path d="M9.29047 9.97906C9.10047 9.97906 8.90047 9.89906 8.76047 9.75906C8.47047 9.46906 8.47047 8.98906 8.76047 8.69906L12.3905 5.06906C12.6805 4.77906 13.1605 4.77906 13.4505 5.06906C13.7405 5.35906 13.7405 5.83906 13.4505 6.12906L9.82047 9.75906C9.67047 9.89906 9.48047 9.97906 9.29047 9.97906Z" fill="#292D32"/>
<path d="M22.9127 9.97906C22.7227 9.97906 22.5327 9.90906 22.3827 9.75906L18.7527 6.12906C18.4627 5.83906 18.4627 5.35906 18.7527 5.06906C19.0427 4.77906 19.5227 4.77906 19.8127 5.06906L23.4427 8.69906C23.7327 8.98906 23.7327 9.46906 23.4427 9.75906C23.3027 9.89906 23.1027 9.97906 22.9127 9.97906Z" fill="#292D32"/>
<path d="M24.3116 14.1992C24.2416 14.1992 24.1716 14.1992 24.1016 14.1992H23.8716H8.10156C7.40156 14.2092 6.60156 14.2092 6.02156 13.6292C5.56156 13.1792 5.35156 12.4792 5.35156 11.4492C5.35156 8.69922 7.36156 8.69922 8.32156 8.69922H23.8816C24.8416 8.69922 26.8516 8.69922 26.8516 11.4492C26.8516 12.4892 26.6416 13.1792 26.1816 13.6292C25.6616 14.1492 24.9616 14.1992 24.3116 14.1992ZM8.32156 12.6992H24.1116C24.5616 12.7092 24.9816 12.7092 25.1216 12.5692C25.1916 12.4992 25.3416 12.2592 25.3416 11.4492C25.3416 10.3192 25.0616 10.1992 23.8716 10.1992H8.32156C7.13156 10.1992 6.85156 10.3192 6.85156 11.4492C6.85156 12.2592 7.01156 12.4992 7.07156 12.5692C7.21156 12.6992 7.64156 12.6992 8.08156 12.6992H8.32156Z" fill="#292D32"/>
<path d="M13.8594 21.8996C13.4494 21.8996 13.1094 21.5596 13.1094 21.1496V17.5996C13.1094 17.1896 13.4494 16.8496 13.8594 16.8496C14.2694 16.8496 14.6094 17.1896 14.6094 17.5996V21.1496C14.6094 21.5696 14.2694 21.8996 13.8594 21.8996Z" fill="#292D32"/>
<path d="M18.4609 21.8996C18.0509 21.8996 17.7109 21.5596 17.7109 21.1496V17.5996C17.7109 17.1896 18.0509 16.8496 18.4609 16.8496C18.8709 16.8496 19.2109 17.1896 19.2109 17.5996V21.1496C19.2109 21.5696 18.8709 21.8996 18.4609 21.8996Z" fill="#292D32"/>
<path d="M18.9923 26.3503H12.9623C9.38229 26.3503 8.58229 24.2203 8.27229 22.3703L6.86229 13.7203C6.79229 13.3103 7.07229 12.9303 7.48229 12.8603C7.89229 12.7903 8.27229 13.0703 8.34229 13.4803L9.75229 22.1203C10.0423 23.8903 10.6423 24.8503 12.9623 24.8503H18.9923C21.5623 24.8503 21.8523 23.9503 22.1823 22.2103L23.8623 13.4603C23.9423 13.0503 24.3323 12.7803 24.7423 12.8703C25.1523 12.9503 25.4123 13.3403 25.3323 13.7503L23.6523 22.5003C23.2623 24.5303 22.6123 26.3503 18.9923 26.3503Z" fill="#292D32"/>
</svg>
