<svg width="31" height="30" viewBox="0 0 31 30" fill="none" xmlns="http://www.w3.org/2000/svg">
<path d="M25.1016 15.3497H7.10156C6.14156 15.3497 5.35156 14.5597 5.35156 13.5997V10.2797C5.35156 9.59974 5.82154 8.90974 6.45154 8.65974L15.4515 5.05977C15.8315 4.90977 16.3716 4.90977 16.7516 5.05977L25.7516 8.65974C26.3816 8.90974 26.8516 9.60974 26.8516 10.2797V13.5997C26.8516 14.5597 26.0616 15.3497 25.1016 15.3497ZM16.1016 6.43977C16.0616 6.43977 16.0216 6.43972 16.0016 6.44972L7.01154 10.0498C6.95154 10.0798 6.85156 10.2097 6.85156 10.2797V13.5997C6.85156 13.7397 6.96156 13.8497 7.10156 13.8497H25.1016C25.2416 13.8497 25.3516 13.7397 25.3516 13.5997V10.2797C25.3516 10.2097 25.2616 10.0798 25.1916 10.0498L16.1916 6.44972C16.1716 6.43972 16.1416 6.43977 16.1016 6.43977Z" fill="#292D32"/>
<path d="M26.1016 26.3496H6.10156C5.69156 26.3496 5.35156 26.0096 5.35156 25.5996V22.5996C5.35156 21.6396 6.14156 20.8496 7.10156 20.8496H25.1016C26.0616 20.8496 26.8516 21.6396 26.8516 22.5996V25.5996C26.8516 26.0096 26.5116 26.3496 26.1016 26.3496ZM6.85156 24.8496H25.3516V22.5996C25.3516 22.4596 25.2416 22.3496 25.1016 22.3496H7.10156C6.96156 22.3496 6.85156 22.4596 6.85156 22.5996V24.8496Z" fill="#292D32"/>
<path d="M8.10156 22.3496C7.69156 22.3496 7.35156 22.0096 7.35156 21.5996V14.5996C7.35156 14.1896 7.69156 13.8496 8.10156 13.8496C8.51156 13.8496 8.85156 14.1896 8.85156 14.5996V21.5996C8.85156 22.0096 8.51156 22.3496 8.10156 22.3496Z" fill="#292D32"/>
<path d="M12.1016 22.3496C11.6916 22.3496 11.3516 22.0096 11.3516 21.5996V14.5996C11.3516 14.1896 11.6916 13.8496 12.1016 13.8496C12.5116 13.8496 12.8516 14.1896 12.8516 14.5996V21.5996C12.8516 22.0096 12.5116 22.3496 12.1016 22.3496Z" fill="#292D32"/>
<path d="M16.1016 22.3496C15.6916 22.3496 15.3516 22.0096 15.3516 21.5996V14.5996C15.3516 14.1896 15.6916 13.8496 16.1016 13.8496C16.5116 13.8496 16.8516 14.1896 16.8516 14.5996V21.5996C16.8516 22.0096 16.5116 22.3496 16.1016 22.3496Z" fill="#292D32"/>
<path d="M20.1016 22.3496C19.6916 22.3496 19.3516 22.0096 19.3516 21.5996V14.5996C19.3516 14.1896 19.6916 13.8496 20.1016 13.8496C20.5116 13.8496 20.8516 14.1896 20.8516 14.5996V21.5996C20.8516 22.0096 20.5116 22.3496 20.1016 22.3496Z" fill="#292D32"/>
<path d="M24.1016 22.3496C23.6916 22.3496 23.3516 22.0096 23.3516 21.5996V14.5996C23.3516 14.1896 23.6916 13.8496 24.1016 13.8496C24.5116 13.8496 24.8516 14.1896 24.8516 14.5996V21.5996C24.8516 22.0096 24.5116 22.3496 24.1016 22.3496Z" fill="#292D32"/>
<path d="M27.1016 26.3496H5.10156C4.69156 26.3496 4.35156 26.0096 4.35156 25.5996C4.35156 25.1896 4.69156 24.8496 5.10156 24.8496H27.1016C27.5116 24.8496 27.8516 25.1896 27.8516 25.5996C27.8516 26.0096 27.5116 26.3496 27.1016 26.3496Z" fill="#292D32"/>
<path d="M16.1016 12.8496C14.8616 12.8496 13.8516 11.8396 13.8516 10.5996C13.8516 9.35961 14.8616 8.34961 16.1016 8.34961C17.3416 8.34961 18.3516 9.35961 18.3516 10.5996C18.3516 11.8396 17.3416 12.8496 16.1016 12.8496ZM16.1016 9.84961C15.6916 9.84961 15.3516 10.1896 15.3516 10.5996C15.3516 11.0096 15.6916 11.3496 16.1016 11.3496C16.5116 11.3496 16.8516 11.0096 16.8516 10.5996C16.8516 10.1896 16.5116 9.84961 16.1016 9.84961Z" fill="#292D32"/>
</svg>
