<svg width="20" height="20" viewBox="0 0 20 20" fill="none" xmlns="http://www.w3.org/2000/svg">
<path d="M16.1488 4C15.5237 4 14.9498 3.65 14.6628 3.11L13.925 1.66C13.4536 0.75 12.2238 0 11.1785 0H8.83173C7.77618 0 6.54642 0.75 6.07501 1.66L5.33715 3.11C5.0502 3.65 4.47632 4 3.85119 4C1.62737 4 -0.135294 5.83 0.00817796 7.99L0.541075 16.25C0.664051 18.31 1.80158 20 4.63004 20H15.37C18.1984 20 19.3257 18.31 19.4589 16.25L19.9918 7.99C20.1353 5.83 18.3726 4 16.1488 4ZM8.4628 5.25H11.5372C11.9574 5.25 12.3058 5.59 12.3058 6C12.3058 6.41 11.9574 6.75 11.5372 6.75H8.4628C8.04263 6.75 7.69419 6.41 7.69419 6C7.69419 5.59 8.04263 5.25 8.4628 5.25ZM10 16.12C8.09387 16.12 6.53617 14.61 6.53617 12.74C6.53617 10.87 8.08362 9.36 10 9.36C11.9164 9.36 13.4638 10.87 13.4638 12.74C13.4638 14.61 11.9061 16.12 10 16.12Z" fill="#FFBE00"/>
</svg>
