<svg width="21" height="21" viewBox="0 0 21 21" fill="none" xmlns="http://www.w3.org/2000/svg">
<path d="M20.5 5.65C20.5 6.31 19.96 6.85 19.3 6.85H1.7C1.04 6.85 0.5 6.31 0.5 5.65V5.64C0.5 3.35 2.35 1.5 4.64 1.5H16.35C18.64 1.5 20.5 3.36 20.5 5.65Z" fill="currentColor"/>
<path d="M0.5 9.54766V14.5577C0.5 16.8477 2.35 18.6977 4.64 18.6977H16.35C18.64 18.6977 20.5 16.8377 20.5 14.5477V9.54766C20.5 8.88766 19.96 8.34766 19.3 8.34766H1.7C1.04 8.34766 0.5 8.88766 0.5 9.54766ZM6.5 15.3477H4.5C4.09 15.3477 3.75 15.0077 3.75 14.5977C3.75 14.1877 4.09 13.8477 4.5 13.8477H6.5C6.91 13.8477 7.25 14.1877 7.25 14.5977C7.25 15.0077 6.91 15.3477 6.5 15.3477ZM13 15.3477H9C8.59 15.3477 8.25 15.0077 8.25 14.5977C8.25 14.1877 8.59 13.8477 9 13.8477H13C13.41 13.8477 13.75 14.1877 13.75 14.5977C13.75 15.0077 13.41 15.3477 13 15.3477Z" fill="currentColor"/>
</svg>
