<svg width="29" height="28" viewBox="0 0 29 28" fill="none" xmlns="http://www.w3.org/2000/svg">
<g style="mix-blend-mode:plus-lighter">
<path d="M26.2923 7.29134V13.2413C26.2923 14.723 25.8023 15.9713 24.9273 16.8347C24.064 17.7097 22.8157 18.1996 21.334 18.1996V20.3113C21.334 21.1046 20.4473 21.583 19.794 21.1397L18.6623 20.393C18.7673 20.0313 18.814 19.6346 18.814 19.2146V14.4664C18.814 12.0864 17.2273 10.4997 14.8473 10.4997H6.92564C6.76231 10.4997 6.61065 10.5114 6.45898 10.523V7.29134C6.45898 4.31634 8.44232 2.33301 11.4173 2.33301H21.334C24.309 2.33301 26.2923 4.31634 26.2923 7.29134Z" fill="#464A53"/>
<path d="M18.814 14.4667V19.215C18.814 19.635 18.7673 20.0316 18.6623 20.3933C18.2307 22.1083 16.8073 23.1817 14.8473 23.1817H11.674L8.15065 25.5267C7.62565 25.8883 6.92564 25.5033 6.92564 24.8733V23.1817C5.73564 23.1817 4.74399 22.785 4.05565 22.0967C3.35565 21.3967 2.95898 20.405 2.95898 19.215V14.4667C2.95898 12.25 4.33565 10.7217 6.45898 10.5234C6.61065 10.5117 6.76231 10.5 6.92564 10.5H14.8473C17.2273 10.5 18.814 12.0867 18.814 14.4667Z" fill="#939EB1"/>
</g>
</svg>
