<svg width="21" height="20" viewBox="0 0 21 20" fill="none" xmlns="http://www.w3.org/2000/svg">
<g clip-path="url(#clip0_1069_3926)">
<path d="M10.2833 0.498596C15.5293 0.379378 19.8791 4.53476 19.9997 9.78081C20.1203 15.0268 15.966 19.3777 10.72 19.4997C5.47209 19.6216 1.11929 15.4655 0.998654 10.2176C0.878025 4.96961 5.0353 0.617862 10.2833 0.498596ZM9.15549 10.9981C8.74588 10.6151 8.35463 10.2085 7.95631 9.81339C7.7542 9.61292 7.4869 9.30604 7.24756 9.16444C7.05713 9.05179 6.84553 9.00972 6.62627 9.01757C6.31823 9.02862 6.04198 9.15261 5.83338 9.38116C5.63229 9.60479 5.52842 9.89921 5.54467 10.1995C5.55311 10.376 5.60631 10.5591 5.69717 10.7108C5.8408 10.9505 6.11678 11.181 6.31838 11.3796C6.46526 11.5242 6.60861 11.6753 6.7599 11.815L7.80521 12.8532C8.00553 13.0535 8.34959 13.439 8.57881 13.5762C8.75666 13.6827 8.96181 13.7329 9.16842 13.7316C9.40615 13.731 9.63732 13.6537 9.82767 13.5113C10.0149 13.3736 10.1885 13.165 10.3536 12.9984L11.3939 11.9497L15.0827 8.2189C15.3145 7.98151 15.4606 7.70546 15.4556 7.36597C15.4538 7.07253 15.3331 6.79234 15.1212 6.58933C14.9018 6.37886 14.625 6.26761 14.3209 6.27515C14.2679 6.2764 14.2149 6.27949 14.1621 6.28445C13.9806 6.30253 13.8075 6.36999 13.6616 6.47957C13.4861 6.61218 13.3341 6.78402 13.1794 6.94015L12.4367 7.69112L10.2779 9.87053L9.54873 10.6055C9.41884 10.7364 9.2915 10.8738 9.15549 10.9981Z" fill="#34C759"/>
</g>
<defs>
<clipPath id="clip0_1069_3926">
<rect width="20" height="20" fill="white" transform="translate(0.5)"/>
</clipPath>
</defs>
</svg>
