<svg width="15" height="16" viewBox="0 0 15 16" fill="none" xmlns="http://www.w3.org/2000/svg">
<path d="M7.5 14.7188C3.79375 14.7188 0.78125 11.7063 0.78125 8C0.78125 4.29375 3.79375 1.28125 7.5 1.28125C11.2063 1.28125 14.2188 4.29375 14.2188 8C14.2188 11.7063 11.2063 14.7188 7.5 14.7188ZM7.5 2.21875C4.3125 2.21875 1.71875 4.8125 1.71875 8C1.71875 11.1875 4.3125 13.7812 7.5 13.7812C10.6875 13.7812 13.2812 11.1875 13.2812 8C13.2812 4.8125 10.6875 2.21875 7.5 2.21875Z" fill="#FF9500"/>
<path d="M9.81719 10.4559C9.73594 10.4559 9.65469 10.4371 9.57969 10.3871L7.64219 9.23086C7.16094 8.94336 6.80469 8.31211 6.80469 7.75586V5.19336C6.80469 4.93711 7.01719 4.72461 7.27344 4.72461C7.52969 4.72461 7.74219 4.93711 7.74219 5.19336V7.75586C7.74219 7.98086 7.92969 8.31211 8.12344 8.42461L10.0609 9.58086C10.2859 9.71211 10.3547 9.99961 10.2234 10.2246C10.1297 10.3746 9.97344 10.4559 9.81719 10.4559Z" fill="#FF9500"/>
</svg>
