<svg width="29" height="29" viewBox="0 0 29 29" fill="none" xmlns="http://www.w3.org/2000/svg">
<path d="M14.75 25.5C8.82 25.5 4 20.68 4 14.75C4 8.82 8.82 4 14.75 4C20.68 4 25.5 8.82 25.5 14.75C25.5 20.68 20.68 25.5 14.75 25.5ZM14.75 5.5C9.65 5.5 5.5 9.65 5.5 14.75C5.5 19.85 9.65 24 14.75 24C19.85 24 24 19.85 24 14.75C24 9.65 19.85 5.5 14.75 5.5Z" fill="currentColor"/>
<path d="M18.4601 18.6798C18.3301 18.6798 18.2001 18.6498 18.0801 18.5698L14.9801 16.7198C14.2101 16.2598 13.6401 15.2498 13.6401 14.3598V10.2598C13.6401 9.84977 13.9801 9.50977 14.3901 9.50977C14.8001 9.50977 15.1401 9.84977 15.1401 10.2598V14.3598C15.1401 14.7198 15.4401 15.2498 15.7501 15.4298L18.8501 17.2798C19.2101 17.4898 19.3201 17.9498 19.1101 18.3098C18.9601 18.5498 18.7101 18.6798 18.4601 18.6798Z" fill="currentColor"/>
</svg>
