<svg width="20" height="20" viewBox="0 0 20 20" fill="none" xmlns="http://www.w3.org/2000/svg">
<path d="M10.5 1C5.2655 1 1 5.2655 1 10.5C1 15.7345 5.2655 20 10.5 20C15.7345 20 20 15.7345 20 10.5C20 5.2655 15.7345 1 10.5 1ZM14.6325 13.8915C14.4995 14.1195 14.262 14.243 14.015 14.243C13.8915 14.243 13.768 14.2145 13.654 14.1385L10.709 12.381C9.9775 11.944 9.436 10.9845 9.436 10.139V6.244C9.436 5.8545 9.759 5.5315 10.1485 5.5315C10.538 5.5315 10.861 5.8545 10.861 6.244V10.139C10.861 10.481 11.146 10.9845 11.4405 11.1555L14.3855 12.913C14.7275 13.1125 14.8415 13.5495 14.6325 13.8915Z" fill="#FF9720"/>
</svg>
