<svg width="29" height="28" viewBox="0 0 29 28" fill="none" xmlns="http://www.w3.org/2000/svg">
<g style="mix-blend-mode:plus-lighter">
<path opacity="0.4" d="M14.3757 25.6663C20.819 25.6663 26.0423 20.443 26.0423 13.9997C26.0423 7.55635 20.819 2.33301 14.3757 2.33301C7.93233 2.33301 2.70898 7.55635 2.70898 13.9997C2.70898 20.443 7.93233 25.6663 14.3757 25.6663Z" fill="#939EB1"/>
<path d="M18.7034 18.5851C18.5517 18.5851 18.4001 18.5501 18.2601 18.4567L14.6434 16.2984C13.7451 15.7617 13.0801 14.5834 13.0801 13.5451V8.76172C13.0801 8.28339 13.4767 7.88672 13.9551 7.88672C14.4334 7.88672 14.8301 8.28339 14.8301 8.76172V13.5451C14.8301 13.9651 15.1801 14.5834 15.5417 14.7934L19.1584 16.9517C19.5784 17.1967 19.7067 17.7334 19.4617 18.1534C19.2867 18.4334 18.9951 18.5851 18.7034 18.5851Z" fill="#939EB1"/>
</g>
</svg>
