<svg width="16" height="17" viewBox="0 0 16 17" fill="none" xmlns="http://www.w3.org/2000/svg">
<path d="M12.9107 4.37796L3.48261 13.8061C3.16048 14.1282 2.62623 14.1282 2.3041 13.8061C1.98197 13.4839 1.98197 12.9497 2.3041 12.6275L11.7322 3.19945C12.0543 2.87732 12.5886 2.87732 12.9107 3.19945C13.2328 3.52158 13.2328 4.05584 12.9107 4.37796Z" fill="currentColor"/>
<path d="M12.9107 13.8005C12.5886 14.1227 12.0543 14.1227 11.7322 13.8005L2.3041 4.37246C1.98197 4.05033 1.98197 3.51607 2.3041 3.19395C2.62623 2.87182 3.16048 2.87182 3.48261 3.19395L12.9107 12.622C13.2328 12.9442 13.2328 13.4784 12.9107 13.8005Z" fill="currentColor"/>
</svg>
