<svg width="20" height="20" viewBox="0 0 20 20" fill="none" xmlns="http://www.w3.org/2000/svg">
<path d="M9.2513 18.9596H5.7513C2.49297 18.9596 1.04297 17.5096 1.04297 14.2513V10.7513C1.04297 7.49297 2.49297 6.04297 5.7513 6.04297H9.2513C12.5096 6.04297 13.9596 7.49297 13.9596 10.7513V14.2513C13.9596 17.5096 12.5096 18.9596 9.2513 18.9596ZM5.7513 7.29297C3.16797 7.29297 2.29297 8.16797 2.29297 10.7513V14.2513C2.29297 16.8346 3.16797 17.7096 5.7513 17.7096H9.2513C11.8346 17.7096 12.7096 16.8346 12.7096 14.2513V10.7513C12.7096 8.16797 11.8346 7.29297 9.2513 7.29297H5.7513Z" fill="#9C9DA4"/>
<path d="M14.2513 13.9596H13.3346C12.993 13.9596 12.7096 13.6763 12.7096 13.3346V10.7513C12.7096 8.16797 11.8346 7.29297 9.2513 7.29297H6.66797C6.3263 7.29297 6.04297 7.00964 6.04297 6.66797V5.7513C6.04297 2.49297 7.49297 1.04297 10.7513 1.04297H14.2513C17.5096 1.04297 18.9596 2.49297 18.9596 5.7513V9.2513C18.9596 12.5096 17.5096 13.9596 14.2513 13.9596ZM13.9596 12.7096H14.2513C16.8346 12.7096 17.7096 11.8346 17.7096 9.2513V5.7513C17.7096 3.16797 16.8346 2.29297 14.2513 2.29297H10.7513C8.16797 2.29297 7.29297 3.16797 7.29297 5.7513V6.04297H9.2513C12.5096 6.04297 13.9596 7.49297 13.9596 10.7513V12.7096Z" fill="#9C9DA4"/>
</svg>
