<svg width="25" height="25" viewBox="0 0 25 25" fill="none" xmlns="http://www.w3.org/2000/svg">
<path d="M11.5612 23.6986H7.1862C3.11328 23.6986 1.30078 21.8861 1.30078 17.8132V13.4382C1.30078 9.36523 3.11328 7.55273 7.1862 7.55273H11.5612C15.6341 7.55273 17.4466 9.36523 17.4466 13.4382V17.8132C17.4466 21.8861 15.6341 23.6986 11.5612 23.6986ZM7.1862 9.11523C3.95703 9.11523 2.86328 10.209 2.86328 13.4382V17.8132C2.86328 21.0423 3.95703 22.1361 7.1862 22.1361H11.5612C14.7904 22.1361 15.8841 21.0423 15.8841 17.8132V13.4382C15.8841 10.209 14.7904 9.11523 11.5612 9.11523H7.1862Z" fill="#939EB1"/>
<path d="M17.8112 17.4486H16.6654C16.2383 17.4486 15.8841 17.0944 15.8841 16.6673V13.4382C15.8841 10.209 14.7904 9.11523 11.5612 9.11523H8.33203C7.90495 9.11523 7.55078 8.76107 7.55078 8.33398V7.18815C7.55078 3.11523 9.36328 1.30273 13.4362 1.30273H17.8112C21.8841 1.30273 23.6966 3.11523 23.6966 7.18815V11.5632C23.6966 15.6361 21.8841 17.4486 17.8112 17.4486ZM17.4466 15.8861H17.8112C21.0404 15.8861 22.1341 14.7923 22.1341 11.5632V7.18815C22.1341 3.95898 21.0404 2.86523 17.8112 2.86523H13.4362C10.207 2.86523 9.11328 3.95898 9.11328 7.18815V7.55273H11.5612C15.6341 7.55273 17.4466 9.36523 17.4466 13.4382V15.8861Z" fill="#939EB1"/>
</svg>
