<svg width="21" height="21" viewBox="0 0 21 21" fill="none" xmlns="http://www.w3.org/2000/svg">
<path d="M12.881 2.40476V6.21429H11.3772V2.40476C11.3772 2.13409 11.1366 2.00376 10.9762 2.00376C10.9261 2.00376 10.8759 2.01378 10.8258 2.03383L2.87594 5.03133C2.34461 5.23183 2.00376 5.73308 2.00376 6.30451V6.97619C1.09148 7.65789 0.5 8.75063 0.5 9.98371V6.30451C0.5 5.11153 1.23183 4.04887 2.34461 3.62782L10.3045 0.620301C10.5251 0.5401 10.7556 0.5 10.9762 0.5C11.9787 0.5 12.881 1.31203 12.881 2.40476Z" fill="currentColor"/>
<path d="M19.5473 12.9798V13.9823C19.5473 14.253 19.3367 14.4735 19.056 14.4835H17.5924C17.061 14.4835 16.5798 14.0926 16.5397 13.5712C16.5097 13.2605 16.63 12.9697 16.8305 12.7692C17.0109 12.5788 17.2615 12.4785 17.5322 12.4785H19.046C19.3367 12.4885 19.5473 12.7091 19.5473 12.9798Z" fill="currentColor"/>
<path d="M17.5226 11.4279H18.5451C19.0965 11.4279 19.5476 10.9767 19.5476 10.4254V9.98427C19.5476 7.90908 17.8534 6.21484 15.7782 6.21484H4.26942C3.41729 6.21484 2.63534 6.49555 2.00376 6.97675C1.09148 7.65845 0.5 8.75118 0.5 9.98427V16.7311C0.5 18.8063 2.19424 20.5006 4.26942 20.5006H15.7782C17.8534 20.5006 19.5476 18.8063 19.5476 16.7311V16.5407C19.5476 15.9893 19.0965 15.5382 18.5451 15.5382H17.6729C16.7105 15.5382 15.7882 14.9467 15.5376 14.0143C15.3271 13.2524 15.5777 12.5206 16.0789 12.0294C16.4499 11.6484 16.9612 11.4279 17.5226 11.4279ZM12.0288 11.2274H5.01128C4.60025 11.2274 4.2594 10.8865 4.2594 10.4755C4.2594 10.0645 4.60025 9.72362 5.01128 9.72362H12.0288C12.4398 9.72362 12.7807 10.0645 12.7807 10.4755C12.7807 10.8865 12.4398 11.2274 12.0288 11.2274Z" fill="currentColor"/>
</svg>
