<svg width="20" height="20" viewBox="0 0 20 20" fill="none" xmlns="http://www.w3.org/2000/svg">
<g clip-path="url(#clip0_868_263)">
<path d="M9.64288 0.831394C14.7007 0.633109 18.9634 4.56878 19.1687 9.62632C19.3739 14.6839 15.4441 18.952 10.3868 19.1642C5.31972 19.3768 1.04145 15.4377 0.835813 10.3703C0.630169 5.30293 4.57518 1.03007 9.64288 0.831394Z" fill="#FF0719"/>
<path d="M13.2729 5.84345C13.3007 5.84142 13.3284 5.84158 13.3562 5.84224C13.5707 5.84732 13.787 5.94502 13.9342 6.10064C14.0884 6.26447 14.1707 6.4831 14.163 6.70791C14.1571 6.8515 14.1129 7.00955 14.0296 7.12705C13.9165 7.2867 13.7613 7.42318 13.6232 7.56127L12.9675 8.21693L11.8245 9.35947C11.6112 9.57263 11.402 9.79486 11.1798 9.99838C11.6595 10.4631 12.1236 10.9473 12.5947 11.421L13.3403 12.1714C13.4979 12.3292 13.66 12.4842 13.8131 12.6463C13.9782 12.8211 14.0717 13.0301 14.0627 13.2738C14.0559 13.4965 13.9587 13.7069 13.7935 13.8565C13.6277 14.0076 13.4084 14.086 13.1845 14.0742C13.0286 14.0643 12.8785 14.0116 12.7505 13.922C12.6232 13.831 12.5084 13.6946 12.3976 13.5838L11.7263 12.9118L10.5966 11.7823C10.3979 11.5836 10.1873 11.3892 9.99973 11.18L9.97187 11.2092C9.35766 11.8483 8.71426 12.4637 8.08648 13.0897L7.5318 13.6449C7.40285 13.774 7.27453 13.9246 7.12188 14.0252C6.97348 14.1229 6.80937 14.1555 6.63437 14.159C6.42648 14.1384 6.23687 14.0643 6.08691 13.9156C5.92871 13.7575 5.83984 13.5431 5.83984 13.3195C5.84109 13.1892 5.88 13.0118 5.9527 12.903C6.05723 12.7467 6.20422 12.6174 6.33656 12.4851L6.87121 11.9504L8.82332 10.0008L6.44105 7.61939C6.17777 7.35646 5.88605 7.12287 5.88898 6.71638C5.89172 6.49642 5.9802 6.28619 6.13559 6.13045C6.29559 5.9717 6.51273 5.88396 6.73813 5.88709C6.88188 5.88982 7.03902 5.93017 7.15863 6.01127C7.32496 6.12404 7.4632 6.2808 7.60441 6.42279L8.15871 6.97982C8.77137 7.59517 9.39145 8.20404 9.99801 8.82537C10.6169 8.18865 11.2579 7.57107 11.8863 6.94345L12.4807 6.34853C12.6019 6.2272 12.7217 6.0906 12.8604 5.98966C12.9812 5.90177 13.1263 5.86045 13.2729 5.84345Z" fill="#FEFEFE"/>
</g>
<defs>
<clipPath id="clip0_868_263">
<rect width="20" height="20" fill="white"/>
</clipPath>
</defs>
</svg>
