<svg width="17" height="17" viewBox="0 0 17 17" fill="none" xmlns="http://www.w3.org/2000/svg">
<path d="M8.30309 4.98654e-05C12.9032 -0.0156962 16.6456 3.69969 16.6632 8.29981C16.6807 12.8999 12.9668 16.6438 8.36672 16.6632C3.76403 16.6825 0.0176323 12.9661 6.19923e-05 8.3634C-0.0175044 3.76075 3.70043 0.0158038 8.30309 4.98654e-05ZM8.35657 9.99496C8.59848 9.97871 8.79653 9.89047 8.95848 9.70688C9.06672 9.58414 9.13157 9.44125 9.15442 9.27934C9.1825 9.08008 9.16551 8.8602 9.16555 8.65895L9.16543 7.51168L9.16528 5.83309C9.16539 5.53711 9.18094 5.23332 9.1602 4.93848C9.14582 4.7184 9.04375 4.51325 8.87684 4.36907C8.7168 4.23071 8.52762 4.17129 8.3177 4.17582C8.06946 4.1909 7.87547 4.25848 7.70563 4.44856C7.59633 4.5709 7.532 4.72348 7.5093 4.88524C7.48297 5.07282 7.49879 5.28055 7.49875 5.46981V6.56106L7.49899 8.28051C7.49887 8.58996 7.48489 8.90625 7.50309 9.21496C7.51457 9.4361 7.61524 9.64309 7.78207 9.78867C7.94508 9.93258 8.1409 9.99575 8.35657 9.99496ZM8.44575 12.485C8.89735 12.4222 9.21364 12.0067 9.15399 11.5547C9.0943 11.1026 8.68106 10.7834 8.2286 10.8399C7.77164 10.897 7.44856 11.3152 7.50879 11.7718C7.56907 12.2284 7.98961 12.5485 8.44575 12.485Z" fill="#FFBE00"/>
</svg>
