<svg width="20" height="20" viewBox="0 0 20 20" fill="none" xmlns="http://www.w3.org/2000/svg">
<path d="M9.9709 1.50005C14.664 1.48399 18.482 5.27446 18.4999 9.96754C18.5179 14.6606 14.7289 18.4802 10.0358 18.4999C5.3401 18.5197 1.51799 14.7281 1.50006 10.0324C1.48214 5.33675 5.27522 1.51612 9.9709 1.50005ZM10.0255 11.697C10.2723 11.6804 10.4743 11.5904 10.6395 11.4031C10.75 11.2778 10.8161 11.1321 10.8394 10.9669C10.8681 10.7636 10.8507 10.5393 10.8508 10.3339L10.8507 9.16349L10.8505 7.45097C10.8506 7.14901 10.8665 6.83909 10.8453 6.53828C10.8307 6.31376 10.7265 6.10446 10.5562 5.95736C10.393 5.81621 10.2 5.75559 9.9858 5.76021C9.73254 5.7756 9.53464 5.84454 9.36136 6.03846C9.24986 6.16328 9.18422 6.31894 9.16107 6.48397C9.13421 6.67534 9.15035 6.88727 9.15031 7.08035V8.19365L9.15055 9.94786C9.15043 10.2636 9.13616 10.5862 9.15473 10.9012C9.16645 11.1268 9.26915 11.338 9.43935 11.4865C9.60565 11.6333 9.80543 11.6978 10.0255 11.697ZM10.1164 14.2374C10.5772 14.1732 10.8998 13.7493 10.839 13.2882C10.7781 12.827 10.3565 12.5013 9.8949 12.559C9.42871 12.6172 9.0991 13.0439 9.16055 13.5097C9.22204 13.9755 9.65109 14.3021 10.1164 14.2374Z" fill="#FF9100"/>
</svg>
