<svg width="13" height="14" viewBox="0 0 13 14" fill="none" xmlns="http://www.w3.org/2000/svg">
<path d="M0.9375 8.75435V8.68399C0.9375 7.55813 1.1384 6.65236 1.65902 6.00155C2.18898 5.33912 2.9881 5.01659 4.00871 4.9214C4.23211 4.90058 4.4301 5.06458 4.45093 5.28798C4.47175 5.51138 4.30774 5.70938 4.08435 5.7302C3.18767 5.81379 2.63533 6.08133 2.29325 6.50887C1.94179 6.94816 1.75 7.63234 1.75 8.68399V8.75435C1.75 9.92478 1.98698 10.6391 2.41862 11.0707C2.85025 11.5022 3.56423 11.7388 4.73445 11.7388H8.26058C9.43096 11.7388 10.1453 11.5023 10.577 11.0707C11.0086 10.6391 11.2455 9.92478 11.2455 8.75435V8.68399C11.2455 7.62433 11.0509 6.9376 10.6944 6.49825C10.347 6.07018 9.78477 5.80364 8.87049 5.72491C8.647 5.70562 8.48147 5.50885 8.50075 5.28534C8.52004 5.06183 8.71677 4.89633 8.94032 4.91559C9.97593 5.00477 10.7872 5.32295 11.3254 5.98622C11.8545 6.63833 12.058 7.5499 12.058 8.68399V8.75435C12.058 10.0051 11.8098 10.9867 11.1514 11.6452C10.4929 12.3036 9.51134 12.5513 8.26058 12.5513H4.73445C3.48382 12.5513 2.5026 12.3035 1.84416 11.6452C1.18569 10.9867 0.9375 10.0051 0.9375 8.75435Z" fill="currentCOlor"/>
<path d="M6.09375 8.62506V2.46094C6.09375 2.23657 6.27564 2.05469 6.5 2.05469C6.72436 2.05469 6.90625 2.23657 6.90625 2.46094V8.62506C6.90625 8.84941 6.72436 9.03131 6.5 9.03131C6.27564 9.03131 6.09375 8.84941 6.09375 8.62506Z" fill="currentCOlor"/>
<path d="M6.21064 1.5662C6.36924 1.40759 6.62648 1.40766 6.78513 1.5662L8.60004 3.38057C8.75859 3.53917 8.75853 3.79637 8.60004 3.95504C8.44139 4.11369 8.1842 4.11369 8.02555 3.95504L6.49789 2.42737L4.97074 3.95504C4.81209 4.11369 4.55493 4.11369 4.39628 3.95504C4.23773 3.79638 4.23766 3.53919 4.39628 3.38057L6.21064 1.5662Z" fill="currentCOlor"/>
</svg>
