<svg width="20" height="20" viewBox="0 0 20 20" fill="none" xmlns="http://www.w3.org/2000/svg">
<path d="M9.46983 4.26167C10.4675 4.21904 11.4649 4.35231 12.4164 4.6554C14.2863 5.24959 15.916 6.43017 17.3001 7.79536C17.6052 8.09633 17.9042 8.40107 18.1852 8.72495C18.3957 8.96761 18.825 9.434 18.9574 9.69581C19.0158 9.81135 19.0394 9.92361 18.9953 10.0487C18.9114 10.287 18.6259 10.5608 18.4601 10.7571C17.6125 11.7601 16.8065 12.6236 15.7271 13.3897C15.5055 13.547 15.2833 13.7132 15.0352 13.827C14.9581 13.7542 14.8842 13.6768 14.809 13.602L13.8394 12.6367C13.6383 12.4333 13.4427 12.2091 13.2236 12.0255C13.4681 11.6812 13.6538 11.2653 13.7698 10.8599C14.0461 9.87201 13.9256 8.81526 13.4342 7.91484C12.9088 6.96558 12.0741 6.26765 11.0245 5.97125C10.6838 5.87503 10.3399 5.83703 9.98637 5.83938C9.12044 5.84511 8.48689 6.1023 7.74418 6.51633C7.57984 6.38564 7.43127 6.20905 7.28266 6.05953L6.40625 5.18437C7.0544 4.79485 7.964 4.48812 8.70714 4.35809C8.96122 4.31363 9.21619 4.29988 9.46983 4.26167Z" fill="white" fill-opacity="0.5"/>
<path d="M4.07874 6.54492C4.15604 6.59255 4.5375 7.00011 4.63029 7.09305L6.21667 8.6817C6.18214 8.8566 6.13676 9.02867 6.11246 9.20562C6.0169 9.90216 6.08895 10.6578 6.36535 11.3083C6.78642 12.2994 7.55574 13.0966 8.5611 13.5013C9.22663 13.7692 9.95927 13.82 10.6651 13.7133C10.8189 13.69 10.9897 13.6669 11.1331 13.6059C11.2818 13.7306 11.4143 13.8804 11.551 14.018C11.8794 14.3485 12.2375 14.7283 12.5802 15.0365C11.8739 15.3238 10.9713 15.4767 10.2101 15.5181C10.0757 15.5254 9.9371 15.5395 9.80281 15.531C9.65499 15.5067 9.49723 15.5101 9.34725 15.4956C9.07152 15.4689 8.79457 15.4232 8.52297 15.3688C8.08562 15.2811 7.6321 15.1658 7.21167 15.0167C5.17621 14.2949 3.35783 12.8548 1.95187 11.2353C1.76416 11.0199 1.58011 10.8014 1.39978 10.5798C1.29682 10.4546 1.18534 10.3299 1.09646 10.1944C1.02247 10.0816 0.979195 9.95926 1.01008 9.82363C1.07967 9.518 1.41933 9.16291 1.62034 8.92494C2.21937 8.21577 2.84047 7.57243 3.54961 6.97283C3.71998 6.82879 3.89195 6.66671 4.07874 6.54492Z" fill="white" fill-opacity="0.5"/>
<path d="M2.09298 2.00046C2.22683 1.99501 2.35815 2.03818 2.46267 2.12196C2.66422 2.28362 2.84853 2.49514 3.03187 2.67796L4.15493 3.80223L7.62308 7.2737L14.0283 13.6856L15.9749 15.6306L16.9737 16.6329C17.0592 16.7186 17.15 16.7997 17.2335 16.8873C17.3273 16.9857 17.4191 17.1038 17.4326 17.2436C17.4478 17.4018 17.3793 17.5538 17.279 17.6725C17.1081 17.8749 16.9375 18.0021 16.6694 18.0261C16.5788 18.0288 16.4566 17.9982 16.3828 17.9447C16.2324 17.8356 16.0074 17.5916 15.8717 17.4561C15.569 17.1593 15.2694 16.8593 14.973 16.5562L12.1292 13.7242L5.39291 6.98347L3.63597 5.22049C2.9282 4.51909 2.21002 3.82382 1.51706 3.10797C1.43795 3.02625 1.37644 2.94185 1.36034 2.82569C1.33943 2.67488 1.38721 2.52785 1.47615 2.40695C1.633 2.19373 1.82992 2.04106 2.09298 2.00046Z" fill="white" fill-opacity="0.5"/>
<path d="M9.74631 7.19721C10.2498 7.15791 10.7536 7.2686 11.1942 7.5153C11.788 7.84468 12.2701 8.44026 12.4543 9.09489C12.634 9.73355 12.6026 10.4656 12.2744 11.053C12.1535 10.9517 12.047 10.835 11.9343 10.7248C11.5865 10.3981 11.2545 10.0513 10.9162 9.71437L8.74609 7.53759C9.0648 7.3528 9.38651 7.26083 9.74631 7.19721Z" fill="white" fill-opacity="0.5"/>
<path d="M7.40669 9.87891C7.48969 9.93745 7.56534 10.0278 7.63724 10.0998L8.14361 10.614L9.9375 12.4208C9.77771 12.3825 9.6019 12.3897 9.4384 12.3589C8.97691 12.2719 8.43224 11.9382 8.11347 11.6034C7.67386 11.1417 7.3936 10.5214 7.40669 9.87891Z" fill="white" fill-opacity="0.5"/>
</svg>
