<svg width="15" height="15" viewBox="0 0 15 15" fill="none" xmlns="http://www.w3.org/2000/svg">
<path d="M7.05041 2.71251C7.88097 2.67703 8.7113 2.78797 9.50342 3.04029C11.0601 3.53495 12.4168 4.51778 13.5691 5.65429C13.8231 5.90484 14.072 6.15854 14.3059 6.42817C14.4811 6.63018 14.8385 7.01845 14.9488 7.2364C14.9974 7.33259 15.017 7.42604 14.9803 7.53021C14.9105 7.72859 14.6728 7.95653 14.5348 8.11994C13.8291 8.95494 13.1582 9.67379 12.2596 10.3116C12.0751 10.4425 11.8901 10.5809 11.6836 10.6756C11.6194 10.615 11.5578 10.5506 11.4952 10.4883L10.6881 9.6847C10.5206 9.51537 10.3578 9.32872 10.1754 9.17588C10.379 8.88925 10.5335 8.54302 10.6301 8.20552C10.8601 7.38309 10.7598 6.50335 10.3507 5.75376C9.91334 4.9635 9.21846 4.38248 8.34467 4.13573C8.06104 4.05563 7.77475 4.02399 7.48043 4.02595C6.75955 4.03072 6.23212 4.24483 5.61382 4.5895C5.47701 4.48071 5.35332 4.3337 5.22961 4.20922L4.5 3.48066C5.03958 3.15638 5.79682 2.90103 6.41548 2.79278C6.627 2.75577 6.83926 2.74432 7.05041 2.71251Z" fill="#939EB1"/>
<path d="M2.56303 4.6123C2.62738 4.65196 2.94495 4.99125 3.02219 5.06862L4.34285 6.39116C4.3141 6.53676 4.27632 6.68001 4.25609 6.82732C4.17654 7.40719 4.23652 8.03625 4.46662 8.57779C4.81716 9.40287 5.45761 10.0665 6.29457 10.4034C6.84862 10.6265 7.45854 10.6688 8.04614 10.5799C8.17417 10.5605 8.31636 10.5413 8.43574 10.4905C8.55953 10.5943 8.66984 10.719 8.78364 10.8336C9.05703 11.1087 9.35515 11.4249 9.64044 11.6815C9.05245 11.9207 8.30105 12.048 7.66735 12.0824C7.55546 12.0885 7.44008 12.1002 7.32828 12.0932C7.20522 12.0729 7.07389 12.0758 6.94903 12.0637C6.71949 12.0415 6.48893 12.0034 6.26283 11.9581C5.89873 11.8851 5.52118 11.7891 5.17118 11.665C3.47667 11.0641 1.96288 9.86524 0.792426 8.51702C0.636159 8.3377 0.482938 8.1558 0.332815 7.97132C0.247101 7.86709 0.154295 7.76328 0.0803025 7.65047C0.0187063 7.55657 -0.0173199 7.45472 0.00839166 7.34181C0.0663249 7.08738 0.34909 6.79177 0.516429 6.59366C1.01512 6.00328 1.53218 5.4677 2.12253 4.96854C2.26437 4.84862 2.40753 4.71369 2.56303 4.6123Z" fill="#939EB1"/>
<path d="M0.910852 0.829484C1.02228 0.824947 1.1316 0.860886 1.21862 0.930632C1.38641 1.06521 1.53984 1.2413 1.69247 1.3935L2.62741 2.32945L5.51463 5.21942L10.8469 10.5573L12.4675 12.1765L13.299 13.0109C13.3702 13.0822 13.4457 13.1498 13.5153 13.2227C13.5933 13.3046 13.6698 13.4029 13.681 13.5193C13.6937 13.651 13.6366 13.7775 13.5531 13.8764C13.4109 14.0449 13.2688 14.1508 13.0456 14.1707C12.9702 14.173 12.8685 14.1475 12.8071 14.103C12.6818 14.0121 12.4945 13.809 12.3816 13.6962C12.1296 13.4491 11.8802 13.1994 11.6334 12.947L9.26596 10.5894L3.65802 4.97781L2.19538 3.51014C1.60617 2.92623 1.00829 2.34742 0.431402 1.75148C0.365544 1.68345 0.314337 1.61319 0.300934 1.51648C0.283527 1.39093 0.323303 1.26853 0.397345 1.16788C0.527922 0.99038 0.691856 0.863283 0.910852 0.829484Z" fill="#939EB1"/>
<path d="M7.2819 5.15587C7.70106 5.12315 8.12047 5.2153 8.48726 5.42068C8.9816 5.69488 9.38294 6.1907 9.53629 6.73568C9.68589 7.26736 9.65975 7.87678 9.38652 8.36579C9.28588 8.28146 9.19721 8.18431 9.10339 8.09257C8.81385 7.82059 8.53746 7.53188 8.25583 7.25139L6.44922 5.43923C6.71454 5.2854 6.98236 5.20883 7.2819 5.15587Z" fill="#939EB1"/>
<path d="M5.33435 7.38867C5.40345 7.43741 5.46643 7.51262 5.52628 7.57256L5.94783 8.00063L7.44123 9.50478C7.30821 9.4729 7.16185 9.47889 7.02574 9.45325C6.64155 9.38082 6.18811 9.10302 5.92274 8.8243C5.55677 8.43994 5.32345 7.92354 5.33435 7.38867Z" fill="#939EB1"/>
</svg>
