<svg width="20" height="20" viewBox="0 0 20 20" fill="none" xmlns="http://www.w3.org/2000/svg">
<path d="M9.54658 4.01076L9.55248 4.01006C9.85267 3.98769 10.1661 4.0071 10.4665 4.02494C12.6403 4.15411 14.6189 5.15201 16.2866 6.50781C17.176 7.2413 17.9595 8.09432 18.615 9.04262C18.7246 9.19876 18.9211 9.42381 18.9342 9.61879C18.9387 9.68581 18.9004 9.7578 18.8674 9.8142C18.7806 9.96251 18.658 10.1001 18.5529 10.2369C18.2544 10.6292 17.9409 11.0099 17.6131 11.3781C15.7115 13.5151 13.3441 15.0635 10.4234 15.2346C8.15965 15.3551 5.9203 14.5369 4.1437 13.1522C3.07579 12.3199 2.13072 11.292 1.33222 10.2012C1.23709 10.0713 1.01506 9.81725 1.00127 9.6629C0.994764 9.58993 1.01382 9.51846 1.0446 9.45287C1.11016 9.31316 1.2223 9.17898 1.31146 9.05275C1.59023 8.65807 1.88037 8.26649 2.19728 7.90146C3.74502 6.11865 5.86064 4.68408 8.18968 4.18537C8.64119 4.08867 9.08712 4.04287 9.54658 4.01076ZM10.1767 13.5278C12.3436 13.4058 14.0041 11.555 13.8912 9.3877C13.7782 7.22036 11.9343 5.55217 9.76652 5.65614C7.58598 5.76072 5.90584 7.61783 6.01945 9.79793C6.13307 11.978 7.99715 13.6504 10.1767 13.5278Z" fill="white" fill-opacity="0.5"/>
<path d="M9.82879 7.26566C11.113 7.19162 12.2151 8.17059 12.293 9.4546C12.3709 10.7386 11.3952 11.8436 10.1115 11.9253C8.82221 12.0075 7.71148 11.0267 7.63326 9.73727C7.55504 8.44779 8.53907 7.34002 9.82879 7.26566Z" fill="white" fill-opacity="0.5"/>
</svg>
