<svg width="15" height="11" viewBox="0 0 15 11" fill="none" xmlns="http://www.w3.org/2000/svg">
<path d="M7.14814 0.805875L7.15307 0.80529C7.40414 0.78658 7.66629 0.802814 7.91754 0.817735C9.73564 0.92577 11.3905 1.76039 12.7853 2.89434C13.5292 3.50781 14.1845 4.22126 14.7327 5.01439C14.8244 5.14498 14.9887 5.33321 14.9997 5.49628C15.0035 5.55234 14.9714 5.61255 14.9438 5.65972C14.8712 5.78376 14.7687 5.89884 14.6808 6.01326C14.4311 6.34137 14.1689 6.65977 13.8948 6.96773C12.3043 8.75506 10.3243 10.0501 7.88149 10.1932C5.98815 10.294 4.11521 9.60966 2.62931 8.45154C1.73614 7.75542 0.945707 6.89571 0.277862 5.9834C0.198298 5.87475 0.0125982 5.66227 0.00106464 5.53318C-0.00437932 5.47215 0.0115611 5.41237 0.0373047 5.35751C0.0921373 5.24066 0.185928 5.12844 0.260499 5.02286C0.493655 4.69276 0.736321 4.36526 1.00138 4.05996C2.29587 2.56886 4.06531 1.36902 6.01326 0.951915C6.39089 0.871037 6.76386 0.832731 7.14814 0.805875ZM7.67515 8.76568C9.48749 8.66364 10.8763 7.11568 10.7819 5.30301C10.6874 3.4903 9.14516 2.09507 7.33209 2.18203C5.50834 2.2695 4.10312 3.82273 4.19814 5.64611C4.29317 7.46947 5.85224 8.86822 7.67515 8.76568Z" fill="#939EB1"/>
<path d="M7.38484 3.52771C8.45891 3.46578 9.38068 4.28457 9.44583 5.35848C9.51099 6.43238 8.69494 7.35658 7.62129 7.42491C6.54297 7.49366 5.61399 6.67334 5.54857 5.5949C5.48315 4.51641 6.30615 3.5899 7.38484 3.52771Z" fill="#939EB1"/>
</svg>
