<svg width="21" height="21" viewBox="0 0 21 21" fill="none" xmlns="http://www.w3.org/2000/svg">
<path d="M1.13074 6.81779C0.710248 6.81779 0.5 6.60065 0.5 6.16635V3.50897C0.5 2.50942 0.755055 1.75804 1.26517 1.25483C1.77528 0.751609 2.53355 0.5 3.53997 0.5H6.19738C6.63168 0.5 6.8488 0.710248 6.8488 1.13074C6.8488 1.55814 6.63168 1.77183 6.19738 1.77183H3.571C2.98506 1.77183 2.537 1.92348 2.22679 2.22679C1.92348 2.5301 1.77183 2.98162 1.77183 3.58135V6.16635C1.77183 6.60065 1.55813 6.81779 1.13074 6.81779ZM19.6395 6.81779C19.219 6.81779 19.0087 6.60065 19.0087 6.16635V3.58135C19.0087 2.98162 18.8502 2.5301 18.5331 2.22679C18.216 1.92348 17.7714 1.77183 17.1992 1.77183H14.5832C14.1489 1.77183 13.9318 1.55814 13.9318 1.13074C13.9318 0.710248 14.1489 0.5 14.5832 0.5H17.2302C18.2436 0.5 19.0053 0.755055 19.5154 1.26516C20.0255 1.76838 20.2806 2.51631 20.2806 3.50897V6.16635C20.2806 6.60065 20.0669 6.81779 19.6395 6.81779ZM3.53997 20.2702C2.53355 20.2702 1.77528 20.0152 1.26517 19.5051C0.755055 19.0018 0.5 18.2505 0.5 17.2509V14.6039C0.5 14.1696 0.710248 13.9524 1.13074 13.9524C1.55813 13.9524 1.77183 14.1696 1.77183 14.6039V17.1889C1.77183 17.7886 1.92348 18.2401 2.22679 18.5434C2.537 18.8467 2.98506 18.9984 3.571 18.9984H6.19738C6.63168 18.9984 6.8488 19.2121 6.8488 19.6395C6.8488 20.06 6.63168 20.2702 6.19738 20.2702H3.53997ZM14.5832 20.2702C14.1489 20.2702 13.9318 20.06 13.9318 19.6395C13.9318 19.2121 14.1489 18.9984 14.5832 18.9984H17.1992C17.7714 18.9984 18.216 18.8467 18.5331 18.5434C18.8502 18.2401 19.0087 17.7886 19.0087 17.1889V14.6039C19.0087 14.1696 19.219 13.9524 19.6395 13.9524C20.0669 13.9524 20.2806 14.1696 20.2806 14.6039V17.2509C20.2806 18.2505 20.0255 19.0018 19.5154 19.5051C19.0053 20.0152 18.2436 20.2702 17.2302 20.2702H14.5832ZM6.54894 9.55791C6.34903 9.55791 6.18359 9.49585 6.05262 9.37179C5.92853 9.24771 5.8665 9.07882 5.8665 8.86512V7.46921C5.8665 7.26241 5.92853 7.09697 6.05262 6.97288C6.18359 6.84191 6.34903 6.77641 6.54894 6.77641C6.74886 6.77641 6.9143 6.84191 7.04527 6.97288C7.17624 7.09697 7.24174 7.26241 7.24174 7.46921V8.86512C7.24174 9.07882 7.17624 9.24771 7.04527 9.37179C6.9143 9.49585 6.74886 9.55791 6.54894 9.55791ZM9.54756 11.9775C9.33385 11.9775 9.16844 11.9292 9.05124 11.8327C8.93406 11.7293 8.87547 11.5914 8.87547 11.4191C8.87547 11.2675 8.92371 11.1434 9.02021 11.0469C9.12362 10.9435 9.25115 10.8918 9.4028 10.8918H9.75436C9.83021 10.8918 9.89568 10.8676 9.95083 10.8194C10.0129 10.7711 10.0439 10.6988 10.0439 10.6023V7.29344C10.0439 7.128 10.0921 7.00047 10.1886 6.91085C10.2851 6.81435 10.4127 6.76609 10.5712 6.76609C10.7367 6.76609 10.8676 6.81435 10.9641 6.91085C11.0606 7.00047 11.1089 7.128 11.1089 7.29344V10.5092C11.1089 10.9917 10.9848 11.3571 10.7367 11.6052C10.4885 11.8534 10.1231 11.9775 9.64062 11.9775C9.62683 11.9775 9.60962 11.9775 9.58891 11.9775C9.57515 11.9775 9.56135 11.9775 9.54756 11.9775ZM14.1696 9.55791C13.9628 9.55791 13.7973 9.49585 13.6733 9.37179C13.5492 9.24771 13.4871 9.07882 13.4871 8.86512V7.46921C13.4871 7.26241 13.5492 7.09697 13.6733 6.97288C13.7973 6.84191 13.9628 6.77641 14.1696 6.77641C14.3695 6.77641 14.5315 6.84191 14.6556 6.97288C14.7865 7.09697 14.852 7.26241 14.852 7.46921V8.86512C14.852 9.07882 14.7865 9.24771 14.6556 9.37179C14.5315 9.49585 14.3695 9.55791 14.1696 9.55791ZM10.3127 15.3173C9.713 15.3173 9.12018 15.2001 8.53424 14.9658C7.9483 14.7245 7.45197 14.3764 7.04527 13.9214C6.99012 13.8663 6.94533 13.8077 6.91085 13.7456C6.88327 13.6767 6.86947 13.6043 6.86947 13.5285C6.86947 13.3699 6.92118 13.2424 7.02459 13.1459C7.12797 13.0494 7.2555 13.0011 7.40718 13.0011C7.50368 13.0011 7.58294 13.0218 7.645 13.0632C7.71391 13.1046 7.7863 13.1597 7.86212 13.2286C8.16544 13.5388 8.53768 13.787 8.97886 13.9731C9.42003 14.1592 9.86465 14.2523 10.3127 14.2523C10.7884 14.2523 11.2433 14.1592 11.6776 13.9731C12.1188 13.7801 12.4876 13.5319 12.784 13.2286C12.9288 13.077 13.077 13.0011 13.2286 13.0011C13.3734 13.0011 13.4975 13.0494 13.6009 13.1459C13.7043 13.2424 13.756 13.3699 13.756 13.5285C13.756 13.6181 13.7422 13.6974 13.7146 13.7663C13.687 13.8284 13.6491 13.8835 13.6009 13.9318C13.1597 14.366 12.6496 14.7073 12.0705 14.9554C11.4984 15.1967 10.9124 15.3173 10.3127 15.3173Z" fill="#FFBE00"/>
</svg>
