<svg width="20" height="20" viewBox="0 0 20 20" fill="none" xmlns="http://www.w3.org/2000/svg">
<path d="M19.0169 5.99175C19.4148 6.55833 18.9405 7.25 18.2482 7.25H1C0.447716 7.25 0 6.80228 0 6.25V4.42C0 1.98 1.98 0 4.42 0H6.74C8.37 0 8.88 0.53 9.53 1.4L10.93 3.26C11.24 3.67 11.28 3.72 11.86 3.72H14.65C16.4546 3.72 18.0516 4.61709 19.0169 5.99175Z" fill="#FFBE00"/>
<path d="M19.9834 9.74663C19.9815 9.19566 19.5343 8.75001 18.9834 8.75002L0.999984 8.75034C0.447706 8.75035 0 9.19806 0 9.75034V14.6504C0 17.6004 2.4 20.0004 5.35 20.0004H14.65C17.6 20.0004 20 17.6004 20 14.6504L19.9834 9.74663ZM12.5 14.7504H10.81V16.5004C10.81 16.9104 10.47 17.2504 10.06 17.2504C9.64 17.2504 9.31 16.9104 9.31 16.5004V14.7504H7.5C7.09 14.7504 6.75 14.4104 6.75 14.0004C6.75 13.5904 7.09 13.2504 7.5 13.2504H9.31V11.5004C9.31 11.0904 9.64 10.7504 10.06 10.7504C10.47 10.7504 10.81 11.0904 10.81 11.5004V13.2504H12.5C12.91 13.2504 13.25 13.5904 13.25 14.0004C13.25 14.4104 12.91 14.7504 12.5 14.7504Z" fill="#FFBE00"/>
</svg>
