<svg width="20" height="20" viewBox="0 0 20 20" fill="none" xmlns="http://www.w3.org/2000/svg">
<path d="M9.99589 0C10.104 0.0153512 10.1953 0.0425084 10.2849 0.105963C10.3968 0.185229 10.4837 0.299974 10.5797 0.397068C10.6908 0.509447 10.8107 0.615271 10.9261 0.723337C11.2475 1.02426 11.6142 1.29741 11.9791 1.54405C12.6673 2.00905 13.4114 2.38641 14.1942 2.66728C14.815 2.88979 15.4569 3.04932 16.11 3.14343C16.4188 3.18889 16.7299 3.21838 17.0418 3.23179C17.2264 3.24013 17.4259 3.22585 17.6077 3.25447C17.6743 3.26495 17.7423 3.29322 17.7981 3.33096C17.8848 3.38957 17.9598 3.51556 17.9764 3.61748C18.0187 3.87599 17.9913 4.23675 17.991 4.50598L17.9898 6.2379L17.9909 7.70512C17.9922 8.25229 17.9938 8.80262 17.9536 9.34856C17.7877 11.5415 17.0082 13.6447 15.7033 15.4209C15.0124 16.3637 14.1827 17.1977 13.242 17.8951C12.5855 18.3843 11.8842 18.8219 11.2055 19.2803L10.5968 19.6898C10.4526 19.7866 10.3072 19.8955 10.1487 19.9676C10.1079 19.9861 10.065 19.9929 10.0211 19.9999C9.92277 20.002 9.83418 19.9605 9.75005 19.9142C9.61107 19.8376 9.47908 19.7385 9.34762 19.6497L8.64783 19.1774C8.05441 18.7785 7.44682 18.3935 6.8684 17.9734C4.31523 16.118 2.61418 13.3256 2.14373 10.2174C2.00872 9.34354 2.00681 8.46713 2.00666 7.58541L2.0067 5.54515L2.00636 4.29668C2.00623 4.08517 1.9872 3.85122 2.0156 3.64242C2.0271 3.55963 2.06012 3.48127 2.11143 3.41506C2.16833 3.34221 2.24719 3.28937 2.33648 3.26425C2.48628 3.2235 2.66653 3.24322 2.82199 3.2375C3.04154 3.23 3.2608 3.21566 3.47945 3.19451C4.89319 3.04849 6.25841 2.6002 7.48133 1.88042C8.06061 1.53526 8.60521 1.13559 9.10752 0.6869C9.2298 0.576237 9.34596 0.460173 9.46171 0.342844C9.5439 0.25952 9.62496 0.166661 9.71979 0.0976321C9.8083 0.0331835 9.88821 0.0120073 9.99589 0ZM9.26366 10.2589C9.005 10.0123 8.77235 9.73638 8.52679 9.47705C8.39517 9.33804 8.26313 9.17771 8.09592 9.08015C7.97331 9.00863 7.83255 8.97646 7.69088 8.9802C7.45074 8.98653 7.23954 9.08438 7.07489 9.25773C6.92727 9.41313 6.84521 9.63648 6.85302 9.84976C6.85757 9.97341 6.89048 10.0944 6.94922 10.2035C7.08208 10.4486 7.53946 10.8751 7.74756 11.109C7.865 11.2422 7.99195 11.3681 8.11262 11.4986C8.29294 11.6936 8.57801 12.0401 8.78495 12.1763C8.90872 12.2573 9.0513 12.3054 9.19909 12.3161C9.42058 12.3303 9.61706 12.246 9.78002 12.1021C10.0035 11.9047 10.1961 11.6745 10.3969 11.4552L11.3604 10.4145L12.3552 9.34305L12.8005 8.86157C12.8854 8.76856 12.9739 8.68152 13.0457 8.57734C13.1211 8.46783 13.1584 8.31563 13.1657 8.18426C13.1779 7.96482 13.1208 7.76328 12.9695 7.59954C12.8267 7.44492 12.6103 7.33927 12.3983 7.32978C12.3474 7.32748 12.2954 7.33204 12.2445 7.33458C12.1055 7.36593 11.9857 7.40265 11.8722 7.4913C11.6214 7.68725 11.4093 7.97266 11.1885 8.20291C10.8475 8.55865 10.5163 8.92314 10.1811 9.28427C9.87771 9.61117 9.56589 9.93089 9.26366 10.2589Z" fill="url(#paint0_linear_3101_1465)"/>
<defs>
<linearGradient id="paint0_linear_3101_1465" x1="16.3146" y1="15.1435" x2="4.04954" y2="1.66118" gradientUnits="userSpaceOnUse">
<stop stop-color="#FFBE00"/>
<stop offset="1" stop-color="#FFDB70"/>
</linearGradient>
</defs>
</svg>
