<svg width="29" height="28" viewBox="0 0 29 28" fill="none" xmlns="http://www.w3.org/2000/svg">
<path d="M23.5056 7.95663L16.7856 3.25497C14.9539 1.97163 12.1423 2.04163 10.3806 3.40663L4.5356 7.9683C3.36893 8.8783 2.44727 10.745 2.44727 12.215V20.265C2.44727 23.24 4.86227 25.6666 7.83727 25.6666H20.4139C23.3889 25.6666 25.8039 23.2516 25.8039 20.2766V12.3666C25.8039 10.7916 24.7889 8.85497 23.5056 7.95663Z" fill="#7E651A"/>
<path d="M14.125 21.875C13.6467 21.875 13.25 21.4783 13.25 21V17.5C13.25 17.0217 13.6467 16.625 14.125 16.625C14.6033 16.625 15 17.0217 15 17.5V21C15 21.4783 14.6033 21.875 14.125 21.875Z" fill="#FFBE00"/>
</svg>
