<svg width="29" height="29" viewBox="0 0 29 29" fill="none" xmlns="http://www.w3.org/2000/svg">
<path d="M20.54 25.4765H8.96C6.22 25.4765 4 23.2465 4 20.5065V13.0965C4 11.7365 4.84 10.0265 5.92 9.18654L11.31 4.98654C12.93 3.72654 15.52 3.66654 17.2 4.84654L23.38 9.17654C24.57 10.0065 25.5 11.7865 25.5 13.2365V20.5165C25.5 23.2465 23.28 25.4765 20.54 25.4765ZM12.23 6.16654L6.84 10.3665C6.13 10.9265 5.5 12.1965 5.5 13.0965V20.5065C5.5 22.4165 7.05 23.9765 8.96 23.9765H20.54C22.45 23.9765 24 22.4265 24 20.5165V13.2365C24 12.2765 23.31 10.9465 22.52 10.4065L16.34 6.07654C15.2 5.27654 13.32 5.31654 12.23 6.16654Z" fill="currentColor"/>
<path d="M14.75 21.4766C14.34 21.4766 14 21.1366 14 20.7266V17.7266C14 17.3166 14.34 16.9766 14.75 16.9766C15.16 16.9766 15.5 17.3166 15.5 17.7266V20.7266C15.5 21.1366 15.16 21.4766 14.75 21.4766Z" fill="currentColor"/>
</svg>
