<svg width="12" height="12" viewBox="0 0 12 12" fill="none" xmlns="http://www.w3.org/2000/svg">
<g clip-path="url(#clip0_1069_1322)">
<mask id="mask0_1069_1322" style="mask-type:luminance" maskUnits="userSpaceOnUse" x="0" y="0" width="12" height="12">
<path d="M12 0H0V12H12V0Z" fill="white"/>
</mask>
<g mask="url(#mask0_1069_1322)">
<path d="M5.81436 0.00292839C9.12603 -0.0995762 11.8939 2.50162 11.997 5.81325C12.1001 9.12487 9.49947 11.8933 6.18785 11.997C2.87537 12.1008 0.106119 9.49924 0.00296388 6.18675C-0.100187 2.87424 2.50184 0.105458 5.81436 0.00292839ZM5.46913 5.21896C5.49785 5.23854 5.52769 5.25542 5.53322 5.29303C5.54964 5.40477 5.53803 5.53001 5.5377 5.64343L5.53703 6.31432L5.53747 7.65744C5.53753 7.88577 5.54472 8.1167 5.53676 8.34476C5.53559 8.37865 5.53698 8.40824 5.51387 8.4355C5.50219 8.44933 5.48414 8.45967 5.4691 8.46946C5.32204 8.48179 5.10999 8.4381 5.00258 8.56142C4.93394 8.64028 4.94526 9.01924 4.95606 9.12337C4.96344 9.19438 4.9887 9.2666 5.04484 9.31388C5.07868 9.34236 5.11525 9.35159 5.15809 9.35768C5.30213 9.37803 5.45946 9.36619 5.605 9.36619C5.83515 9.36619 6.06647 9.37084 6.29646 9.36531C6.44605 9.36608 6.7868 9.38367 6.91554 9.35878C6.96509 9.34927 7.0127 9.32748 7.04964 9.29265C7.14426 9.20334 7.12518 9.06415 7.12551 8.94597C7.1259 8.81624 7.15123 8.62374 7.0482 8.52625C6.9214 8.40614 6.69871 8.55163 6.56853 8.41991L6.56704 8.40885C6.5525 8.2983 6.56079 8.18052 6.56079 8.06892L6.56096 7.45377L6.56085 5.3541L6.56112 4.85001C6.5614 4.74629 6.57014 4.63378 6.55289 4.53161C6.54271 4.47115 6.50748 4.41834 6.4602 4.38009C6.41829 4.34614 6.35237 4.33217 6.29939 4.32581C6.16678 4.30989 6.02356 4.31981 5.88995 4.31987C5.663 4.31997 5.43557 4.31693 5.2087 4.32205C5.12545 4.33735 5.04996 4.35394 4.99983 4.42956C4.97559 4.46613 4.9641 4.51221 4.95827 4.55527C4.94511 4.65244 4.94213 4.95209 4.96279 5.04141C4.97505 5.0944 5.00381 5.15276 5.05111 5.18287C5.15349 5.24803 5.34986 5.21707 5.46913 5.21896ZM6.09279 3.59915C6.49465 3.54345 6.77591 3.1733 6.72194 2.77115C6.66791 2.36902 6.29895 2.08619 5.89659 2.13851C5.49181 2.19114 5.20692 2.56279 5.26126 2.96734C5.3156 3.3719 5.68844 3.65519 6.09279 3.59915Z" fill="white"/>
</g>
</g>
<defs>
<clipPath id="clip0_1069_1322">
<rect width="12" height="12" fill="white"/>
</clipPath>
</defs>
</svg>
