<svg width="20" height="20" viewBox="0 0 20 20" fill="none" xmlns="http://www.w3.org/2000/svg">
<path d="M17.7881 2.213C14.8288 -0.737667 10.03 -0.737667 7.09078 2.213C5.02131 4.26347 4.40147 7.21413 5.20126 9.81472L0.50246 14.5158C0.172544 14.8559 -0.0573977 15.526 0.0125845 16.0061L0.312508 18.1866C0.42248 18.9068 1.09231 19.5869 1.81213 19.687L3.99157 19.987C4.47145 20.057 5.14128 19.837 5.48119 19.4869L6.30098 18.6667C6.50093 18.4767 6.50093 18.1566 6.30098 17.9566L4.36148 16.0161C4.07155 15.7261 4.07155 15.246 4.36148 14.9559C4.6514 14.6658 5.13128 14.6658 5.42121 14.9559L7.37071 16.9063C7.56066 17.0964 7.88058 17.0964 8.07053 16.9063L10.19 14.7959C12.7793 15.606 15.7286 14.9759 17.7881 12.9254C20.7373 9.97476 20.7373 5.16367 17.7881 2.213ZM12.4994 9.99476C11.1198 9.99476 10 8.87451 10 7.4942C10 6.11389 11.1198 4.99363 12.4994 4.99363C13.8791 4.99363 14.9988 6.11389 14.9988 7.4942C14.9988 8.87451 13.8791 9.99476 12.4994 9.99476Z" fill="#FFBE00"/>
</svg>
