<svg width="31" height="31" viewBox="0 0 31 31" fill="none" xmlns="http://www.w3.org/2000/svg">
<g clip-path="url(#clip0_3181_741)">
<path d="M20.0336 5.50507C20.4683 5.48702 20.9037 5.51719 21.3314 5.59503C22.6585 5.83955 23.8474 6.64438 24.6039 7.72437C25.3796 8.81529 25.6684 10.1647 25.4047 11.4658C25.283 12.0756 25.0369 12.6798 24.6611 13.1849C24.372 13.5736 23.9851 13.9096 23.6366 14.2474L22.1652 15.6768L20.3189 17.478C19.8493 17.9368 19.3879 18.4545 18.8329 18.8146C17.8449 19.4556 16.5945 19.6338 15.4412 19.4043C14.6105 19.239 13.9338 18.8341 13.2836 18.3212C13.0733 18.1554 12.8521 17.985 12.7029 17.7622C12.519 17.4896 12.4567 17.1561 12.5301 16.838C12.602 16.539 12.7922 16.2796 13.0597 16.1161C13.2396 16.0069 13.4418 15.9544 13.6527 15.9468C14.3725 15.9212 14.6464 16.3914 15.1966 16.7165C15.4102 16.8427 15.6267 16.9077 15.8691 16.9604C16.2372 17.0159 16.6051 17.0044 16.9627 16.8955C17.2539 16.8068 17.5019 16.6697 17.7366 16.481C18.0882 16.1982 18.4028 15.8582 18.7223 15.5421L20.2267 14.0511C20.6633 13.6175 21.1034 13.1871 21.5468 12.7602C21.806 12.5086 22.0755 12.2618 22.3181 11.9949C22.4495 11.8503 22.5652 11.6961 22.6562 11.5245C22.9278 11.0125 22.9735 10.3549 22.7937 9.80783C22.5764 9.14865 22.0968 8.6014 21.462 8.28795C20.6427 7.87363 19.6526 7.94693 18.9074 8.47703C18.5686 8.71821 18.2748 9.04614 17.9792 9.33608L16.6986 10.5917C16.546 10.7396 16.2949 11.0256 16.078 11.0652C15.9529 11.088 15.7717 11.0538 15.6478 11.0278C15.3544 10.9663 15.0722 10.8496 14.7823 10.7728C14.4554 10.6863 14.1164 10.6363 13.7919 10.5428C13.736 10.5267 13.6849 10.5062 13.6367 10.4737C13.5749 10.432 13.5296 10.3736 13.5204 10.2995C13.5039 10.1666 13.596 10.0433 13.6783 9.94667C13.8556 9.73869 14.0746 9.55043 14.2708 9.35812C14.6548 8.97957 15.0411 8.60315 15.4296 8.22904C15.9602 7.71893 16.4951 7.1419 17.0525 6.66985C17.274 6.47848 17.5146 6.30911 17.7708 6.16428C18.4884 5.75852 19.2141 5.57803 20.0336 5.50507Z" fill="currentColor"/>
<path d="M13.4629 11.5042C13.8094 11.4881 14.1662 11.5189 14.5075 11.5845C15.3846 11.7529 15.9692 12.1911 16.6381 12.7734C16.875 12.9797 17.1238 13.1875 17.2992 13.4565C17.4711 13.72 17.5378 14.0309 17.4792 14.3455C17.4152 14.686 17.222 14.9844 16.9439 15.1721C16.5019 15.4755 15.94 15.4028 15.5084 15.1165C15.2351 14.9353 15.0025 14.695 14.7241 14.5202C14.507 14.3838 14.2666 14.2952 14.0188 14.2441C13.4694 14.1333 12.9007 14.2575 12.4391 14.589C12.0319 14.8802 11.679 15.3158 11.3313 15.6812L9.68772 17.4087L8.85678 18.282C8.66782 18.4803 8.46565 18.6742 8.30544 18.8995C8.08889 19.208 7.94163 19.5639 7.87466 19.9405C7.7675 20.5611 7.90591 21.2539 8.25249 21.7703C8.64246 22.3514 9.22899 22.7866 9.9041 22.9053C11.0533 23.1074 11.7611 22.4255 12.5057 21.6381L13.3177 20.7881C13.488 20.6111 13.6593 20.3943 13.8555 20.2519C13.9562 20.1789 14.0446 20.1515 14.1669 20.1551C14.4523 20.1633 14.7661 20.3146 15.0383 20.4028C15.2316 20.4663 15.4282 20.5181 15.6271 20.5581C15.8403 20.6015 16.1258 20.6096 16.3118 20.7304C16.3675 20.7666 16.4082 20.814 16.4199 20.8838C16.4401 21.0038 16.3647 21.1289 16.2966 21.2172C16.1466 21.4118 15.961 21.5852 15.7915 21.7613C15.5073 22.0552 15.2247 22.3505 14.9435 22.6474C13.6642 24.0007 12.8164 25.2671 10.8303 25.471C9.54252 25.6163 8.2532 25.2114 7.2534 24.3476C6.2543 23.4774 5.63043 22.2225 5.52209 20.8648C5.40704 19.5674 5.74064 18.0991 6.54203 17.0887C6.7551 16.82 6.99934 16.5765 7.23402 16.3286L8.3918 15.1185C8.89992 14.5821 9.41143 14.0492 9.92625 13.52C10.4044 13.0321 10.8685 12.5372 11.4435 12.1723C12.0773 11.7702 12.7307 11.5749 13.4629 11.5042Z" fill="currentColor"/>
</g>
<defs>
<clipPath id="clip0_3181_741">
<rect width="20" height="20" fill="white" transform="translate(5.5 5.5)"/>
</clipPath>
</defs>
</svg>
