<svg width="21" height="21" viewBox="0 0 21 21" fill="none" xmlns="http://www.w3.org/2000/svg">
<path d="M10.5 15.85C11.4002 15.85 12.13 15.1202 12.13 14.22C12.13 13.3198 11.4002 12.59 10.5 12.59C9.59978 12.59 8.87 13.3198 8.87 14.22C8.87 15.1202 9.59978 15.85 10.5 15.85Z" fill="#FFBE00"/>
<path d="M16.78 8.03V6.78C16.78 4.08 16.13 0.5 10.5 0.5C4.87 0.5 4.22 4.08 4.22 6.78V8.03C1.42 8.38 0.5 9.8 0.5 13.29V15.15C0.5 19.25 1.75 20.5 5.85 20.5H15.15C19.25 20.5 20.5 19.25 20.5 15.15V13.29C20.5 9.8 19.58 8.38 16.78 8.03ZM10.5 17.24C8.83 17.24 7.48 15.88 7.48 14.22C7.48 12.55 8.84 11.2 10.5 11.2C12.16 11.2 13.52 12.56 13.52 14.22C13.52 15.89 12.17 17.24 10.5 17.24ZM5.85 7.94C5.77 7.94 5.7 7.94 5.62 7.94V6.78C5.62 3.85 6.45 1.9 10.5 1.9C14.55 1.9 15.38 3.85 15.38 6.78V7.95C15.3 7.95 15.23 7.95 15.15 7.95H5.85V7.94Z" fill="#FFBE00"/>
</svg>
