<svg width="21" height="21" viewBox="0 0 21 21" fill="none" xmlns="http://www.w3.org/2000/svg">
<path d="M15.5 1.5H5.5C2.5 1.5 0.5 3.48608 0.5 6.4652V12.4234C0.5 15.4026 2.5 17.3886 5.5 17.3886V19.5038C5.5 20.2982 6.39 20.7749 7.05 20.328L11.5 17.3886H15.5C18.5 17.3886 20.5 15.4026 20.5 12.4234V6.4652C20.5 3.48608 18.5 1.5 15.5 1.5ZM10.5 13.5853C10.08 13.5853 9.75 13.2477 9.75 12.8405C9.75 12.4334 10.08 12.0957 10.5 12.0957C10.92 12.0957 11.25 12.4334 11.25 12.8405C11.25 13.2477 10.92 13.5853 10.5 13.5853ZM11.76 9.46418C11.37 9.72237 11.25 9.89118 11.25 10.1692V10.3778C11.25 10.7849 10.91 11.1226 10.5 11.1226C10.09 11.1226 9.75 10.7849 9.75 10.3778V10.1692C9.75 9.01731 10.6 8.45128 10.92 8.23281C11.29 7.98455 11.41 7.81573 11.41 7.55754C11.41 7.06102 11 6.65388 10.5 6.65388C10 6.65388 9.59 7.06102 9.59 7.55754C9.59 7.96469 9.25 8.30232 8.84 8.30232C8.43 8.30232 8.09 7.96469 8.09 7.55754C8.09 6.2368 9.17 5.16432 10.5 5.16432C11.83 5.16432 12.91 6.2368 12.91 7.55754C12.91 8.68961 12.07 9.25564 11.76 9.46418Z" fill="#FFBE00"/>
</svg>
