<svg width="21" height="21" viewBox="0 0 21 21" fill="none" xmlns="http://www.w3.org/2000/svg">
<path d="M14.74 0.5H6.26C3.5 0.5 2.5 1.5 2.5 4.31V16.69C2.5 19.5 3.5 20.5 6.26 20.5H14.73C17.5 20.5 18.5 19.5 18.5 16.69V4.31C18.5 1.5 17.5 0.5 14.74 0.5ZM10.5 17.8C9.54 17.8 8.75 17.01 8.75 16.05C8.75 15.09 9.54 14.3 10.5 14.3C11.46 14.3 12.25 15.09 12.25 16.05C12.25 17.01 11.46 17.8 10.5 17.8ZM12.5 4.75H8.5C8.09 4.75 7.75 4.41 7.75 4C7.75 3.59 8.09 3.25 8.5 3.25H12.5C12.91 3.25 13.25 3.59 13.25 4C13.25 4.41 12.91 4.75 12.5 4.75Z" fill="#FFBE00"/>
</svg>
