<svg width="25" height="25" viewBox="0 0 25 25" fill="none" xmlns="http://www.w3.org/2000/svg">
<path d="M22.9193 10.1569C22.4922 10.1569 22.138 9.80274 22.138 9.37565V7.29232C22.138 4.60482 20.3984 2.86523 17.7109 2.86523H7.29427C4.60677 2.86523 2.86719 4.60482 2.86719 7.29232V9.37565C2.86719 9.80274 2.51302 10.1569 2.08594 10.1569C1.65885 10.1569 1.30469 9.80274 1.30469 9.37565V7.29232C1.30469 3.70898 3.71094 1.30273 7.29427 1.30273H17.7109C21.2943 1.30273 23.7005 3.70898 23.7005 7.29232V9.37565C23.7005 9.80274 23.3464 10.1569 22.9193 10.1569Z" fill="#939EB1"/>
<path d="M17.7109 23.6979H7.29427C3.71094 23.6979 1.30469 21.2917 1.30469 17.7083V15.625C1.30469 15.1979 1.65885 14.8438 2.08594 14.8438C2.51302 14.8438 2.86719 15.1979 2.86719 15.625V17.7083C2.86719 20.3958 4.60677 22.1354 7.29427 22.1354H17.7109C20.3984 22.1354 22.138 20.3958 22.138 17.7083V15.625C22.138 15.1979 22.4922 14.8438 22.9193 14.8438C23.3464 14.8438 23.7005 15.1979 23.7005 15.625V17.7083C23.7005 21.2917 21.2943 23.6979 17.7109 23.6979Z" fill="#939EB1"/>
<path d="M22.9193 13.2812H2.08594C1.65885 13.2812 1.30469 12.9271 1.30469 12.5C1.30469 12.0729 1.65885 11.7188 2.08594 11.7188H22.9193C23.3464 11.7188 23.7005 12.0729 23.7005 12.5C23.7005 12.9271 23.3464 13.2812 22.9193 13.2812Z" fill="#939EB1"/>
</svg>
