<svg width="31" height="31" viewBox="0 0 31 31" fill="none" xmlns="http://www.w3.org/2000/svg">
<path d="M12.5254 5.5C9.91078 5.5 7.78516 7.63 7.78516 10.25C7.78516 12.82 9.79103 14.9 12.4056 14.99C12.4855 14.98 12.5653 14.98 12.6252 14.99C12.6452 14.99 12.6551 14.99 12.6751 14.99C12.6851 14.99 12.6851 14.99 12.695 14.99C15.2498 14.9 17.2557 12.82 17.2656 10.25C17.2656 7.63 15.14 5.5 12.5254 5.5Z" fill="#33373D"/>
<path d="M17.5951 17.6489C14.8108 15.7889 10.2702 15.7889 7.46595 17.6489C6.19856 18.4989 5.5 19.6489 5.5 20.8789C5.5 22.1089 6.19856 23.2489 7.45597 24.0889C8.8531 25.0289 10.6893 25.4989 12.5255 25.4989C14.3618 25.4989 16.198 25.0289 17.5951 24.0889C18.8525 23.2389 19.5511 22.0989 19.5511 20.8589C19.5411 19.6289 18.8525 18.4889 17.5951 17.6489Z" fill="#33373D"/>
<path d="M23.4929 10.8381C23.6526 12.7781 22.2754 14.4781 20.3694 14.7081C20.3594 14.7081 20.3594 14.7081 20.3494 14.7081H20.3195C20.2596 14.7081 20.1997 14.7081 20.1498 14.7281C19.1818 14.7781 18.2936 14.4681 17.625 13.8981C18.6529 12.9781 19.2417 11.5981 19.1219 10.0981C19.0521 9.28815 18.7726 8.54815 18.3535 7.91815C18.7327 7.72815 19.1718 7.60815 19.6209 7.56815C21.5769 7.39815 23.3233 8.85815 23.4929 10.8381Z" fill="#33373D"/>
<path d="M25.4894 20.0904C25.4096 21.0604 24.7909 21.9004 23.753 22.4704C22.7551 23.0204 21.4976 23.2804 20.2502 23.2504C20.9687 22.6004 21.3879 21.7904 21.4677 20.9304C21.5675 19.6904 20.9787 18.5004 19.8011 17.5504C19.1325 17.0204 18.3541 16.6004 17.5059 16.2904C19.7113 15.6504 22.4856 16.0804 24.1921 17.4604C25.1102 18.2004 25.5792 19.1304 25.4894 20.0904Z" fill="#33373D"/>
</svg>
