<svg width="25" height="30" viewBox="0 0 25 30" fill="none" xmlns="http://www.w3.org/2000/svg">
<g clip-path="url(#clip0_5474_2216)">
<path d="M0 9C0 5.84971 0 4.27456 0.616944 3.07131C1.15962 2.01289 2.02555 1.15237 3.09062 0.613088C4.30144 0 5.88649 0 9.0566 0H12.8247C14.1175 0 14.7639 0 15.3767 0.136852C15.9203 0.258222 16.4427 0.458661 16.9274 0.731687C17.4738 1.03954 17.9525 1.47113 18.91 2.33433L20.8962 4.125L22.1999 5.51889C23.0954 6.47635 23.5431 6.95509 23.8626 7.50439C24.146 7.99151 24.3542 8.51814 24.4804 9.06668C24.6226 9.68522 24.6226 10.3387 24.6226 11.6459V21C24.6226 24.1503 24.6226 25.7255 24.0057 26.9287C23.463 27.9871 22.5971 28.8476 21.532 29.3869C20.3212 30 18.7361 30 15.566 30H9.0566C5.88649 30 4.30144 30 3.09062 29.3869C2.02555 28.8476 1.15962 27.9871 0.616944 26.9287C0 25.7255 0 24.1503 0 21V9Z" fill="#EB3932"/>
<path d="M17.3331 7.5937C18.7365 8.98835 20.1961 8.79663 21.4984 8.79817C23.1764 8.80017 24.4138 8.73691 24.4138 8.73691C24.4138 8.73691 24.2907 8.06341 23.7102 7.233C23.0281 6.25722 21.8187 5.04636 20.976 4.18451C20.0688 3.25685 18.6402 1.96161 17.7199 1.23276C17.1092 0.749225 16.7749 0.625 16.7749 0.625C16.7749 0.625 16.2157 2.25618 16.3069 4.20719C16.3567 5.2736 16.198 6.46568 17.3331 7.5937Z" fill="#FE5B4D"/>
<path d="M9.33999 11.7188H7.4532C6.41115 11.7188 5.56641 12.5582 5.56641 13.5938V16.4062C5.56641 17.4418 6.41115 18.2812 7.4532 18.2812H9.33999C10.382 18.2812 11.2268 17.4418 11.2268 16.4062V13.5938C11.2268 12.5582 10.382 11.7188 9.33999 11.7188Z" fill="white"/>
<path d="M18.1589 11.7188H13.9136C13.2623 11.7188 12.7344 12.2434 12.7344 12.8906C12.7344 13.5378 13.2623 14.0625 13.9136 14.0625H18.1589C18.8102 14.0625 19.3381 13.5378 19.3381 12.8906C19.3381 12.2434 18.8102 11.7188 18.1589 11.7188Z" fill="white"/>
<path d="M18.1589 15.9375H13.9136C13.2623 15.9375 12.7344 16.4622 12.7344 17.1094C12.7344 17.7566 13.2623 18.2812 13.9136 18.2812H18.1589C18.8102 18.2812 19.3381 17.7566 19.3381 17.1094C19.3381 16.4622 18.8102 15.9375 18.1589 15.9375Z" fill="white"/>
<path d="M18.1607 20.1562H6.74565C6.09437 20.1562 5.56641 20.6809 5.56641 21.3281C5.56641 21.9753 6.09437 22.5 6.74565 22.5H18.1607C18.812 22.5 19.34 21.9753 19.34 21.3281C19.34 20.6809 18.812 20.1562 18.1607 20.1562Z" fill="white"/>
</g>
<defs>
<clipPath id="clip0_5474_2216">
<rect width="25" height="30" fill="white"/>
</clipPath>
</defs>
</svg>
