<svg width="18" height="20" viewBox="0 0 18 20" fill="none" xmlns="http://www.w3.org/2000/svg">
<g clip-path="url(#clip0_4320_2898)">
<mask id="mask0_4320_2898" style="mask-type:luminance" maskUnits="userSpaceOnUse" x="0" y="0" width="18" height="20">
<path d="M0 5.38182C0 3.49801 0 2.5561 0.359355 1.83658C0.675452 1.20367 1.17984 0.689097 1.80021 0.366615C2.50548 0 3.42874 0 5.27525 0H12.7248C14.5713 0 15.4945 0 16.1998 0.366615C16.8202 0.689097 17.3246 1.20367 17.6406 1.83658C18 2.5561 18 3.49801 18 5.38182V20H0V5.38182Z" fill="white"/>
</mask>
<g mask="url(#mask0_4320_2898)">
<path d="M0 3.29269C0 1.47418 1.46033 0 3.26173 0H14.7383C16.5397 0 18 1.47418 18 3.29269V19.7561C18 19.8908 17.8919 20 17.7584 20H0.241612C0.108173 20 0 19.8908 0 19.7561V3.29269Z" fill="#F1B90C" fill-opacity="0.15"/>
</g>
<mask id="mask1_4320_2898" style="mask-type:luminance" maskUnits="userSpaceOnUse" x="0" y="0" width="18" height="20">
<path d="M18 0H0V20H18V0Z" fill="white"/>
</mask>
<g mask="url(#mask1_4320_2898)">
<path d="M2.93409 0H15.0382C15.2036 0.0426749 15.379 0.0576773 15.5762 0.112745C16.2136 0.293462 16.7846 0.667257 17.2164 1.18638C17.6514 1.70766 17.9948 2.46191 17.9977 3.16513C17.9985 3.31795 17.998 3.47129 17.998 3.62414V4.95236L17.9979 9.49836L17.9977 16.8706L17.9976 19.2406L17.9986 19.9708C17.9989 20.1168 18.0037 20.2903 17.9938 20.433C17.9139 20.5415 17.8525 20.5438 17.7292 20.5502C17.582 20.5576 17.4795 20.4313 17.4776 20.2857C17.4759 20.1313 17.4784 19.9755 17.4785 19.8206L17.4792 18.8485V15.8135V6.53457L17.4794 4.35816C17.4794 3.96547 17.498 3.32465 17.4385 2.9612C17.3469 2.40393 17.0989 1.88716 16.7255 1.47564C16.2164 0.908795 15.508 0.579669 14.7614 0.56308C14.4604 0.555841 14.1371 0.561791 13.8348 0.561793L12.0742 0.561764L6.76804 0.561675L4.31712 0.561446L3.60552 0.561462C3.32941 0.561591 3.10462 0.555752 2.83205 0.605009C2.29005 0.703334 1.7883 0.966227 1.39025 1.36045C0.961476 1.7848 0.674575 2.34021 0.571403 2.94568C0.520441 3.24725 0.529252 3.49195 0.529547 3.79614L0.530622 4.64145L0.532674 7.54386L0.54851 16.1332L0.551315 18.8995C0.551648 19.3465 0.55453 19.7953 0.552848 20.2426C0.552433 20.3515 0.537707 20.4199 0.459263 20.5004C0.396454 20.5648 0.231284 20.5424 0.142039 20.538C0.0900749 20.4976 0.0203061 20.4265 0.0134016 20.3585C-0.00593506 20.1684 0.00131641 19.9471 0.00140008 19.755L0.00206316 18.5532L0.00218154 13.9415L0.00216521 6.48149L0.0020877 4.16275L0.00142455 3.456C0.0013409 3.31508 -0.00407216 3.10485 0.011153 2.97122C0.0685182 2.46758 0.270596 1.94098 0.541575 1.52345C0.956629 0.881904 1.56621 0.402549 2.27367 0.161406C2.50268 0.0842905 2.69838 0.0478007 2.93409 0Z" fill="#FFBE00"/>
<path d="M6.93825 1.2459C7.08952 1.22903 7.42531 1.23956 7.59426 1.23972L8.85977 1.24049L10.3112 1.23988C10.4864 1.23985 10.6639 1.2415 10.839 1.23999C11.0522 1.23813 11.216 1.25184 11.3986 1.37812C11.5733 1.49957 11.6929 1.68644 11.7308 1.89729C11.7699 2.10812 11.7235 2.32596 11.6023 2.50203C11.466 2.70044 11.2875 2.79522 11.0577 2.83793C10.8955 2.85573 10.5305 2.84569 10.3508 2.8457H9.01356L7.66997 2.84545C7.43332 2.84545 7.18354 2.85221 6.94841 2.83617C6.80685 2.82649 6.69367 2.78145 6.57718 2.69812C6.40626 2.57543 6.29025 2.38948 6.25441 2.18078C6.21647 1.96528 6.26773 1.74349 6.39618 1.56725C6.53201 1.37922 6.71408 1.28217 6.93825 1.2459Z" fill="#FFBE00"/>
</g>
<path d="M11.3149 5.00773C11.5263 4.99906 11.7596 5.00483 11.9732 5.00498L13.1078 5.00489L13.8945 5.00422C14.1426 5.00396 14.3989 4.99263 14.6419 5.04227C14.9218 5.09989 15.1826 5.22736 15.3999 5.41285C15.7279 5.68992 15.9595 6.13332 15.9918 6.56072C16.0056 6.74327 16.0001 6.96507 15.9999 7.15211L16 8.08027L16.0004 8.98569C16.0004 9.23333 16.0122 9.48406 15.9669 9.72802C15.8548 10.3316 15.4197 10.84 14.8397 11.0419C14.6773 11.0984 14.5336 11.1172 14.3628 11.1312C13.7316 11.1473 13.0387 11.1326 12.4026 11.1328L11.6957 11.1332C11.1404 11.1333 10.7222 11.1219 10.2726 10.7315C9.91504 10.4217 9.69776 9.98057 9.66999 9.50827C9.65952 9.35004 9.66609 9.13114 9.66617 8.96619L9.66672 7.98141L9.66608 7.06756C9.66597 6.83749 9.65405 6.556 9.69862 6.33504C9.75608 6.05038 9.88734 5.78581 10.0793 5.56786C10.4092 5.19673 10.8298 5.03848 11.3149 5.00773Z" fill="#F1B90C" fill-opacity="0.15"/>
<path d="M3.64614 5.00777C3.84074 4.99244 4.09379 5.00452 4.29264 5.00456L5.44461 5.00482L6.22688 5.00459C6.47155 5.00436 6.73352 4.99314 6.9722 5.04269C7.25802 5.10195 7.52394 5.23325 7.74479 5.42409C8.08761 5.71693 8.29652 6.13663 8.32348 6.58668C8.33639 6.77128 8.33042 6.99606 8.33026 7.18359L8.33033 8.14142L8.33078 9.01436C8.33087 9.26677 8.34352 9.55225 8.29175 9.79613C8.23068 10.0791 8.09786 10.3416 7.90604 10.5584C7.58214 10.9263 7.2061 11.1006 6.72035 11.1322C6.03264 11.1394 5.33395 11.1327 4.64527 11.1331L3.99066 11.1334C3.78637 11.1333 3.55425 11.1387 3.35433 11.0996C3.08181 11.0456 2.82745 10.9233 2.615 10.7443C2.26239 10.4433 2.04828 10.0383 2.01278 9.57424C1.99942 9.39952 2.00596 9.18634 2.00605 9.00718L2.0066 8.05142L2.00544 7.11525C2.00519 6.88062 1.99357 6.58087 2.03841 6.35739C2.09449 6.07403 2.22282 5.80995 2.41095 5.59078C2.73386 5.21774 3.16328 5.04469 3.64614 5.00777Z" fill="#FEBA00"/>
<path d="M11.284 12.2899C11.4123 12.2753 11.6089 12.2859 11.7414 12.2862L12.5586 12.2865L13.7496 12.2859C14.016 12.2857 14.3831 12.2735 14.6372 12.3236C14.9073 12.3763 15.1601 12.4953 15.3729 12.6698C15.7251 12.9609 15.9466 13.3806 15.9882 13.8356C16.0043 13.9981 15.9987 14.2075 15.9987 14.3749L15.9986 15.2235L15.9991 16.1962C15.9992 16.456 16.0123 16.7676 15.9618 17.0166C15.9051 17.2919 15.782 17.5492 15.6031 17.7661C15.2844 18.1516 14.8914 18.3416 14.3999 18.3873L12.2232 18.3879L11.6053 18.3883C11.3963 18.3883 11.1993 18.3966 10.993 18.3542C10.7224 18.2959 10.4706 18.1715 10.2599 17.9921C9.90711 17.6931 9.69101 17.2635 9.66119 16.802C9.6492 16.6386 9.655 16.4255 9.65502 16.2567L9.65541 15.3158L9.654 14.3976C9.65357 14.1488 9.64112 13.8535 9.69167 13.6135C9.75181 13.3366 9.88075 13.0793 10.0666 12.8655C10.3977 12.4862 10.7912 12.3245 11.284 12.2899Z" fill="#F1B90C" fill-opacity="0.15"/>
<path d="M3.51409 12.299C3.61606 12.2874 3.88324 12.2944 3.99157 12.2946L4.89198 12.2949L6.20297 12.2941C6.40612 12.2939 6.78297 12.2826 6.97124 12.3144C7.22715 12.3576 7.46866 12.4626 7.67479 12.6203C8.02352 12.8858 8.25202 13.2794 8.30967 13.7138C8.34749 13.9944 8.32583 14.2521 8.32431 14.5316C8.32479 15.0583 8.32284 15.5853 8.32517 16.112C8.32647 16.4037 8.35301 16.7154 8.29918 17.0038C8.24823 17.2723 8.13448 17.525 7.96725 17.7412C7.67364 18.1208 7.28434 18.3182 6.81565 18.3796C6.64134 18.3959 6.37521 18.3882 6.19196 18.3882L5.1203 18.3879L4.09034 18.3884C3.86617 18.3885 3.56259 18.3994 3.35198 18.3605C3.09159 18.3105 2.84749 18.1972 2.64115 18.0307C2.28925 17.7496 2.06347 17.3403 2.01348 16.8927C1.99398 16.7072 2.00122 16.4865 2.00172 16.2967L2.00206 15.4552L2.00299 14.4417C2.00315 14.1937 1.99046 13.8772 2.03654 13.6404C2.09054 13.3709 2.20915 13.1186 2.38218 12.9051C2.67469 12.5443 3.05513 12.3464 3.51409 12.299Z" fill="#F1B90C" fill-opacity="0.15"/>
</g>
<defs>
<clipPath id="clip0_4320_2898">
<rect width="18" height="20" fill="white"/>
</clipPath>
</defs>
</svg>
