<svg width="20" height="20" viewBox="0 0 20 20" fill="none" xmlns="http://www.w3.org/2000/svg">
<path d="M9.37458 0.0199172C14.8861 -0.325459 19.6341 3.86216 19.98 9.37358C20.326 14.885 16.1388 19.6334 10.6275 19.9799C5.1153 20.3265 0.365972 16.1387 0.0199829 10.6265C-0.326012 5.11423 3.86237 0.365347 9.37458 0.0199172ZM7.41976 9.33677C8.80682 9.18934 9.81362 7.94819 9.67184 6.5606C9.53 5.17294 8.29297 4.16109 6.90479 4.29727C5.50861 4.43418 4.48963 5.67993 4.63227 7.07558C4.77491 8.47122 6.02472 9.48507 7.41976 9.33677ZM12.9715 15.5457C14.3553 15.4179 15.3753 14.1954 15.2531 12.811C15.131 11.4267 13.9127 10.4017 12.5279 10.5181C11.135 10.6352 10.1026 11.8622 10.2254 13.2547C10.3483 14.647 11.5796 15.6744 12.9715 15.5457ZM5.83462 15.2274C5.97047 15.1835 6.07611 15.1175 6.17528 15.0153C6.4342 14.7484 6.67149 14.4565 6.91996 14.1796L12.866 7.53697L14.1255 6.11204C14.3091 5.90617 14.7097 5.52884 14.8183 5.30939C14.8814 5.18186 14.8855 5.03682 14.8368 4.9037C14.7785 4.74556 14.6579 4.61816 14.5031 4.55133C14.3744 4.49502 14.2419 4.48777 14.1045 4.506C13.991 4.54308 13.9007 4.58321 13.8153 4.67021C13.5917 4.89798 13.3829 5.14392 13.1697 5.38167L8.44533 10.6983L6.32577 13.0666C6.06492 13.3542 5.80574 13.6432 5.54821 13.9338C5.41955 14.0795 5.23784 14.2468 5.15071 14.4207C5.08542 14.5511 5.0773 14.7019 5.12262 14.8402C5.17188 14.9907 5.28537 15.1107 5.42674 15.1795C5.55281 15.2408 5.69764 15.2552 5.83462 15.2274Z" fill="url(#paint0_linear_751_4370)"/>
<path d="M7.00826 5.67542C7.6513 5.59428 8.23817 6.05049 8.31804 6.69373C8.39798 7.33691 7.94064 7.92291 7.29727 8.00158C6.65562 8.08012 6.07155 7.62425 5.99188 6.98274C5.91214 6.34123 6.36688 5.75629 7.00826 5.67542Z" fill="url(#paint1_linear_751_4370)"/>
<path d="M12.5941 11.8675C13.2484 11.7836 13.8463 12.2473 13.9277 12.9019C14.0093 13.5564 13.5434 14.1527 12.8885 14.2318C12.237 14.3105 11.6445 13.8475 11.5634 13.1963C11.4824 12.5451 11.9432 11.9509 12.5941 11.8675Z" fill="url(#paint2_linear_751_4370)"/>
<defs>
<linearGradient id="paint0_linear_751_4370" x1="0" y1="0" x2="20" y2="20" gradientUnits="userSpaceOnUse">
<stop stop-color="#7DCBFF"/>
<stop offset="1" stop-color="#007AFF"/>
</linearGradient>
<linearGradient id="paint1_linear_751_4370" x1="0" y1="0" x2="20" y2="20" gradientUnits="userSpaceOnUse">
<stop stop-color="#7DCBFF"/>
<stop offset="1" stop-color="#007AFF"/>
</linearGradient>
<linearGradient id="paint2_linear_751_4370" x1="0" y1="0" x2="20" y2="20" gradientUnits="userSpaceOnUse">
<stop stop-color="#7DCBFF"/>
<stop offset="1" stop-color="#007AFF"/>
</linearGradient>
</defs>
</svg>
