<svg width="21" height="21" viewBox="0 0 21 21" fill="none" xmlns="http://www.w3.org/2000/svg">
<path d="M7.5254 0.5C4.91078 0.5 2.78516 2.63 2.78516 5.25C2.78516 7.82 4.79103 9.9 7.40564 9.99C7.48548 9.98 7.56531 9.98 7.62519 9.99C7.64515 9.99 7.65513 9.99 7.67509 9.99C7.68507 9.99 7.68507 9.99 7.69505 9.99C10.2498 9.9 12.2557 7.82 12.2656 5.25C12.2656 2.63 10.14 0.5 7.5254 0.5Z" fill="currentColor"/>
<path d="M12.5951 12.6489C9.81083 10.7889 5.27018 10.7889 2.46595 12.6489C1.19856 13.4989 0.5 14.6489 0.5 15.8789C0.5 17.1089 1.19856 18.2489 2.45597 19.0889C3.8531 20.0289 5.68932 20.4989 7.52553 20.4989C9.36175 20.4989 11.198 20.0289 12.5951 19.0889C13.8525 18.2389 14.5511 17.0989 14.5511 15.8589C14.5411 14.6289 13.8525 13.4889 12.5951 12.6489Z" fill="currentColor"/>
<path d="M18.4929 5.8401C18.6526 7.7801 17.2754 9.4801 15.3694 9.7101C15.3594 9.7101 15.3594 9.7101 15.3494 9.7101H15.3195C15.2596 9.7101 15.1997 9.7101 15.1498 9.7301C14.1818 9.7801 13.2936 9.4701 12.625 8.9001C13.6529 7.9801 14.2417 6.6001 14.1219 5.1001C14.0521 4.2901 13.7726 3.5501 13.3535 2.9201C13.7327 2.7301 14.1718 2.6101 14.6209 2.5701C16.5769 2.4001 18.3233 3.8601 18.4929 5.8401Z" fill="currentColor"/>
<path d="M20.4875 15.0904C20.4076 16.0604 19.7889 16.9004 18.751 17.4704C17.7531 18.0204 16.4957 18.2804 15.2483 18.2504C15.9668 17.6004 16.3859 16.7904 16.4657 15.9304C16.5655 14.6904 15.9768 13.5004 14.7992 12.5504C14.1306 12.0204 13.3522 11.6004 12.5039 11.2904C14.7094 10.6504 17.4837 11.0804 19.1901 12.4604C20.1082 13.2004 20.5773 14.1304 20.4875 15.0904Z" fill="currentColor"/>
</svg>
