<svg width="29" height="29" viewBox="0 0 29 29" fill="none" xmlns="http://www.w3.org/2000/svg">
<g clip-path="url(#clip0_1069_1434)">
<path d="M6.02633 4.01556C6.03505 4.01469 6.04376 4.01355 6.05252 4.01289C6.38849 3.98766 6.74017 4.00781 7.07736 4.00799L9.10815 4.00838L11.2942 4.00895C11.7868 4.00856 12.3193 3.96918 12.8037 4.0588C13.172 4.12691 13.5553 4.32411 13.8313 4.57566C14.2795 4.9842 14.4975 5.50654 14.5187 6.10715C14.5356 6.58753 14.5218 7.07364 14.5217 7.55467V10.2771L14.5219 11.7271C14.5218 12.0302 14.5469 12.3567 14.4907 12.6548C14.4195 13.0256 14.2451 13.3688 13.9876 13.6449C13.5986 14.0577 13.0487 14.3192 12.4805 14.3358L7.85296 14.3353L6.58634 14.3367C6.31906 14.3371 6.03807 14.3555 5.7739 14.3126C5.42489 14.2559 5.07127 14.0985 4.79637 13.8765C4.363 13.5265 4.0937 13.0507 4.03571 12.4961C3.98512 12.0128 4.00316 11.5124 4.00299 11.0269L4.0061 8.71372L4.00334 6.9319C4.00408 6.55472 3.98507 6.15257 4.04609 5.78039C4.1064 5.41346 4.2623 5.06891 4.49799 4.78131C4.89199 4.29984 5.4195 4.07855 6.02633 4.01556ZM9.77275 12.7856L11.4533 12.7869C11.7394 12.7869 12.0564 12.8168 12.3372 12.767C12.4849 12.7409 12.6284 12.6631 12.7365 12.5598C13.0134 12.2952 12.9716 11.8569 12.9717 11.5074L12.9713 7.98726L12.9708 6.96532C12.9703 6.70487 12.9789 6.42055 12.9367 6.16348C12.9129 6.0185 12.8324 5.87645 12.7311 5.77145C12.6227 5.65901 12.489 5.60614 12.3379 5.57842C11.9731 5.51144 11.4896 5.55025 11.1115 5.55025H8.74341L7.04937 5.55122C6.75958 5.55135 6.41109 5.5171 6.12835 5.57728C5.98638 5.6075 5.84907 5.68096 5.74797 5.78556C5.64955 5.88735 5.57837 6.02914 5.55691 6.16913C5.51455 6.44561 5.53352 6.74193 5.53365 7.02138L5.53417 8.36466L5.53465 10.6653C5.53417 11.0951 5.52099 11.5294 5.53803 11.9587C5.54714 12.1886 5.60062 12.4345 5.78288 12.5934C5.88341 12.681 6.03627 12.7519 6.16623 12.7728C6.48257 12.8233 6.96781 12.7855 7.30228 12.7852L9.77275 12.7856Z" fill="currentColor"/>
<path d="M7.64646 7.497C8.01404 7.46901 10.6961 7.46831 10.8586 7.52661C10.8887 7.53743 10.8973 7.53786 10.9094 7.56914C10.9598 7.69897 10.9598 10.2533 10.94 10.596C10.9356 10.6714 10.9262 10.7393 10.8977 10.8098L8.89266 10.8118C8.56568 10.8123 7.89122 10.8542 7.61654 10.7766C7.58601 10.7407 7.5861 10.6904 7.58316 10.6453C7.57151 10.4669 7.58119 10.2829 7.58163 10.104L7.58382 9.01386C7.58329 8.59739 7.54361 8.00891 7.58583 7.61474C7.59144 7.56217 7.61246 7.53616 7.64646 7.497Z" fill="currentColor"/>
<path d="M6.36263 15.6829L10.6087 15.6803L11.7903 15.68C12.1366 15.6795 12.5112 15.6626 12.8521 15.7295C13.2523 15.8104 13.6204 16.0059 13.9115 16.2923C14.2026 16.5794 14.4009 16.9472 14.4808 17.3482C14.5431 17.6525 14.5218 17.9771 14.5219 18.2867L14.5216 19.4995L14.5236 23.7935C14.5206 24.3873 14.3343 24.9429 13.9014 25.3651C13.3878 25.8662 12.7858 26.0028 12.0904 25.998L7.81742 25.9966L6.68549 25.9977C6.36083 25.9979 6.02167 26.0163 5.70227 25.9507C5.30525 25.8711 4.9395 25.6789 4.64861 25.3972C4.40446 25.1613 4.18449 24.8219 4.09693 24.4917C3.96044 23.9768 4.01769 23.1355 4.01515 22.5895C4.00989 21.4549 4.02089 20.3203 4.00573 19.1857C4.0021 18.851 4.00389 18.5162 4.01108 18.1815C4.02299 17.4515 4.04542 16.8537 4.59299 16.2975C5.09084 15.7919 5.68002 15.6845 6.36263 15.6829ZM12.3166 24.3958C12.528 24.35 12.7184 24.2506 12.8402 24.0652C12.9358 23.9198 12.9511 23.7574 12.963 23.5884C12.9865 23.2539 12.9713 22.9102 12.9709 22.5749L12.9717 20.8175L12.9723 18.9976C12.9721 18.6306 13.0051 18.197 12.9271 17.8381C12.8869 17.6532 12.7406 17.455 12.5785 17.3553C12.4723 17.2899 12.3508 17.2568 12.2271 17.2477C11.7733 17.2141 11.3004 17.2396 10.8445 17.2403L8.31475 17.2405L6.88571 17.2388C6.68159 17.2386 6.43389 17.2133 6.23416 17.2491C6.02356 17.2753 5.84046 17.3584 5.70455 17.5274C5.5897 17.6702 5.56351 17.8116 5.5466 17.988C5.51265 18.3421 5.53503 18.7141 5.53495 19.0705L5.53464 21.137L5.53495 22.838C5.53503 23.1277 5.513 23.4396 5.54848 23.7261C5.572 23.9156 5.65488 24.1142 5.80875 24.2334C5.91703 24.3187 6.04673 24.3725 6.18365 24.3888C6.48492 24.4265 6.81374 24.4027 7.11869 24.4027L8.90095 24.4019L11.1535 24.403C11.536 24.4032 11.9356 24.4256 12.3166 24.3958Z" fill="currentColor"/>
<path d="M7.63307 19.1272C7.97258 19.1211 10.7353 19.0921 10.8486 19.1418C10.8816 19.1562 10.9152 19.199 10.9258 19.2328C10.9589 19.3383 10.9545 22.0464 10.9387 22.3292C10.9345 22.406 10.9291 22.4701 10.8899 22.5382C10.7158 22.5618 10.5307 22.5486 10.3546 22.5486L9.39605 22.5483L8.28489 22.5495C8.08441 22.5495 7.86421 22.5675 7.6671 22.5356C7.62606 22.5289 7.62847 22.5277 7.60425 22.4942C7.54485 22.112 7.58156 21.4322 7.58121 21.0185L7.58055 19.8748C7.58055 19.669 7.57122 19.4575 7.58484 19.2523C7.58835 19.1987 7.6021 19.1705 7.63307 19.1272Z" fill="currentColor"/>
<path d="M18.0031 4.01523C18.435 3.98974 18.8777 4.00879 19.3106 4.00879L21.7526 4.00862L23.5067 4.00827C23.8946 4.00853 24.2968 3.98663 24.6806 4.0444C25.007 4.09355 25.3323 4.22846 25.6007 4.42036C25.9836 4.69434 26.3483 5.18404 26.4248 5.65741C26.5038 6.14668 26.471 6.66315 26.4711 7.15846L26.4709 9.4974L26.471 11.449C26.4708 11.8129 26.4975 12.1995 26.4454 12.559C26.3998 12.8916 26.2702 13.2071 26.0688 13.4757C25.6765 14.0045 25.1462 14.2395 24.5113 14.3349L19.9233 14.3354L18.5809 14.3368C18.3015 14.3371 18.0047 14.3563 17.7287 14.3116C17.3822 14.2533 17.0552 14.1112 16.7761 13.8977C16.3456 13.5666 16.068 13.0748 16.0068 12.5352C15.9579 12.1349 15.9855 11.7061 15.9854 11.3023L15.9849 9.13384L15.9847 7.00073C15.9847 6.59902 15.9525 6.16376 16.0162 5.76735C16.0749 5.42027 16.2203 5.09368 16.4389 4.81777C16.8277 4.32855 17.3941 4.08391 18.0031 4.01523ZM23.2016 12.7857L23.7993 12.7879C24.1163 12.7886 24.4982 12.8231 24.7417 12.5753C24.8434 12.4717 24.9186 12.3338 24.9441 12.1902C24.9855 11.9567 24.9662 11.6914 24.9675 11.4539L24.967 9.97983L24.969 7.58899C24.969 7.19836 24.9791 6.80436 24.9659 6.41405C24.9574 6.16332 24.9124 5.93599 24.7202 5.75456C24.6298 5.66915 24.4442 5.58825 24.3212 5.56998C24.1185 5.53989 23.8952 5.55084 23.6901 5.55049L22.6472 5.55137L19.2581 5.55045L18.6817 5.54997C18.3519 5.55023 17.9899 5.5193 17.7353 5.77476C17.6201 5.89031 17.5513 6.04282 17.5288 6.20367C17.4994 6.41282 17.5185 6.64817 17.5185 6.8596L17.5288 8.33489L17.5298 10.6596C17.5258 11.1321 17.4979 11.6181 17.5235 12.0889C17.5339 12.2784 17.6541 12.5004 17.7961 12.6208C17.9158 12.7222 18.0803 12.7584 18.2332 12.776C18.4234 12.7977 18.6238 12.7866 18.8152 12.7865L19.8214 12.7864L23.2016 12.7857Z" fill="currentColor"/>
<path d="M19.6037 7.49789C19.9439 7.47774 22.7344 7.46653 22.8206 7.51322C22.8686 7.60635 22.8799 7.71406 22.8853 7.81756C22.9146 8.38085 22.8919 8.95492 22.8921 9.51953C22.8923 9.89745 22.9242 10.3041 22.8832 10.6787C22.8767 10.7379 22.8729 10.7639 22.8328 10.8085C22.2242 10.8251 21.6125 10.811 21.0035 10.8114C20.5762 10.8117 20.1384 10.8344 19.7128 10.8105C19.6606 10.8076 19.6064 10.8064 19.5612 10.7774C19.5309 10.7183 19.5244 10.6587 19.5198 10.5931C19.49 10.1732 19.5112 9.73797 19.5111 9.31629C19.5111 8.7879 19.4955 8.25383 19.5137 7.72601C19.5174 7.6201 19.5236 7.5731 19.6037 7.49789Z" fill="currentColor"/>
<path d="M23.0047 15.7803C23.4299 15.7805 25.3919 15.7395 25.6324 15.8162C25.658 15.8715 25.6627 15.9268 25.6646 15.9876C25.6757 16.3316 25.6572 16.6795 25.6576 17.0241C25.658 17.3449 25.7009 18.2353 25.6427 18.4789C25.6072 18.5154 25.5834 18.5114 25.5341 18.5195C24.6808 18.5367 23.8237 18.5241 22.9701 18.522C22.9564 18.437 22.949 18.3511 22.9477 18.265C22.9381 17.7479 22.934 17.2307 22.9352 16.7135C22.9348 16.4461 22.9095 16.1567 22.9434 15.8914C22.9499 15.8406 22.9699 15.8165 23.0047 15.7803Z" fill="currentColor"/>
<path d="M23.0171 21.9904C23.5138 21.9689 24.0195 21.9865 24.5171 21.9863C24.8154 21.9861 25.3556 21.9473 25.6308 22.0123C25.684 22.1474 25.6761 24.5004 25.6389 24.6311C25.5989 24.6717 25.5692 24.6684 25.5141 24.6786C24.6693 24.6919 23.8218 24.6831 22.9768 24.6782C22.9279 24.4975 22.911 22.2574 22.94 22.0919C22.9498 22.0362 22.9735 22.0237 23.0171 21.9904Z" fill="currentColor"/>
<path d="M16.6401 15.7803L18.3073 15.7816C18.5788 15.7813 18.9587 15.7428 19.2153 15.8047C19.2865 15.9915 19.2545 17.8645 19.2513 18.2003C19.2502 18.3042 19.2648 18.4477 19.1865 18.5244C18.3304 18.5319 17.466 18.5435 16.6104 18.5205C16.5512 18.1166 16.5915 17.6688 16.5918 17.2599C16.5921 16.8099 16.5594 16.3339 16.6024 15.8862C16.6067 15.8417 16.6138 15.8161 16.6401 15.7803Z" fill="currentColor"/>
<path d="M19.7651 18.9234C19.9966 18.9037 22.2538 18.8979 22.3497 18.9386C22.384 18.9532 22.3842 18.9724 22.3925 19.0046C22.4531 19.2396 22.4052 19.8844 22.4051 20.1732C22.405 20.569 22.4276 20.9702 22.4105 21.3653C22.4072 21.4421 22.4102 21.5251 22.371 21.5932C21.4927 21.6204 20.6034 21.6018 19.7243 21.5964C19.714 21.4963 19.7142 21.3952 19.713 21.2947L19.7086 19.7781C19.7082 19.5332 19.6819 19.2516 19.719 19.0105C19.7261 18.9642 19.7336 18.9556 19.7651 18.9234Z" fill="currentColor"/>
<path d="M16.6413 21.9847C17.1688 21.9758 17.6976 21.9833 18.2252 21.983C18.4687 21.9828 18.9434 21.9444 19.1585 22.0043C19.1952 22.0146 19.2172 22.0181 19.2332 22.0549C19.2678 22.1343 19.2688 24.1905 19.26 24.3963C19.2573 24.4624 19.2558 24.5474 19.2277 24.6076C19.2066 24.6527 19.1871 24.6601 19.142 24.6759L16.6294 24.6762C16.6174 24.6335 16.6074 24.5902 16.602 24.5462C16.5533 24.148 16.5936 23.6182 16.5967 23.2095C16.5994 22.8479 16.5723 22.4678 16.6004 22.1084C16.6044 22.058 16.6084 22.0257 16.6413 21.9847Z" fill="currentColor"/>
</g>
<defs>
<clipPath id="clip0_1069_1434">
<rect width="28" height="28" fill="white" transform="translate(0.625 0.5)"/>
</clipPath>
</defs>
</svg>
