<svg width="31" height="31" viewBox="0 0 31 31" fill="none" xmlns="http://www.w3.org/2000/svg">
<path d="M6.87346 16.3218C6.99137 16.3117 7.11561 16.3193 7.23431 16.3194L7.94826 16.3202L10.1622 16.32L12.1705 16.32C12.5479 16.3199 12.9509 16.2928 13.3246 16.3423C13.5663 16.3743 13.8292 16.4786 14.0235 16.6282C14.3123 16.8506 14.5167 17.1733 14.5657 17.5395C14.6073 17.8514 14.5811 18.3379 14.5807 18.667L14.5799 20.8516L14.5802 23.1564L14.5806 23.8482C14.5805 23.9953 14.5868 24.1476 14.5695 24.2937C14.5426 24.5214 14.436 24.7547 14.2974 24.9348C14.0318 25.2799 13.6608 25.4389 13.2417 25.4921L8.78996 25.4928L7.45814 25.4932C7.20983 25.4935 6.94161 25.5139 6.69644 25.478C6.45503 25.4427 6.19864 25.3352 6.00721 25.1826C5.76612 24.9904 5.55716 24.6767 5.5232 24.3629C5.50372 24.1828 5.50915 23.9994 5.50896 23.8186L5.51068 23.0056L5.51156 20.5137L5.5096 18.5378C5.50887 18.2038 5.47704 17.8508 5.5223 17.5201C5.55391 17.2891 5.66267 17.0411 5.80878 16.8605C6.08313 16.5214 6.45017 16.3672 6.87346 16.3218ZM8.27348 19.295C8.25267 19.5002 8.26235 19.7132 8.26242 19.9196L8.26321 20.9652L8.26382 21.9221C8.26419 22.0862 8.25388 22.2596 8.27145 22.4227C8.2779 22.4825 8.29868 22.5273 8.33513 22.5751C8.37749 22.6307 8.47762 22.641 8.54334 22.6477C8.66237 22.6597 8.78729 22.6528 8.90699 22.6528L9.58549 22.6525L11.5677 22.6508C11.6075 22.6424 11.6489 22.6357 11.6875 22.6227C11.8331 22.4788 11.8166 22.3823 11.8186 22.1871C11.8254 21.5566 11.818 20.9254 11.8175 20.2947L11.8174 19.7133C11.8174 19.6083 11.8254 19.4967 11.8118 19.3928C11.8033 19.3277 11.7817 19.2672 11.7356 19.2196C11.6828 19.1651 11.6292 19.1593 11.5577 19.1515C11.4222 19.1367 11.2798 19.1446 11.1435 19.1446L10.4527 19.1445C9.8227 19.1441 9.18947 19.13 8.5598 19.1443C8.5379 19.145 8.516 19.146 8.49412 19.1472C8.3858 19.1647 8.33746 19.2074 8.27348 19.295Z" fill="currentColor"/>
<path d="M17.6534 5.52133C17.6633 5.52019 17.6733 5.51893 17.6833 5.51814C17.8412 5.50566 18.0029 5.51182 18.1614 5.5119L18.9463 5.51256L21.4355 5.51254L23.2914 5.51271C23.6246 5.51256 23.9823 5.48342 24.3115 5.532C24.5821 5.57417 24.8351 5.69355 25.0406 5.87603C25.3024 6.10778 25.4578 6.41619 25.4798 6.76696C25.4908 6.94243 25.4842 7.12131 25.4842 7.29714L25.4839 8.25074L25.485 11.0505L25.4851 12.6304C25.4851 12.8971 25.51 13.1948 25.4686 13.4575C25.4261 13.7192 25.3097 13.963 25.1334 14.1598C24.8728 14.4525 24.4919 14.6011 24.1085 14.6199C23.5485 14.6342 22.9845 14.6215 22.4242 14.6207L19.6757 14.6202L18.3306 14.6213C18.0679 14.6213 17.7888 14.6397 17.5295 14.5979C17.2931 14.5598 17.044 14.4408 16.8617 14.2853C16.5799 14.0454 16.4073 13.7 16.3838 13.3289C16.3624 13.0247 16.3796 12.7165 16.3795 12.412L16.3782 10.5027C16.3729 9.75785 16.3846 9.01209 16.3767 8.26747C16.3731 7.93466 16.3757 7.60379 16.3779 7.27107C16.3792 7.07633 16.3652 6.87727 16.3942 6.68422C16.4304 6.43166 16.5391 6.19526 16.7069 6.0042C16.9416 5.73425 17.2962 5.54575 17.6534 5.52133ZM19.2179 8.3875C19.1578 8.60348 19.1884 8.93381 19.1885 9.16534L19.1887 10.1956L19.1889 11.0558C19.1888 11.2063 19.1822 11.3604 19.1912 11.5106C19.1944 11.5642 19.2028 11.6147 19.2281 11.6626C19.2442 11.6932 19.2661 11.7198 19.2881 11.7463C19.333 11.766 19.3737 11.7816 19.4228 11.7862C19.5724 11.8001 19.7277 11.7926 19.8778 11.7927L20.6772 11.7924C21.286 11.792 21.9015 11.8125 22.5093 11.7877C22.5892 11.753 22.647 11.7148 22.6821 11.6313C22.7072 11.5714 22.7082 11.5071 22.7106 11.443C22.7223 11.1319 22.7283 8.52055 22.6882 8.41925C22.6701 8.37356 22.6307 8.31337 22.5859 8.29035C22.5359 8.26463 22.4438 8.26217 22.3876 8.25985C22.195 8.25192 21.9997 8.25877 21.807 8.25928L20.7696 8.25975L19.8846 8.25942C19.7238 8.2594 19.5595 8.25199 19.3993 8.26247C19.3204 8.29188 19.2737 8.32442 19.2179 8.3875Z" fill="currentColor"/>
<path d="M6.78027 5.5179C6.90902 5.50184 7.04597 5.50859 7.17563 5.50853L7.80907 5.50882L9.90825 5.509L12.1555 5.5087C12.5227 5.50855 12.9881 5.48036 13.344 5.52627C13.5789 5.55656 13.8262 5.65714 14.0177 5.79716C14.3033 6.00591 14.5143 6.31866 14.5674 6.67391C14.593 6.84511 14.5855 7.02331 14.5853 7.19614L14.5848 7.89258L14.5843 10.3493L14.5847 12.3575C14.5852 12.6712 14.6122 13.0904 14.5741 13.3895C14.5445 13.6214 14.4464 13.8539 14.3065 14.0398C14.0711 14.3516 13.7211 14.5545 13.3355 14.6028C13.3153 14.6066 13.2948 14.6095 13.2743 14.6114C13.1223 14.6256 12.9653 14.6185 12.8127 14.6179L12.1003 14.6172L9.69403 14.6171L7.79285 14.618C7.43994 14.6189 7.02349 14.6495 6.67921 14.5954C6.43222 14.5567 6.1708 14.4302 5.98132 14.2667C5.72158 14.0426 5.54728 13.6974 5.52107 13.3541C5.50744 13.1755 5.51486 12.9926 5.51461 12.8135L5.5125 11.976L5.51337 9.75423L5.50638 7.66475C5.50672 7.34425 5.47799 6.99415 5.5253 6.67762C5.5616 6.43479 5.67438 6.1964 5.83292 6.01063C6.06513 5.73851 6.42326 5.54431 6.78027 5.5179ZM8.27694 8.40732C8.25694 8.65181 8.26451 8.89811 8.26553 9.14323L8.26709 10.1391L8.26556 10.9556C8.2643 11.1525 8.25508 11.3573 8.27312 11.5531C8.27805 11.6067 8.29286 11.6545 8.32677 11.697C8.36487 11.7448 8.42485 11.779 8.48548 11.7839C8.83134 11.8115 9.26359 11.7882 9.61795 11.7881C10.272 11.7878 10.9273 11.7972 11.5812 11.7867C11.6541 11.7768 11.7126 11.7487 11.7594 11.6895C11.8079 11.6281 11.8121 11.5544 11.8176 11.4791C11.8319 11.2844 11.8228 11.0835 11.8226 10.8882L11.8222 9.82531L11.8229 8.98364C11.823 8.82023 11.8338 8.64566 11.8126 8.48354C11.8035 8.41387 11.7644 8.34021 11.7074 8.29804C11.6616 8.26409 11.5606 8.26097 11.5036 8.2578C11.3235 8.24783 11.1391 8.25557 10.9587 8.25566L9.918 8.25651L8.98418 8.25618C8.81851 8.25613 8.64868 8.24834 8.48345 8.2589C8.39296 8.27772 8.34308 8.30764 8.29076 8.38576C8.28604 8.39287 8.28143 8.40005 8.27694 8.40732Z" fill="currentColor"/>
<path d="M16.6182 22.3909C17.1182 22.3773 17.6206 22.3889 18.1208 22.388C18.405 22.3875 18.7815 22.3657 19.0529 22.3913C19.1059 22.3963 19.1597 22.4096 19.2047 22.4393C19.2636 22.4782 19.3048 22.5516 19.3161 22.6207C19.3342 22.7313 19.3227 22.8588 19.3228 22.9714L19.3227 23.6387L19.3247 24.5772C19.3244 24.7429 19.3318 24.9139 19.3156 25.0786C19.3094 25.1411 19.299 25.1961 19.2592 25.2464C19.2029 25.3176 19.1302 25.3338 19.0451 25.3455C18.7522 25.3456 16.6577 25.3756 16.5348 25.3158C16.4704 25.2844 16.4221 25.1986 16.4021 25.1324C16.3521 24.9671 16.3811 24.4374 16.3843 24.2422C16.3873 24.0538 16.3848 23.8647 16.3855 23.6762C16.3868 23.347 16.3692 23.0134 16.3918 22.6848C16.3957 22.6274 16.3995 22.5659 16.4293 22.5154C16.4719 22.4431 16.5401 22.4103 16.6182 22.3909Z" fill="currentColor"/>
<path d="M16.664 16.5946C16.7845 16.5847 16.9138 16.5933 17.0351 16.5933L17.7524 16.5934L18.5503 16.5937C18.6961 16.5936 18.846 16.586 18.9913 16.5962C19.052 16.6005 19.1595 16.6089 19.2086 16.6441C19.2682 16.6869 19.3092 16.7519 19.3179 16.8252C19.333 16.952 19.3224 17.0919 19.3223 17.2203L19.3226 17.973L19.3229 18.8533C19.3229 19.008 19.334 19.1724 19.3161 19.3258C19.3105 19.3728 19.2932 19.4107 19.2639 19.4475C19.2101 19.5147 19.1391 19.5395 19.0566 19.5483L17.4277 19.5479C17.1746 19.5479 16.9075 19.5686 16.6562 19.5468C16.6021 19.5421 16.5514 19.5305 16.5058 19.4995C16.4441 19.4577 16.4101 19.3899 16.3965 19.3177C16.3764 19.2112 16.3871 19.088 16.3869 18.9795L16.3868 18.3229C16.3864 17.9657 16.3769 17.6091 16.3828 17.2518C16.3849 17.1185 16.3813 16.9814 16.3953 16.849C16.4011 16.7935 16.4122 16.7447 16.446 16.6994C16.5009 16.6261 16.5787 16.6067 16.664 16.5946Z" fill="currentColor"/>
<path d="M19.713 19.4915L21.3544 19.4944C21.613 19.4944 21.8911 19.4698 22.1475 19.4977C22.1968 19.503 22.2381 19.5156 22.2798 19.5431C22.3526 19.5912 22.3791 19.6672 22.3937 19.7513C22.416 19.8793 22.4046 20.0181 22.4041 20.1481L22.4019 20.7842L22.4043 21.6657C22.4048 21.8187 22.4129 21.9766 22.4017 22.129C22.397 22.1933 22.3872 22.2617 22.3478 22.3146C22.2995 22.3796 22.2288 22.4065 22.1522 22.4201C21.6678 22.4369 21.1781 22.4216 20.6932 22.4223L20.0738 22.4232C19.9551 22.4232 19.8325 22.4293 19.7145 22.4176C19.6642 22.4127 19.6202 22.4017 19.5772 22.3741C19.5069 22.329 19.481 22.2653 19.4631 22.1859C19.4288 22.0349 19.4453 21.8611 19.4459 21.7068L19.4479 21.0395L19.4462 20.2586C19.4459 20.1134 19.4386 19.9638 19.4497 19.819C19.4551 19.7485 19.466 19.6603 19.5068 19.6015C19.5553 19.5316 19.6338 19.5059 19.713 19.4915Z" fill="currentColor"/>
<path d="M22.8314 22.3902C23.1743 22.3688 23.5298 22.3867 23.8739 22.3866C24.1464 22.3865 25.1257 22.3539 25.3406 22.4235C25.3988 22.4423 25.4371 22.4927 25.4619 22.5471C25.4802 22.5874 25.4854 22.6281 25.4876 22.6719C25.5063 23.0441 25.4904 23.4262 25.4912 23.7995C25.4921 24.2138 25.5095 24.6394 25.486 25.0526C25.4835 25.0957 25.4793 25.1371 25.4635 25.1776C25.4315 25.2597 25.376 25.2996 25.2977 25.3328C25.1719 25.3544 25.0357 25.345 24.9082 25.3451L24.2907 25.3455L23.3567 25.3458C23.1945 25.3458 23.0278 25.3536 22.8662 25.3423C22.8233 25.3393 22.7851 25.3298 22.7468 25.31C22.6749 25.2728 22.6341 25.2027 22.6123 25.1266C22.5621 24.9509 22.5899 24.1256 22.5898 23.8947C22.5898 23.5204 22.5686 23.0637 22.5963 22.6976C22.6012 22.6329 22.6082 22.5719 22.6423 22.5152C22.6865 22.4414 22.7511 22.4095 22.8314 22.3902Z" fill="currentColor"/>
<path d="M22.8586 16.5955C23.3368 16.5891 23.8158 16.5962 24.2941 16.5964C24.5868 16.5964 24.8865 16.5805 25.1785 16.5983C25.2345 16.6017 25.2918 16.6043 25.3428 16.6299C25.4073 16.6623 25.4526 16.7178 25.4735 16.7877C25.5131 16.9205 25.4885 17.9365 25.4883 18.1331C25.488 18.4989 25.5064 18.8714 25.4886 19.2364C25.4854 19.3017 25.4816 19.3695 25.4474 19.4269C25.4028 19.5016 25.33 19.531 25.2495 19.5496C24.7277 19.5567 24.205 19.5493 23.6831 19.5496C23.4122 19.5497 23.1265 19.5722 22.8576 19.5478C22.8093 19.5434 22.7685 19.5345 22.7264 19.5092C22.6652 19.4724 22.622 19.405 22.6066 19.3356C22.5644 19.1439 22.5894 18.5531 22.5894 18.3123L22.5898 17.4551C22.59 17.2818 22.5842 17.1057 22.5961 16.9329C22.6011 16.8613 22.6054 16.7755 22.6467 16.7149C22.6974 16.6407 22.7743 16.6112 22.8586 16.5955Z" fill="currentColor"/>
</svg>
