<svg width="20" height="20" viewBox="0 0 20 20" fill="none" xmlns="http://www.w3.org/2000/svg">
<g clip-path="url(#clip0_1316_362)">
<path d="M9.43691 0H10.5553C10.5582 0.000980863 10.5611 0.00202555 10.5641 0.00294259C10.693 0.0430383 11.0747 0.0523434 11.2359 0.0715121C11.6664 0.122717 12.1034 0.201933 12.5226 0.314334C15.1935 1.00832 17.4591 2.77461 18.7837 5.19547C19.3154 6.16961 19.6804 7.22582 19.8638 8.32035C19.902 8.54684 19.9316 8.77473 19.9525 9.00348C19.9666 9.1475 19.9661 9.30434 20 9.44438V10.562C19.9991 10.5658 19.9981 10.5696 19.9973 10.5735C19.9525 10.7727 19.9502 11.0513 19.9264 11.26C19.8817 11.6521 19.8039 12.0464 19.7088 12.4292C19.1032 14.8621 17.6047 16.9784 15.511 18.3577C14.3913 19.0964 13.1338 19.6011 11.8141 19.8414C11.5969 19.881 11.3783 19.913 11.1589 19.9373C11.0292 19.9514 10.7173 19.9587 10.6098 20H9.41637C9.29527 19.9589 9.03934 19.9575 8.90121 19.9434C8.70492 19.9233 8.51188 19.8942 8.31758 19.8607C7.17684 19.6702 6.07824 19.2815 5.07156 18.7122C2.72778 17.3876 1.01737 15.1736 0.327457 12.5713C0.213108 12.1346 0.127787 11.6907 0.0720543 11.2426C0.0560578 11.1012 0.0427961 10.9594 0.0322767 10.8174C0.0253753 10.735 0.025847 10.6421 0.00282157 10.5627C0.00194264 10.5597 0.000940523 10.5567 0 10.5537V9.44613C0.0414039 9.31832 0.0416402 9.04969 0.0558699 8.90086C0.0738316 8.71297 0.103389 8.52531 0.133828 8.33906C0.30904 7.27406 0.657223 6.24488 1.16459 5.29227C2.45689 2.86234 4.69504 1.07374 7.35012 0.349108C7.79434 0.23005 8.24574 0.139711 8.70152 0.0786531C8.85332 0.0587375 9.00621 0.0473969 9.15871 0.0348306C9.24441 0.0277684 9.3468 0.0296494 9.42855 0.00294398C9.43137 0.00202801 9.43414 0.000981328 9.43691 0Z" fill="currentColor"/>
<path d="M9.89078 4.77978C10.8611 4.75111 11.8582 4.97204 12.5951 5.64071C13.1054 6.09509 13.4121 6.73532 13.4462 7.41779C13.4864 8.3788 13.0377 8.95321 12.3797 9.57181C12.1255 9.80829 11.8688 10.042 11.6095 10.2729C11.3867 10.4751 11.1375 10.6886 10.9672 10.9384C10.8908 11.05 10.8314 11.1722 10.7908 11.3011C10.6865 11.6272 10.6797 12.0484 10.4357 12.3083C10.2869 12.4668 10.0816 12.5261 9.86933 12.5309C9.6334 12.5363 9.41433 12.4689 9.24152 12.3029C9.0557 12.1243 8.99488 11.8807 8.9923 11.6297C8.98379 10.7929 9.25039 10.251 9.83117 9.66114C10.0787 9.41466 10.3382 9.1847 10.5991 8.95286C10.7906 8.78271 10.9905 8.61259 11.1614 8.42138C11.4053 8.14849 11.5693 7.83657 11.5468 7.4629C11.5262 7.12064 11.3771 6.82169 11.1197 6.59572C10.7701 6.28876 10.3343 6.20806 9.88051 6.24142C9.34148 6.28107 9.00625 6.47708 8.72144 6.93587C8.59984 7.13181 8.50242 7.34423 8.42332 7.56064C8.33625 7.7988 8.26598 8.05329 8.09519 8.24782C7.94469 8.41927 7.74426 8.50888 7.51785 8.52255C7.27637 8.53845 7.03867 8.45622 6.85863 8.29446C6.68566 8.14017 6.56242 7.93087 6.5493 7.69634C6.51426 7.06919 6.86465 6.38243 7.27777 5.92591C7.95269 5.18017 8.90336 4.82657 9.89078 4.77978Z" fill="#2A2E36"/>
<path d="M9.76991 13.1618C10.3402 13.085 10.8647 13.4853 10.9412 14.0556C11.0177 14.6259 10.6173 15.1502 10.0469 15.2264C9.4769 15.3026 8.953 14.9025 8.87655 14.3325C8.80011 13.7626 9.19999 13.2385 9.76991 13.1618Z" fill="#2A2E36"/>
</g>
<defs>
<clipPath id="clip0_1316_362">
<rect width="20" height="20" fill="white"/>
</clipPath>
</defs>
</svg>
