<svg width="16" height="16" viewBox="0 0 16 16" fill="none" xmlns="http://www.w3.org/2000/svg">
<path opacity="0.4" d="M10.794 1.33203H5.20732C2.78065 1.33203 1.33398 2.7787 1.33398 5.20536V10.7854C1.33398 13.2187 2.78065 14.6654 5.20732 14.6654H10.7873C13.214 14.6654 14.6607 13.2187 14.6607 10.792V5.20536C14.6673 2.7787 13.2207 1.33203 10.794 1.33203Z" fill="#34C85A"/>
<path d="M11.2203 6.27495C11.1736 6.16161 11.0803 6.06828 10.967 6.02161C10.9136 6.00161 10.8536 5.98828 10.7936 5.98828H9.55362C9.29362 5.98828 9.08695 6.19495 9.08695 6.45495C9.08695 6.71495 9.29362 6.92161 9.55362 6.92161H9.67362L8.26695 8.32828L7.58695 7.31495C7.50695 7.20161 7.38695 7.12161 7.24695 7.10828C7.10029 7.09495 6.97362 7.14161 6.87362 7.24161L4.88695 9.22828C4.70695 9.40828 4.70695 9.70161 4.88695 9.88828C4.98029 9.98161 5.09362 10.0216 5.21362 10.0216C5.33362 10.0216 5.45362 9.97495 5.54029 9.88828L7.12695 8.30161L7.80695 9.31495C7.88695 9.42828 8.00695 9.50828 8.14695 9.52161C8.29362 9.53495 8.42029 9.48828 8.52029 9.38828L10.3336 7.57495V7.69495C10.3336 7.95495 10.5403 8.16161 10.8003 8.16161C11.0603 8.16161 11.267 7.95495 11.267 7.69495V6.44828C11.2536 6.38828 11.247 6.32828 11.2203 6.27495Z" fill="#34C85A"/>
</svg>
