<svg width="16" height="16" viewBox="0 0 16 16" fill="none" xmlns="http://www.w3.org/2000/svg">
<path opacity="0.4" d="M10.794 1.33301H5.20732C2.78065 1.33301 1.33398 2.77967 1.33398 5.20634V10.7863C1.33398 13.2197 2.78065 14.6663 5.20732 14.6663H10.7873C13.214 14.6663 14.6607 13.2197 14.6607 10.793V5.20634C14.6673 2.77967 13.2207 1.33301 10.794 1.33301Z" fill="#FF0719"/>
<path d="M11.2544 8.31271C11.2544 8.05271 11.0478 7.84604 10.7878 7.84604C10.5278 7.84604 10.3211 8.05271 10.3211 8.31271V8.43271L8.50776 6.61937C8.40776 6.51937 8.27443 6.47271 8.13443 6.48604C7.99443 6.49937 7.86776 6.57271 7.79443 6.69271L7.11443 7.70604L5.54109 6.11938C5.36109 5.93938 5.06776 5.93938 4.88109 6.11938C4.70109 6.29937 4.70109 6.59271 4.88109 6.77937L6.86776 8.76604C6.96776 8.86604 7.10109 8.91271 7.24109 8.89937C7.38109 8.88604 7.50776 8.81271 7.58109 8.69271L8.26109 7.67938L9.66776 9.08604H9.54776C9.28776 9.08604 9.08109 9.29271 9.08109 9.55271C9.08109 9.81271 9.28776 10.0194 9.54776 10.0194H10.7878C10.8478 10.0194 10.9078 10.006 10.9678 9.98604C11.0811 9.93937 11.1744 9.84604 11.2211 9.73271C11.2478 9.67271 11.2544 9.61271 11.2544 9.55271V8.31271Z" fill="#FF0719"/>
</svg>
