<svg width="16" height="16" viewBox="0 0 16 16" fill="none" xmlns="http://www.w3.org/2000/svg">
<path d="M14.1229 0.0031479C14.1756 -0.000711477 14.2283 -0.000415037 14.2811 0.000846682C14.6886 0.0104951 15.0997 0.196117 15.3793 0.491804C15.6722 0.803078 15.8287 1.21848 15.8139 1.64561C15.8029 1.91844 15.7189 2.21873 15.5606 2.44198C15.3457 2.74531 15.0508 3.00463 14.7885 3.26699L13.5426 4.51275L11.3708 6.68358C10.9657 7.08859 10.5682 7.51082 10.1459 7.8975C11.0574 8.78041 11.9391 9.70042 12.8343 10.6004L14.2508 12.0263C14.5502 12.326 14.8584 12.6206 15.1492 12.9285C15.463 13.2608 15.6405 13.6577 15.6233 14.1208C15.6104 14.544 15.4258 14.9438 15.1119 15.2279C14.797 15.515 14.3803 15.664 13.9548 15.6416C13.6586 15.6227 13.3734 15.5227 13.1303 15.3524C12.8883 15.1794 12.6703 14.9203 12.4598 14.7099L11.1842 13.433L9.03792 11.287C8.66022 10.9094 8.2601 10.5401 7.90378 10.1426L7.85086 10.198C6.68384 11.4123 5.46139 12.5817 4.26862 13.7711L3.21471 14.8258C2.96971 15.0713 2.72591 15.3574 2.43586 15.5484C2.1539 15.7342 1.84211 15.7961 1.50961 15.8028C1.11462 15.7635 0.754359 15.6228 0.469433 15.3402C0.168847 15.0399 0 14.6324 0 14.2076C0.002375 13.96 0.0762974 13.623 0.214419 13.4163C0.413028 13.1192 0.692313 12.8737 0.943766 12.6223L1.9596 11.6064L5.66861 7.9021L1.1423 3.37743C0.642067 2.87786 0.0878005 2.43403 0.0933669 1.66171C0.0985622 1.24379 0.266668 0.844343 0.56191 0.548433C0.86591 0.246808 1.27849 0.0801119 1.70673 0.0860494C1.97986 0.0912447 2.27844 0.167913 2.5057 0.321991C2.82172 0.53626 3.08438 0.834101 3.35268 1.10389L4.40585 2.16225C5.56989 3.33141 6.74804 4.48826 7.90051 5.66878C9.07643 4.45902 10.2944 3.28562 11.4882 2.09315L12.6176 0.962796C12.8479 0.732272 13.0756 0.47273 13.3391 0.280948C13.5686 0.113956 13.8443 0.0354331 14.1229 0.0031479Z" fill="#EBECEF"/>
</svg>
