<svg width="16" height="16" viewBox="0 0 16 16" fill="none" xmlns="http://www.w3.org/2000/svg">
<path d="M5.94697 2H6.15652C6.28427 2.04114 6.4009 2.08975 6.50222 2.1804C6.61013 2.27694 6.7093 2.38423 6.81127 2.48708L7.32641 3.00607L8.94331 4.63461L10.8707 6.57582L11.4481 7.1573C11.5794 7.28949 11.8409 7.52223 11.9222 7.67994C12.009 7.85002 12.0238 8.04826 11.9633 8.2295C11.9367 8.3108 11.8868 8.38184 11.8297 8.4443C11.7407 8.54152 11.6434 8.63321 11.5504 8.72666L11.0344 9.24624L9.44048 10.8515L7.44965 12.8566L6.85488 13.456C6.74135 13.5704 6.47767 13.8637 6.34864 13.9274C6.29146 13.9556 6.2211 13.9661 6.16806 14H5.9261C5.88286 13.9774 5.83404 13.9634 5.78904 13.9445C5.69384 13.9045 5.61339 13.8414 5.53991 13.7695C5.46563 13.6968 5.39298 13.6224 5.31968 13.5487C5.14878 13.377 5.00209 13.2157 5.00002 12.9573C4.99899 12.8315 5.04972 12.6636 5.12453 12.5626C5.17145 12.4993 5.23311 12.4439 5.28852 12.3881L5.54589 12.1289L6.45785 11.2105L9.65045 7.99599C9.57352 7.9302 9.50368 7.85075 9.43224 7.7787L9.02599 7.36944L7.72959 6.06359L6.02853 4.35031L5.46986 3.78771C5.37052 3.68767 5.26564 3.58972 5.1714 3.48493C5.1176 3.42509 5.06831 3.34812 5.04441 3.27061C4.98771 3.08671 4.99995 2.90011 5.09135 2.72966C5.11115 2.6927 5.13389 2.65816 5.16123 2.6264C5.2336 2.54228 5.31928 2.46594 5.39756 2.38718C5.48445 2.29977 5.58794 2.17466 5.68739 2.10845C5.76637 2.05587 5.85706 2.02721 5.94697 2Z" fill="currentColor"/>
</svg>
