<svg width="31" height="30" viewBox="0 0 31 30" fill="none" xmlns="http://www.w3.org/2000/svg">
<path d="M8.31902 23.0032C8.52744 23.0032 8.73585 22.9264 8.90039 22.7619L24.2575 7.4052C24.5756 7.0871 24.5756 6.56059 24.2575 6.24248C23.9394 5.92438 23.4129 5.92438 23.0948 6.24248L7.73764 21.5992C7.41953 21.9173 7.41953 22.4438 7.73764 22.7619C7.90218 22.9264 8.1106 23.0032 8.31902 23.0032Z" fill="currentColor"/>
<path d="M23.6773 18.9106C24.127 18.9106 24.5 18.5376 24.5 18.0879V6.82268C24.5 6.37295 24.127 6 23.6773 6H12.4118C11.962 6 11.5891 6.37295 11.5891 6.82268C11.5891 7.27241 11.962 7.64536 12.4118 7.64536H22.8546V18.0879C22.8546 18.5376 23.2276 18.9106 23.6773 18.9106Z" fill="currentColor"/>
</svg>
