<svg width="30" height="38" viewBox="0 0 30 38" fill="none" xmlns="http://www.w3.org/2000/svg">
<path d="M14.9923 0C15.1949 0.0291672 15.3662 0.0807659 15.5342 0.201329C15.744 0.351934 15.907 0.569951 16.0869 0.754429C16.2952 0.96795 16.52 1.16901 16.7364 1.37434C17.339 1.94609 18.0267 2.46507 18.7108 2.9337C20.0012 3.8172 21.3964 4.53418 22.8641 5.06783C24.0281 5.49061 25.2317 5.79371 26.4562 5.97252C27.0353 6.05889 27.6185 6.11493 28.2034 6.1404C28.5494 6.15625 28.9236 6.12912 29.2645 6.1835C29.3893 6.2034 29.5169 6.25713 29.6215 6.32883C29.784 6.44018 29.9246 6.67955 29.9558 6.87322C30.0351 7.36439 29.9837 8.04982 29.983 8.56136L29.9808 11.852L29.983 14.6397C29.9854 15.6793 29.9885 16.725 29.913 17.7623C29.6018 21.9289 28.1405 25.925 25.6938 29.2997C24.3983 31.091 22.8426 32.6757 21.0788 34.0007C19.8479 34.9301 18.5329 35.7616 17.2603 36.6326L16.119 37.4107C15.8486 37.5946 15.576 37.8015 15.2788 37.9384C15.2024 37.9736 15.1218 37.9865 15.0396 37.9999C14.8552 38.0038 14.6891 37.925 14.5313 37.8369C14.2708 37.6914 14.0233 37.5032 13.7768 37.3345L12.4647 36.4371C11.352 35.6791 10.2128 34.9476 9.12825 34.1494C4.34106 30.6242 1.15158 25.3186 0.269491 19.413C0.0163578 17.7527 0.0127765 16.0875 0.0124897 14.4123L0.0125675 10.5358L0.0119241 8.16369C0.0116761 7.76182 -0.0239943 7.31732 0.0292553 6.9206C0.0508032 6.7633 0.112734 6.61441 0.208932 6.48861C0.315617 6.35021 0.463476 6.24981 0.630891 6.20208C0.911773 6.12464 1.24974 6.16212 1.54123 6.15125C1.95288 6.13699 2.36399 6.10975 2.77396 6.06957C5.42473 5.79213 7.98451 4.94038 10.2775 3.57281C11.3637 2.917 12.3848 2.15762 13.3266 1.30511C13.5559 1.09485 13.7737 0.874329 13.9907 0.651403C14.1448 0.493087 14.2968 0.316656 14.4746 0.185501C14.6406 0.0630486 14.7904 0.0228139 14.9923 0ZM13.6194 19.4918C13.1344 19.0234 12.6982 18.4991 12.2377 18.0064C11.9909 17.7423 11.7434 17.4376 11.4298 17.2523C11.2 17.1164 10.936 17.0553 10.6704 17.0624C10.2201 17.0744 9.82414 17.2603 9.51542 17.5897C9.23863 17.8849 9.08477 18.3093 9.09942 18.7145C9.10795 18.9495 9.16965 19.1793 9.27979 19.3866C9.52891 19.8524 10.3865 20.6627 10.7767 21.1072C10.9969 21.3601 11.2349 21.5994 11.4612 21.8474C11.7993 22.2179 12.3338 22.8762 12.7218 23.1349C12.9539 23.2888 13.2212 23.3802 13.4983 23.4006C13.9136 23.4275 14.282 23.2673 14.5875 22.994C15.0066 22.619 15.3678 22.1815 15.7442 21.7649L17.5508 19.7875L19.416 17.7518L20.2509 16.837C20.41 16.6603 20.5762 16.4949 20.7106 16.2969C20.852 16.0889 20.922 15.7997 20.9356 15.5501C20.9585 15.1331 20.8515 14.7502 20.5678 14.4391C20.3001 14.1454 19.8944 13.9446 19.4969 13.9266C19.4014 13.9222 19.3039 13.9309 19.2084 13.9357C18.9478 13.9953 18.7231 14.065 18.5103 14.2335C18.0402 14.6058 17.6424 15.1481 17.2285 15.5855C16.5891 16.2614 15.9681 16.954 15.3396 17.6401C14.7707 18.2612 14.186 18.8687 13.6194 19.4918Z" fill="url(#paint0_linear_5993_2074)"/>
<defs>
<linearGradient id="paint0_linear_5993_2074" x1="26.8398" y1="28.7726" x2="3.50916" y2="3.46388" gradientUnits="userSpaceOnUse">
<stop stop-color="#FFBE00"/>
<stop offset="1" stop-color="#FFDB70"/>
</linearGradient>
</defs>
</svg>
