<svg width="12" height="12" viewBox="0 0 12 12" fill="none" xmlns="http://www.w3.org/2000/svg">
<path d="M6.99115 0.0137106C7.00856 0.0114366 7.02687 0.010756 7.04426 0.013562C7.09191 0.0212617 7.13867 0.0481032 7.16489 0.0893132C7.18953 0.127992 7.19135 0.1791 7.18697 0.223333C7.17689 0.324608 7.15756 0.426491 7.14249 0.527206L7.05591 1.1061L6.7917 2.87277L6.60914 4.09342L6.55442 4.46214C6.54345 4.53594 6.5359 4.61239 6.51769 4.68472C6.70306 4.67767 6.89126 4.68413 7.07688 4.68413L8.17809 4.68411L9.3975 4.68406C9.60206 4.68406 9.80857 4.67795 10.0129 4.68432C10.0515 4.68552 10.0951 4.68634 10.1315 4.70021C10.1717 4.71556 10.2094 4.74814 10.2254 4.78874C10.2397 4.82504 10.2456 4.8718 10.2289 4.90782C10.1902 4.99128 10.1219 5.06917 10.0677 5.14334L9.79851 5.51164L8.76816 6.92122L6.33992 10.2434L5.55226 11.3212C5.41667 11.5069 5.28451 11.6961 5.14505 11.8788C5.10275 11.9342 5.07469 11.9631 5.00839 11.9871C4.99454 11.9887 4.98052 11.9902 4.9666 11.9886C4.91806 11.9828 4.86755 11.9569 4.83837 11.9172C4.80842 11.8764 4.81037 11.8382 4.81383 11.7903C4.82513 11.6347 4.85851 11.4753 4.88164 11.3206L5.01978 10.3971L5.47908 7.3159C5.26908 7.32167 5.05747 7.31665 4.8473 7.31663L3.62921 7.31654H2.5322C2.34503 7.31661 2.15629 7.32242 1.96933 7.31632C1.93355 7.31518 1.89532 7.31398 1.8622 7.29912C1.82243 7.28131 1.78576 7.24885 1.77112 7.2069C1.75488 7.16037 1.76032 7.10916 1.7825 7.06547C1.81546 7.00055 1.87355 6.93596 1.91695 6.87657L2.20431 6.48347L3.24357 5.06213L5.64036 1.7831L6.46906 0.649201C6.60792 0.459233 6.74365 0.265696 6.88629 0.0785948C6.91451 0.0415723 6.94845 0.0274862 6.99115 0.0137106Z" fill="black"/>
</svg>
