<svg width="21" height="21" viewBox="0 0 21 21" fill="none" xmlns="http://www.w3.org/2000/svg">
<path d="M10.0343 17.9767C9.60788 17.9931 9.17806 17.9829 8.75133 17.9829L6.49013 17.9831L4.7408 17.9835C4.42743 17.9835 4.10692 17.9972 3.79445 17.9773C3.00723 17.927 2.26143 17.5827 1.73808 16.9877C1.38379 16.5901 1.14617 16.1023 1.05143 15.5782C0.997884 15.279 1.00386 14.9808 1.00377 14.6784L1.00395 13.786L1.00414 10.5913L1.00447 8.74444L1.00302 8.19395C1.00247 8.09349 0.995238 7.9871 1.00534 7.88737C1.00821 7.85904 1.00944 7.8478 1.032 7.83008L1.05275 7.83614C1.15306 7.87392 2.00293 7.85145 2.18705 7.85132L4.39605 7.8509H16.022C16.2048 7.85094 16.7172 7.83037 16.855 7.864C16.8855 7.87146 16.9021 7.88622 16.9144 7.91459C16.9369 7.96632 16.9258 8.77823 16.9226 8.89667C16.9212 8.94955 16.8981 9.00862 16.9024 9.05887C16.8693 9.02893 16.8238 9.03809 16.7797 9.03974C16.7674 9.04021 16.7553 9.0414 16.743 9.04262C16.6491 9.03622 16.5446 9.00349 16.4517 8.98491C16.2819 8.94972 16.1102 8.92415 15.9374 8.90842C14.6999 8.80071 13.4789 9.01222 12.3837 9.61283C10.9648 10.3875 9.91303 11.6956 9.46128 13.2478C8.9857 14.886 9.21872 16.4938 10.0343 17.9767Z" fill="#FFBE00"/>
<path d="M15.0014 10.2375C17.5988 10.0781 19.8336 12.0546 19.9928 14.652C20.152 17.2493 18.1752 19.4839 15.5777 19.6428C12.9806 19.8018 10.7462 17.8254 10.5871 15.2283C10.428 12.6313 12.4042 10.3969 15.0014 10.2375ZM16.6802 15.6171C16.8807 15.588 17.0461 15.5056 17.1686 15.3402C17.277 15.1932 17.3212 15.0087 17.2912 14.8286C17.2631 14.652 17.1644 14.4945 17.0178 14.3921C16.8155 14.2491 16.5763 14.267 16.3408 14.2662C16.2154 14.2657 16.0897 14.2624 15.9643 14.266C15.9745 14.1323 15.9702 13.9969 15.97 13.8629C15.9695 13.5908 15.9871 13.3236 15.8004 13.1024C15.6919 12.9717 15.5345 12.8911 15.3649 12.8796C15.3348 12.8775 15.3046 12.8757 15.2743 12.8744C15.0729 12.8906 14.9103 12.9475 14.7759 13.1038C14.702 13.1897 14.6516 13.2931 14.6294 13.4041C14.5813 13.6402 14.6102 14.1098 14.6108 14.3741C14.6112 14.5736 14.597 14.7809 14.6133 14.9794C14.6292 15.1728 14.7112 15.3425 14.8617 15.4668C14.9445 15.5352 15.0364 15.5786 15.1413 15.6003C15.348 15.6431 15.5869 15.6217 15.7978 15.6215C16.0917 15.6211 16.3865 15.6256 16.6802 15.6171Z" fill="#FFBE00"/>
<path d="M11.9625 3.09191C11.9844 2.76973 11.9155 2.46069 12.1618 2.20281C12.2855 2.07335 12.4532 2.00359 12.6317 2.00025C12.8156 1.99529 12.9937 2.06507 13.1253 2.19366C13.375 2.43878 13.3267 2.77198 13.3271 3.09119C13.5812 3.07959 13.8472 3.08696 14.1016 3.09628C14.9026 3.12564 15.6584 3.44647 16.2047 4.04034C16.8606 4.75335 17.0204 5.54439 16.9798 6.48085C16.6255 6.50425 16.2603 6.48691 15.9044 6.48695L13.8811 6.48678L5.31416 6.48661L2.49747 6.4867C2.00784 6.48674 1.51308 6.50286 1.0241 6.48382C0.985294 6.42627 1.00502 6.26976 1.00497 6.19742C1.0045 5.30918 1.23239 4.58377 1.87499 3.94446C2.35876 3.46088 2.99834 3.16449 3.68004 3.10798C4.00221 3.07975 4.3314 3.09268 4.65475 3.0933C4.68536 2.81935 4.61556 2.54831 4.77403 2.29996C4.88191 2.13092 5.03564 2.04852 5.22646 2.00718C5.26713 2.00385 5.3083 1.99991 5.34914 2.00018C5.53013 2.0014 5.7048 2.08065 5.83066 2.20944C6.06643 2.45071 6.01962 2.78296 6.01673 3.09156C6.20756 3.08048 6.40339 3.09259 6.59485 3.09275L7.78921 3.09295L11.9625 3.09191ZM5.69683 5.45217C5.85072 5.34437 5.96606 5.20355 6.00066 5.01405C6.04129 4.79159 6.01996 4.54009 6.0197 4.31361L6.02047 3.10686C5.64666 3.08547 5.26357 3.09653 4.88921 3.10114C4.81513 3.10215 4.74087 3.10421 4.66683 3.10345C4.64622 3.40955 4.66157 3.72395 4.66115 4.03129C4.66081 4.30119 4.63214 4.81118 4.68664 5.05751C4.70852 5.15644 4.76589 5.25287 4.83277 5.32822C4.95778 5.46908 5.1249 5.54664 5.31297 5.55487C5.45087 5.56089 5.5794 5.52446 5.69683 5.45217ZM11.9735 3.10107C11.9539 3.43503 11.97 3.77801 11.9697 4.11303C11.9694 4.36208 11.9437 4.79558 11.989 5.02554C12.0113 5.1388 12.0651 5.24099 12.1416 5.32699C12.2599 5.46222 12.4275 5.54431 12.6069 5.55487C12.7592 5.56356 12.9045 5.52234 13.0308 5.43703C13.1845 5.31634 13.2917 5.17115 13.316 4.9724C13.3428 4.75377 13.3254 4.51724 13.3253 4.29665C13.3251 3.90017 13.3282 3.50325 13.3226 3.1068C12.9336 3.08319 12.5349 3.098 12.1453 3.10117C12.088 3.10211 12.0308 3.10368 11.9735 3.10107Z" fill="#FFBE00"/>
</svg>
