<svg width="30" height="30" viewBox="0 0 30 30" fill="none" xmlns="http://www.w3.org/2000/svg">
<g clip-path="url(#clip0_5232_39895)">
<path d="M13.3285 12.5052C13.3362 12.6708 13.3296 12.8954 13.3296 13.064L13.3298 14.1686L13.3297 14.8747C13.3296 15.1452 13.3678 15.4069 13.1731 15.6211C13.0581 15.7494 12.8959 15.8256 12.7237 15.8324C12.5911 15.837 12.4454 15.7961 12.3431 15.7134C12.1599 15.5651 11.9758 15.3769 11.8051 15.213L10.8576 14.3078L7.82766 11.4179C7.64719 11.2463 7.5035 11.1217 7.50007 10.8537C7.49747 10.6499 7.56276 10.5099 7.70559 10.3668C7.97855 10.0935 8.26438 9.8322 8.54338 9.56599L10.3634 7.82798C10.857 7.3499 11.3539 6.8753 11.8542 6.40424C11.9132 6.34946 11.9706 6.29273 12.0293 6.23762C12.2349 6.04459 12.3851 5.83739 12.6917 5.83423C12.8673 5.83387 13.0357 5.90376 13.1594 6.02831C13.354 6.22405 13.3294 6.46109 13.3295 6.71642L13.3296 7.24907L13.3291 9.15923C13.8089 9.16529 14.2887 9.16685 14.7685 9.16384L17.1933 9.16357C17.9979 9.16353 18.8652 9.12771 19.6544 9.26298C20.3462 9.38455 21.0133 9.61865 21.6294 9.95599C23.1672 10.797 24.2989 12.2249 24.7666 13.914C24.8622 14.2612 24.9284 14.6123 24.9616 14.971C24.9684 15.0442 24.9762 15.1532 24.9982 15.221V16.9913C24.9204 17.138 24.94 17.1868 24.8031 17.3248C24.5027 17.6277 23.978 17.5187 23.8044 17.1379C23.724 16.9616 23.7441 16.6114 23.7198 16.3928C23.615 15.4485 23.2046 14.5642 22.551 13.8745C21.9943 13.2824 21.283 12.8578 20.4975 12.6489C19.8886 12.4897 19.4665 12.5031 18.8493 12.5031H17.7642L14.7388 12.5032L13.7803 12.5034C13.6302 12.5036 13.4778 12.5099 13.3285 12.5052Z" fill="#FFBE00"/>
<path d="M5 12.9924C5.03491 12.9356 5.04461 12.8807 5.0737 12.8272C5.15386 12.6797 5.29 12.5665 5.45345 12.5231C5.61941 12.4796 5.79584 12.5033 5.94444 12.5891C6.0839 12.6718 6.18477 12.8065 6.22484 12.9637C6.25903 13.0965 6.25243 13.281 6.26089 13.4224C6.2721 13.5963 6.29425 13.7694 6.32723 13.9406C6.56196 15.1683 7.30972 16.2375 8.38246 16.8791C8.8462 17.1572 9.35781 17.3462 9.89094 17.4365C10.3298 17.5089 10.7012 17.5 11.1439 17.5L12.3114 17.4999L16.6628 17.5004L16.6657 15.6873C16.6655 15.4896 16.6637 15.2913 16.6645 15.0939C16.6655 14.819 16.6371 14.5569 16.8511 14.3469C17.0741 14.1278 17.4287 14.1049 17.6747 14.3022C17.8523 14.4494 18.0165 14.6212 18.1842 14.7807L19.2784 15.8241L21.3563 17.8066C21.666 18.1033 21.9785 18.3997 22.2879 18.697C22.4243 18.828 22.5019 18.9848 22.4984 19.1777C22.4959 19.3173 22.4463 19.4519 22.3575 19.5596C22.2759 19.6602 21.9879 19.9226 21.8857 20.0201L20.9252 20.9363L17.7954 23.9241C17.6418 24.0696 17.5016 24.1776 17.28 24.1697C17.1034 24.162 16.9375 24.0833 16.8196 23.9516C16.7709 23.8977 16.6987 23.783 16.6888 23.7141C16.6483 23.4312 16.6693 23.1026 16.6654 22.816C16.6564 22.1617 16.6787 21.493 16.6623 20.8412L13.2457 20.8389L12.003 20.839C11.6154 20.8391 11.2269 20.8419 10.8402 20.806C9.37492 20.6628 8.00241 20.0236 6.94991 18.994C6.06119 18.1297 5.44066 17.0273 5.16274 15.8192C5.12826 15.6715 5.09958 15.5226 5.07676 15.3727C5.06256 15.2746 5.02595 14.8813 5 14.8219V12.9924Z" fill="#FFBE00"/>
</g>
<defs>
<clipPath id="clip0_5232_39895">
<rect width="20" height="20" fill="white" transform="translate(5 5)"/>
</clipPath>
</defs>
</svg>
