<svg width="60" height="60" viewBox="0 0 60 60" fill="none" xmlns="http://www.w3.org/2000/svg">
<g clip-path="url(#clip0_5232_39432)">
<path d="M28.1373 0.0588942C44.6841 -0.970489 58.9288 11.6173 59.9428 28.1651C60.9569 44.7128 48.356 58.9457 31.8073 59.9446C15.2802 60.942 1.06992 48.3612 0.0571549 31.835C-0.955616 15.3089 11.6121 1.08694 28.1373 0.0588942Z" fill="#F60B18"/>
<path d="M12.5749 10.8171C12.578 10.8168 12.581 10.8165 12.5841 10.8161C13.0864 10.7517 15.3995 11.2677 16.1165 11.4003L22.4442 12.5688L42.5426 16.2224C44.2121 17.7879 45.8921 19.3422 47.5821 20.8855L48.8765 22.0799C49.1917 22.3659 49.5446 22.6434 49.8139 22.9723C49.9147 23.0954 49.9417 23.2152 49.9552 23.3709C49.9769 23.6169 49.934 23.8496 49.8017 24.0591C49.4862 24.5579 49.0542 25.0182 48.6853 25.4801L46.4307 28.314C43.5011 31.9923 40.5466 35.6506 37.5673 39.2884L31.2148 47.0585L29.351 49.3536C29.0188 49.7645 28.7031 50.1974 28.3441 50.5851C28.1817 50.7605 28.0163 50.9157 27.7854 50.9959C27.5629 51.0732 27.307 51.0377 27.1012 50.9282C26.8168 50.7771 26.6705 50.5364 26.5488 50.2505C26.3024 49.671 26.1054 49.0629 25.8812 48.4737L24.1924 44.0184L18.2236 28.4262L13.6636 16.5673C13.3386 15.7051 13.0075 14.8454 12.6703 13.9879C12.4313 13.3863 12.1631 12.7822 11.9646 12.1661C11.8652 11.8573 11.805 11.5397 11.9706 11.2409C12.1033 11.0014 12.322 10.8913 12.5749 10.8171Z" fill="#FEFEFE"/>
<path d="M15.4609 15.4004C15.6531 15.4599 17.2837 16.9145 17.5766 17.1595L25.9044 24.0937L28.5491 26.2815C29.0593 26.7021 29.5628 27.1661 30.1133 27.5315C29.9412 28.2689 29.8613 29.0521 29.7449 29.8021L29.0613 34.3202L28.1245 40.4877C27.9788 41.4332 27.8055 42.3783 27.6811 43.3265C27.5509 44.1817 27.3423 45.071 27.2991 45.9331C27.1126 45.2958 26.8439 44.6839 26.6036 44.0657L25.4237 41.0288L21.8629 31.847L17.4879 20.5748L16.2292 17.3377C15.979 16.6915 15.745 16.0323 15.4609 15.4004Z" fill="#F60B18"/>
<path d="M45.9471 25.4023C45.9654 25.4174 45.9532 25.4051 45.9665 25.4504C44.8932 26.8751 43.7332 28.2482 42.6188 29.6418C39.8907 33.0543 37.1394 36.4483 34.3656 39.8236L31.2294 43.6714C30.6641 44.3691 30.0479 45.0626 29.5473 45.8072C29.543 45.8033 29.5378 45.8001 29.5343 45.7952C29.5339 45.7946 29.502 45.738 29.5017 45.7357C29.4875 45.6308 29.5667 45.4079 29.5839 45.2895C29.7137 44.3694 29.8492 43.4502 29.9904 42.5317L31.4792 32.4966L31.9234 29.5654C31.9986 29.0645 32.0912 28.5594 32.1383 28.055C32.6456 28.0171 33.1739 27.8744 33.6734 27.7762L36.6054 27.1989L45.9471 25.4023Z" fill="#F60B18"/>
<path d="M16.9844 13.8309C17.4252 13.8164 18.0646 14.0032 18.5095 14.0807L23.0934 14.9145L33.6901 16.8425C35.5709 17.1798 37.4539 17.5626 39.3432 17.8459C38.7791 18.2677 38.2624 18.8354 37.7571 19.3258L35.3201 21.6489C33.9705 22.9985 32.5527 24.2791 31.2097 25.6358C30.1382 24.6852 28.9636 23.7798 27.8548 22.867L22.6068 18.4969L18.8533 15.3641C18.2389 14.8528 17.6367 14.2901 16.9844 13.8309Z" fill="#F60B18"/>
<path d="M41.755 18.3848C41.9048 18.5313 42.0532 18.6792 42.2005 18.8285C42.7403 19.2589 43.2319 19.7799 43.7361 20.253C44.7325 21.1893 45.7363 22.1176 46.7475 23.0382C46.1996 23.0466 45.622 23.2064 45.0841 23.3129L42.2177 23.8843L37.3045 24.8564C36.4033 25.0351 35.4598 25.1731 34.5781 25.4292L37.3009 22.7714C37.556 22.5193 38.1722 21.829 38.4342 21.6652C38.7734 21.2907 39.1616 20.9515 39.5229 20.5973C40.2722 19.8652 41.0162 19.1276 41.755 18.3848Z" fill="#F60B18"/>
</g>
<defs>
<clipPath id="clip0_5232_39432">
<rect width="60" height="60" fill="white"/>
</clipPath>
</defs>
</svg>
