<svg width="15" height="16" viewBox="0 0 15 16" fill="none" xmlns="http://www.w3.org/2000/svg">
<g clip-path="url(#clip0_2494_1592)">
<path d="M7.14015 0.501894C7.61635 0.495293 8.09735 0.503591 8.5703 0.564882C10.102 0.759961 11.5325 1.43571 12.6558 2.49506C14.0842 3.81135 14.9264 5.64469 14.9947 7.58589C15.048 9.19084 14.7056 10.6545 13.8252 12.0107C13.5772 12.3928 13.2927 12.7632 12.98 13.0951C11.9798 14.1713 10.6815 14.9249 9.251 15.2597C8.79335 15.3698 8.31325 15.4466 7.8423 15.4599C6.20015 15.5273 4.50195 15.0528 3.16797 14.0834C1.52431 12.9015 0.417838 11.1143 0.0927766 9.11614C-0.20488 7.21959 0.213129 5.18713 1.35498 3.62641C2.2386 2.41871 3.33304 1.5309 4.73389 0.993105C5.059 0.868293 5.3924 0.758642 5.7329 0.684023C6.0399 0.616227 6.35105 0.567473 6.66405 0.538027C6.81745 0.523441 6.9798 0.527863 7.13085 0.503359C7.13385 0.502872 7.13715 0.502413 7.14015 0.501894ZM4.17334 4.37641C4.16003 4.92246 4.17665 5.47 4.17725 6.01604L6.5825 6.01509C6.5827 6.34719 6.5875 6.68004 6.5835 7.01214C5.69035 7.05074 4.68197 7.13569 3.84668 7.46139C3.67324 7.52899 3.47191 7.61509 3.34326 7.75384C3.28862 7.81274 3.24608 7.88744 3.25147 7.97014C3.25721 8.05704 3.30615 8.13089 3.37158 8.18549C3.87626 8.60639 5.29165 8.80434 5.94045 8.87299C6.0699 8.88699 6.1996 8.89844 6.3296 8.90669C6.4032 8.91139 6.47815 8.91174 6.55125 8.92084C6.56065 9.47054 6.55165 10.0219 6.55175 10.5717C6.5519 11.0579 6.56265 11.5466 6.55275 12.0326L8.3594 12.0322V9.27779C8.3594 9.16114 8.3523 9.03914 8.3633 8.92329C8.3666 8.92259 8.37015 8.92199 8.37355 8.92134C8.4615 8.90399 8.55515 8.90704 8.64455 8.90129C8.7852 8.89234 8.92635 8.87794 9.0664 8.86224C9.6181 8.80039 11.3128 8.55049 11.6309 8.10299C11.6722 8.04484 11.6897 7.97554 11.6743 7.90519C11.647 7.78064 11.5105 7.68729 11.4077 7.62544C10.8025 7.26119 9.8409 7.12434 9.1494 7.06194C9.00705 7.04919 8.8644 7.03899 8.7217 7.03119C8.66055 7.02764 8.59525 7.02784 8.5327 7.02189L8.4712 7.01359C8.43625 7.01544 8.39985 7.01269 8.36475 7.01214C8.35425 6.85954 8.3594 6.70414 8.3594 6.55119C8.3593 6.37299 8.3555 6.19304 8.36525 6.01509L9.86915 6.01554C10.1464 6.01549 10.4251 6.00934 10.7022 6.01754C10.7223 5.92339 10.7068 5.62994 10.7066 5.51849L10.7056 4.37543L6.3452 4.37592H4.91016C4.66488 4.37596 4.41846 4.3713 4.17334 4.37641ZM6.58205 8.31584H8.3594C8.35935 7.93044 8.35005 7.54214 8.36425 7.15719C9.0821 7.15434 10.443 7.28429 11.0645 7.61714C11.1762 7.67699 11.2624 7.74634 11.3003 7.87154C11.2882 7.91349 11.2769 7.95064 11.2495 7.98579C11.0086 8.29529 9.978 8.43974 9.59865 8.47994C8.85935 8.56709 8.13775 8.57639 7.39455 8.57659C6.4151 8.57689 5.4232 8.56679 4.46582 8.33394C4.26613 8.28534 4.0554 8.23049 3.87207 8.13569C3.75287 8.07404 3.67269 8.00534 3.63135 7.87394C3.64876 7.81194 3.67025 7.76814 3.71533 7.72114C4.10197 7.31834 5.8003 7.18394 6.3833 7.16254C6.44955 7.15779 6.5166 7.15819 6.583 7.15669L6.58205 8.31584Z" fill="currentColor"/>
</g>
<defs>
<clipPath id="clip0_2494_1592">
<rect width="15" height="15" fill="white" transform="translate(0 0.5)"/>
</clipPath>
</defs>
</svg>
