<svg width="15" height="16" viewBox="0 0 15 16" fill="none" xmlns="http://www.w3.org/2000/svg">
<g clip-path="url(#clip0_1081_717)">
<path d="M7.13991 0.501893C7.61623 0.495285 8.09737 0.50363 8.57047 0.564948C10.1022 0.760031 11.5325 1.43587 12.6558 2.49526C14.0842 3.81155 14.9264 5.64471 14.9946 7.5859C15.048 9.19091 14.7057 10.6546 13.8253 12.0108C13.5772 12.393 13.2926 12.7634 12.9798 13.0953C11.9796 14.1715 10.6813 14.9251 9.2508 15.2598C8.79315 15.3699 8.31321 15.4468 7.84224 15.4601C6.20006 15.5275 4.50178 15.053 3.16779 14.0835C1.52413 12.9016 0.417878 11.1146 0.0928163 9.11643C-0.20489 7.21981 0.212986 5.1875 1.35487 3.62673C2.23852 2.41894 3.33275 1.53093 4.73367 0.993107C5.05889 0.86824 5.39249 0.758724 5.73315 0.684091C6.04012 0.616295 6.35099 0.567533 6.66399 0.538087C6.81742 0.523489 6.97989 0.527977 7.13098 0.503449C7.13396 0.502963 7.13693 0.502412 7.13991 0.501893Z" fill="#28AE85"/>
<path d="M4.17237 4.37746C4.41748 4.37236 4.66356 4.37678 4.90884 4.37674L6.34427 4.37686L10.7043 4.3765L10.7056 5.51911C10.7058 5.63039 10.7215 5.92421 10.7013 6.01835L10.6895 6.02141C10.5254 6.06311 10.1846 6.0303 10.007 6.02535C9.70516 6.01695 9.40116 6.02407 9.09918 6.02402C8.89014 6.02398 8.67458 6.01305 8.46622 6.02495C8.43859 6.02652 8.4129 6.02957 8.38752 6.04116C8.36661 6.18324 8.38241 6.36212 8.38265 6.50742C8.38294 6.65525 8.36894 6.84994 8.38853 6.99331C8.41366 6.99846 8.45227 6.99741 8.47016 7.01446C8.55023 7.02906 8.63891 7.02741 8.72043 7.03212C8.86319 7.03992 9.00584 7.05017 9.14824 7.06292C9.83976 7.1253 10.8016 7.26183 11.4068 7.62611C11.5096 7.688 11.6461 7.78158 11.6734 7.90629C11.6888 7.97663 11.6708 8.0456 11.6295 8.10371C11.3114 8.55123 9.61684 8.80138 9.06524 8.86323C8.92513 8.87895 8.78401 8.89319 8.64329 8.90216C8.55389 8.90787 8.46039 8.90485 8.3724 8.92219C8.36902 8.92287 8.36568 8.92364 8.36235 8.92432C8.35137 9.04022 8.35848 9.16212 8.35844 9.27882L8.35828 9.93305V12.0328L6.55146 12.0336C6.56139 11.5474 6.55066 11.0587 6.5505 10.5723C6.55038 10.0224 6.55967 9.47126 6.55029 8.92146C6.47714 8.91237 6.40222 8.91209 6.32858 8.90739C6.19857 8.89914 6.06875 8.88804 5.93925 8.87405C5.29045 8.8054 3.87493 8.6073 3.37034 8.18632C3.30491 8.13174 3.25622 8.05811 3.25048 7.97124C3.245 7.88844 3.28749 7.81367 3.34219 7.75472C3.47084 7.61597 3.67208 7.52967 3.84553 7.46203C4.68086 7.13632 5.68931 7.05154 6.58251 7.01293C6.58653 6.68083 6.58182 6.34804 6.58166 6.0159L4.17603 6.01671C4.17542 5.47065 4.15906 4.92352 4.17237 4.37746Z" fill="#FEFEFE"/>
<path d="M8.36623 6.0156L9.87035 6.01588C10.1477 6.0158 10.4265 6.00977 10.7036 6.01798L10.6918 6.02103C10.5277 6.06274 10.1869 6.02992 10.0093 6.02497C9.70747 6.01657 9.40348 6.02369 9.1015 6.02365C8.89246 6.02361 8.6769 6.01267 8.46854 6.02457C8.44091 6.02614 8.41522 6.0292 8.38984 6.04078C8.36893 6.18286 8.38473 6.36174 8.38497 6.50704C8.38525 6.65488 8.37126 6.84956 8.39084 6.99293C8.41598 6.99808 8.45459 6.99703 8.47248 7.01408C8.43749 7.01593 8.40106 7.0132 8.36595 7.01264C8.35545 6.85994 8.36068 6.70442 8.36064 6.55136C8.36056 6.37316 8.3565 6.19356 8.36623 6.0156Z" fill="#28AE85"/>
<path d="M6.38451 7.16212C6.45078 7.15738 6.51782 7.15774 6.58426 7.15625L6.58326 8.31563L8.36084 8.31584C8.3608 7.93037 8.35139 7.54216 8.36559 7.15713C9.08344 7.15432 10.4441 7.2843 11.0656 7.61712C11.1774 7.67701 11.2639 7.74602 11.3018 7.87121C11.2897 7.91327 11.2783 7.95051 11.2509 7.9857C11.0099 8.29525 9.97897 8.43966 9.59977 8.4798C8.86044 8.56698 8.13897 8.5764 7.3957 8.5766C6.41628 8.57688 5.42471 8.56646 4.46733 8.33357C4.26758 8.28495 4.05665 8.2305 3.87326 8.13563C3.75406 8.07398 3.67415 8.00533 3.63281 7.87394C3.65023 7.81185 3.67134 7.76777 3.71646 7.72072C4.1031 7.31792 5.8015 7.18352 6.38451 7.16212Z" fill="#28AE85"/>
</g>
<defs>
<clipPath id="clip0_1081_717">
<rect width="15" height="15" fill="white" transform="translate(0 0.5)"/>
</clipPath>
</defs>
</svg>
