<svg width="29" height="29" viewBox="0 0 29 29" fill="none" xmlns="http://www.w3.org/2000/svg">
<path d="M14.3398 15.5C11.1698 15.5 8.58984 12.92 8.58984 9.75C8.58984 6.58 11.1698 4 14.3398 4C17.5098 4 20.0898 6.58 20.0898 9.75C20.0898 12.92 17.5098 15.5 14.3398 15.5ZM14.3398 5.5C11.9998 5.5 10.0898 7.41 10.0898 9.75C10.0898 12.09 11.9998 14 14.3398 14C16.6798 14 18.5898 12.09 18.5898 9.75C18.5898 7.41 16.6798 5.5 14.3398 5.5Z" fill="currentColor"/>
<path d="M22.93 25.5C22.52 25.5 22.18 25.16 22.18 24.75C22.18 21.3 18.66 18.5 14.34 18.5C10.02 18.5 6.5 21.3 6.5 24.75C6.5 25.16 6.16 25.5 5.75 25.5C5.34 25.5 5 25.16 5 24.75C5 20.48 9.19 17 14.34 17C19.49 17 23.68 20.48 23.68 24.75C23.68 25.16 23.34 25.5 22.93 25.5Z" fill="currentColor"/>
</svg>
