<svg width="29" height="28" viewBox="0 0 29 28" fill="none" xmlns="http://www.w3.org/2000/svg">
<g style="mix-blend-mode:plus-lighter">
<path d="M14.8757 25.6781C21.319 25.6781 26.5423 20.4547 26.5423 14.0114C26.5423 7.56807 21.319 2.34473 14.8757 2.34473C8.43233 2.34473 3.20898 7.56807 3.20898 14.0114C3.20898 20.4547 8.43233 25.6781 14.8757 25.6781Z" fill="#1C1C1E"/>
<path d="M14.875 8.09668C12.46 8.09668 10.5 10.0567 10.5 12.4717C10.5 14.84 12.355 16.765 14.8167 16.835C14.8517 16.835 14.8983 16.835 14.9217 16.835C14.945 16.835 14.98 16.835 15.0033 16.835C15.015 16.835 15.0267 16.835 15.0267 16.835C17.3833 16.7533 19.2383 14.84 19.25 12.4717C19.25 10.0567 17.29 8.09668 14.875 8.09668Z" fill="#121214"/>
<path d="M22.7848 22.5869C20.7082 24.5003 17.9315 25.6786 14.8748 25.6786C11.8182 25.6786 9.04151 24.5003 6.96484 22.5869C7.24484 21.5253 8.00318 20.5569 9.11151 19.8103C12.2965 17.6869 17.4765 17.6869 20.6382 19.8103C21.7582 20.5569 22.5048 21.5253 22.7848 22.5869Z" fill="#121214"/>
</g>
</svg>
