<svg width="20" height="20" viewBox="0 0 20 20" fill="none" xmlns="http://www.w3.org/2000/svg">
<g clip-path="url(#clip0_3771_2670)">
<path d="M12.381 1.90476V5.71429H10.8772V1.90476C10.8772 1.63409 10.6366 1.50376 10.4762 1.50376C10.4261 1.50376 10.3759 1.51378 10.3258 1.53383L2.37594 4.53133C1.84461 4.73183 1.50376 5.23308 1.50376 5.80451V6.47619C0.591479 7.15789 0 8.25058 0 9.48366V5.80451C0 4.61153 0.73183 3.54887 1.84461 3.12782L9.80451 0.120301C10.0251 0.0401001 10.2556 0 10.4762 0C11.4787 0 12.381 0.81203 12.381 1.90476Z" fill="url(#paint0_linear_3771_2670)"/>
<path d="M19.0512 12.4798V13.4823C19.0512 13.753 18.8406 13.9735 18.5599 13.9835H17.0963C16.5649 13.9835 16.0837 13.5926 16.0436 13.0712C16.0136 12.7605 16.1339 12.4697 16.3344 12.2692C16.5148 12.0788 16.7655 11.9785 17.0361 11.9785H18.5499C18.8406 11.9885 19.0512 12.2091 19.0512 12.4798Z" fill="url(#paint1_linear_3771_2670)"/>
<path d="M17.0226 10.9269H18.0451C18.5965 10.9269 19.0476 10.4758 19.0476 9.92439V9.48329C19.0476 7.4081 17.3534 5.71387 15.2782 5.71387H3.76942C2.91729 5.71387 2.13534 5.99457 1.50376 6.47577C0.591479 7.15748 0 8.25021 0 9.48329V16.2302C0 18.3053 1.69424 19.9996 3.76942 19.9996H15.2782C17.3534 19.9996 19.0476 18.3053 19.0476 16.2302V16.0397C19.0476 15.4883 18.5965 15.0372 18.0451 15.0372H17.1729C16.2105 15.0372 15.2882 14.4457 15.0376 13.5134C14.8271 12.7515 15.0777 12.0196 15.5789 11.5284C15.9499 11.1475 16.4612 10.9269 17.0226 10.9269ZM11.5288 10.7264H4.51128C4.10025 10.7264 3.7594 10.3855 3.7594 9.97452C3.7594 9.56349 4.10025 9.22264 4.51128 9.22264H11.5288C11.9398 9.22264 12.2807 9.56349 12.2807 9.97452C12.2807 10.3855 11.9398 10.7264 11.5288 10.7264Z" fill="url(#paint2_linear_3771_2670)"/>
</g>
<defs>
<linearGradient id="paint0_linear_3771_2670" x1="11.0768" y1="7.18078" x2="6.10766" y2="-1.73299" gradientUnits="userSpaceOnUse">
<stop stop-color="#FFBE00"/>
<stop offset="1" stop-color="#FFDB70"/>
</linearGradient>
<linearGradient id="paint1_linear_3771_2670" x1="18.7339" y1="13.4967" x2="17.7647" y2="11.496" gradientUnits="userSpaceOnUse">
<stop stop-color="#FFBE00"/>
<stop offset="1" stop-color="#FFDB70"/>
</linearGradient>
<linearGradient id="paint2_linear_3771_2670" x1="17.0412" y1="16.5306" x2="9.6397" y2="2.97058" gradientUnits="userSpaceOnUse">
<stop stop-color="#FFBE00"/>
<stop offset="1" stop-color="#FFDB70"/>
</linearGradient>
<clipPath id="clip0_3771_2670">
<rect width="20" height="20" fill="white"/>
</clipPath>
</defs>
</svg>
