<svg width="20" height="20" viewBox="0 0 20 20" fill="none" xmlns="http://www.w3.org/2000/svg">
<path d="M9.97106 1.66802C14.5712 1.65227 18.3136 5.36766 18.3311 9.96778C18.3487 14.5679 14.6348 18.3118 10.0347 18.3311C5.432 18.3505 1.6856 14.6341 1.66803 10.0314C1.65046 5.42871 5.3684 1.68377 9.97106 1.66802ZM10.0245 11.6629C10.2664 11.6467 10.4645 11.5584 10.6264 11.3748C10.7347 11.2521 10.7995 11.1092 10.8224 10.9473C10.8505 10.748 10.8335 10.5282 10.8335 10.3269L10.8334 9.17965L10.8332 7.50106C10.8334 7.20508 10.8489 6.90129 10.8282 6.60645C10.8138 6.38637 10.7117 6.18121 10.5448 6.03703C10.3848 5.89867 10.1956 5.83926 9.98567 5.84379C9.73743 5.85887 9.54344 5.92645 9.3736 6.11653C9.2643 6.23887 9.19997 6.39145 9.17727 6.55321C9.15094 6.74078 9.16676 6.94852 9.16672 7.13778V8.22903L9.16696 9.94848C9.16684 10.2579 9.15286 10.5742 9.17106 10.8829C9.18254 11.1041 9.28321 11.3111 9.45004 11.4566C9.61305 11.6005 9.80887 11.6637 10.0245 11.6629ZM10.1137 14.153C10.5653 14.0902 10.8816 13.6747 10.822 13.2226C10.7623 12.7706 10.349 12.4514 9.89657 12.5079C9.43961 12.5649 9.11653 12.9832 9.17676 13.4398C9.23704 13.8963 9.65758 14.2165 10.1137 14.153Z" fill="#FF9720"/>
</svg>
