<svg width="18" height="18" viewBox="0 0 18 18" fill="none" xmlns="http://www.w3.org/2000/svg">
<path d="M8.97106 0.668019C13.5712 0.652273 17.3136 4.36766 17.3311 8.96778C17.3487 13.5679 13.6348 17.3118 9.03469 17.3311C4.432 17.3505 0.685601 13.6341 0.668031 9.03137C0.650464 4.42871 4.3684 0.683773 8.97106 0.668019ZM9.02453 10.6629C9.26645 10.6467 9.4645 10.5584 9.62645 10.3748C9.73469 10.2521 9.79954 10.1092 9.82239 9.94731C9.85047 9.74805 9.83348 9.52817 9.83352 9.32692L9.8334 8.17965L9.83325 6.50106C9.83336 6.20508 9.84891 5.90129 9.82817 5.60645C9.81379 5.38637 9.71172 5.18121 9.54481 5.03703C9.38477 4.89867 9.19559 4.83926 8.98567 4.84379C8.73743 4.85887 8.54344 4.92645 8.3736 5.11653C8.2643 5.23887 8.19997 5.39145 8.17727 5.55321C8.15094 5.74078 8.16676 5.94852 8.16672 6.13778V7.22903L8.16696 8.94848C8.16684 9.25793 8.15286 9.57422 8.17106 9.88293C8.18254 10.1041 8.28321 10.3111 8.45004 10.4566C8.61305 10.6005 8.80887 10.6637 9.02453 10.6629ZM9.11372 13.153C9.56532 13.0902 9.88161 12.6747 9.82196 12.2226C9.76227 11.7706 9.34903 11.4514 8.89657 11.5079C8.43961 11.5649 8.11653 11.9832 8.17676 12.4398C8.23704 12.8963 8.65758 13.2165 9.11372 13.153Z" fill="#FFBE00"/>
</svg>
