<svg width="25" height="30" viewBox="0 0 25 30" fill="none" xmlns="http://www.w3.org/2000/svg">
<g clip-path="url(#clip0_5474_2209)">
<path d="M0 9C0 5.84971 0 4.27456 0.616944 3.07131C1.15962 2.01289 2.02555 1.15237 3.09062 0.613088C4.30144 0 5.88649 0 9.0566 0H12.8247C14.1175 0 14.7639 0 15.3767 0.136852C15.9203 0.258222 16.4427 0.458661 16.9274 0.731687C17.4738 1.03954 17.9525 1.47113 18.91 2.33433L20.8962 4.125L22.1999 5.51889C23.0954 6.47635 23.5431 6.95509 23.8626 7.50439C24.146 7.99151 24.3542 8.51814 24.4804 9.06668C24.6226 9.68522 24.6226 10.3387 24.6226 11.6459V21C24.6226 24.1503 24.6226 25.7255 24.0057 26.9287C23.463 27.9871 22.5971 28.8476 21.532 29.3869C20.3212 30 18.7361 30 15.566 30H9.0566C5.88649 30 4.30144 30 3.09062 29.3869C2.02555 28.8476 1.15962 27.9871 0.616944 26.9287C0 25.7255 0 24.1503 0 21V9Z" fill="#37A147"/>
<path d="M17.3331 7.5937C18.7365 8.98835 20.1961 8.79663 21.4984 8.79817C23.1764 8.80017 24.4138 8.73691 24.4138 8.73691C24.4138 8.73691 24.2907 8.06341 23.7102 7.233C23.0281 6.25722 21.8187 5.04636 20.976 4.18451C20.0688 3.25685 18.6402 1.96161 17.7199 1.23276C17.1092 0.749225 16.7749 0.625 16.7749 0.625C16.7749 0.625 16.2157 2.25618 16.3069 4.20719C16.3567 5.2736 16.198 6.46568 17.3331 7.5937Z" fill="#5FBC6C"/>
<path d="M9.33999 11.7188H7.4532C6.41115 11.7188 5.56641 12.5582 5.56641 13.5938V14.5312C5.56641 15.5668 6.41115 16.4062 7.4532 16.4062H9.33999C10.382 16.4062 11.2268 15.5668 11.2268 14.5312V13.5938C11.2268 12.5582 10.382 11.7188 9.33999 11.7188Z" fill="white"/>
<path d="M9.33999 17.9062H7.4532C6.41115 17.9062 5.56641 18.7457 5.56641 19.7812V20.7188C5.56641 21.7543 6.41115 22.5938 7.4532 22.5938H9.33999C10.382 22.5938 11.2268 21.7543 11.2268 20.7188V19.7812C11.2268 18.7457 10.382 17.9062 9.33999 17.9062Z" fill="white"/>
<path d="M16.508 11.7188H14.6212C13.5791 11.7188 12.7344 12.5582 12.7344 13.5938V14.5312C12.7344 15.5668 13.5791 16.4062 14.6212 16.4062H16.508C17.55 16.4062 18.3948 15.5668 18.3948 14.5312V13.5938C18.3948 12.5582 17.55 11.7188 16.508 11.7188Z" fill="white"/>
<path d="M16.508 17.9062H14.6212C13.5791 17.9062 12.7344 18.7457 12.7344 19.7812V20.7188C12.7344 21.7543 13.5791 22.5938 14.6212 22.5938H16.508C17.55 22.5938 18.3948 21.7543 18.3948 20.7188V19.7812C18.3948 18.7457 17.55 17.9062 16.508 17.9062Z" fill="white"/>
</g>
<defs>
<clipPath id="clip0_5474_2209">
<rect width="25" height="30" fill="white"/>
</clipPath>
</defs>
</svg>
